<svg width="84" height="84" viewBox="0 0 84 84" fill="none" xmlns="http://www.w3.org/2000/svg">
<path d="M33.25 61.25C33.25 46.403 44.877 34.251 59.5 33.3375V9.625C59.5 4.3155 55.1845 0 49.875 0H9.625C4.3155 0 0 4.3155 0 9.625V63.875C0 69.1845 4.3155 73.5 9.625 73.5H36.1095C34.2965 69.7935 33.25 65.646 33.25 61.25Z" fill="#ECEFF1"/>
<path d="M29.75 24.5C33.616 24.5 36.75 21.366 36.75 17.5C36.75 13.634 33.616 10.5 29.75 10.5C25.884 10.5 22.75 13.634 22.75 17.5C22.75 21.366 25.884 24.5 29.75 24.5Z" fill="#90A4AE"/>
<path d="M31.815 52.5H17.5C15.5645 52.5 14 50.932 14 49C14 47.068 15.5645 45.5 17.5 45.5H31.815C33.7505 45.5 35.315 47.068 35.315 49C35.315 50.932 33.7505 52.5 31.815 52.5Z" fill="#90A4AE"/>
<path d="M29.75 63H17.5C15.5645 63 14 61.432 14 59.5C14 57.568 15.5645 56 17.5 56H29.75C31.6855 56 33.25 57.568 33.25 59.5C33.25 61.432 31.6855 63 29.75 63Z" fill="#90A4AE"/>
<path d="M43.736 39.438C43.736 39.417 43.75 39.3995 43.75 39.375V37.625C43.75 32.3155 39.4345 28 34.125 28H25.375C20.0655 28 15.75 32.3155 15.75 37.625V39.375C15.75 40.824 16.926 42 18.375 42H40.971C41.8355 41.0865 42.756 40.2255 43.736 39.438Z" fill="#90A4AE"/>
<path d="M29.75 0H9.625C4.3155 0 0 4.3155 0 9.625V63.875C0 69.1845 4.3155 73.5 9.625 73.5H29.75V63H17.5C15.568 63 14 61.432 14 59.5C14 57.568 15.568 56 17.5 56H29.75V52.5H17.5C15.568 52.5 14 50.932 14 49C14 47.068 15.568 45.5 17.5 45.5H29.75V42H18.375C16.926 42 15.75 40.824 15.75 39.375V37.625C15.75 32.3155 20.0655 28 25.375 28H29.75V24.5C25.8895 24.5 22.75 21.3605 22.75 17.5C22.75 13.6395 25.8895 10.5 29.75 10.5V0Z" fill="#DEE3E7"/>
<path d="M29.75 10.5C25.8895 10.5 22.75 13.6395 22.75 17.5C22.75 21.3605 25.8895 24.5 29.75 24.5V10.5Z" fill="#7D8F97"/>
<path d="M29.75 28H25.375C20.0655 28 15.75 32.3155 15.75 37.625V39.375C15.75 40.824 16.926 42 18.375 42H29.75V28Z" fill="#7D8F97"/>
<path d="M29.75 45.5H17.5C15.568 45.5 14 47.068 14 49C14 50.932 15.568 52.5 17.5 52.5H29.75V45.5Z" fill="#7D8F97"/>
<path d="M29.75 56H17.5C15.568 56 14 57.568 14 59.5C14 61.432 15.568 63 17.5 63H29.75V56Z" fill="#7D8F97"/>
<path d="M61.25 84C48.706 84 38.5 73.794 38.5 61.25C38.5 48.706 48.706 38.5 61.25 38.5C73.794 38.5 84 48.706 84 61.25C84 73.794 73.794 84 61.25 84Z" fill="#2196F3"/>
<path d="M61.2773 84C55.2509 84 49.4713 81.606 45.21 77.3447C40.9487 73.0834 38.5547 67.3038 38.5547 61.2773C38.5547 55.2509 40.9487 49.4713 45.21 45.21C49.4713 40.9487 55.2509 38.5547 61.2773 38.5547L61.2773 61.2773L61.2773 84Z" fill="#1D83D4"/>
<path d="M64.8549 64.6906L70.0175 64.6906C71.9529 64.6906 73.517 63.1265 73.517 61.1912C73.517 59.2558 71.9529 57.6917 70.0175 57.6917L64.8549 57.6917L64.8549 52.5291C64.8549 50.5938 63.2908 49.0296 61.3555 49.0296C59.4201 49.0296 57.856 50.5938 57.856 52.5291L57.856 57.6917L52.6934 57.6917C50.7581 57.6917 49.1939 59.2558 49.1939 61.1912C49.1939 63.1265 50.7581 64.6906 52.6934 64.6906L57.856 64.6906L57.856 69.8532C57.856 71.7886 59.4201 73.3527 61.3555 73.3527C63.2908 73.3527 64.8549 71.7886 64.8549 69.8532L64.8549 64.6906Z" fill="white"/>
</svg>
