<svg width="84" height="84" viewBox="0 0 84 84" fill="none" xmlns="http://www.w3.org/2000/svg">
<g clip-path="url(#clip0_1320_9887)">
<path d="M66.2203 26.3555V35.4205C65.1703 35.1405 64.0853 35.0005 63.0003 35.0005C60.4103 35.0005 52.5003 35.8755 51.1703 46.3055C50.7503 46.267 50.3303 46.2005 49.8753 46.2005H48.1253C40.8803 46.2005 35.0003 52.0805 35.0003 59.3255V70.0005H7.28027C5.35527 70.0005 3.78027 68.4255 3.78027 66.5005V26.3555H66.2203Z" fill="#FFB74D"/>
<path d="M43.516 38.7834H26.485C24.9205 38.7834 23.6465 37.5129 23.6465 35.9484C23.6465 34.3804 24.917 33.1064 26.485 33.1064H43.5125C45.077 33.1064 46.351 34.3769 46.351 35.9484C46.351 37.5129 45.0805 38.7834 43.516 38.7834Z" fill="#795548"/>
<path d="M68.25 26.3446H1.75C0.784 26.3446 0 25.5571 0 24.5946V13.1006H70V24.5946C70 25.5606 69.216 26.3446 68.25 26.3446Z" fill="#FFCC80"/>
<path d="M70 13.1005L59.5945 0H10.4055L0 13.1005H70Z" fill="#FFA726"/>
<path d="M35.0003 26.3555H3.78027V66.5005C3.78027 68.4255 5.35527 70.0005 7.28027 70.0005H35.0003V59.3255V38.784H26.4848C24.9203 38.784 23.6463 37.5135 23.6463 35.949C23.6463 34.381 24.9168 33.107 26.4848 33.107H35.0003V26.3555Z" fill="#DE9F43"/>
<path d="M35.0005 33.1064H26.485C24.9205 33.1064 23.6465 34.3769 23.6465 35.9484C23.6465 37.5129 24.917 38.7834 26.485 38.7834H35.0005V33.1064Z" fill="#694A3F"/>
<path d="M35 13.1006H0V24.5946C0 25.5571 0.784 26.3446 1.75 26.3446H35V13.1006Z" fill="#DEB26F"/>
<path d="M35 0H10.4055L0 13.1005H35V0Z" fill="#DE9121"/>
<path d="M73.1185 84H70.1925C57.6275 84 52.2725 79.8735 51.7055 79.4045C51.1 78.904 50.75 78.1655 50.75 77.3815V59.0065C50.75 58.058 51.268 57.176 52.101 56.7105C53.7355 55.797 57.981 52.703 57.981 49.42C57.981 47.201 57.981 42 63.0035 42C66.192 42 69.622 44.821 69.622 51.016C69.622 52.8325 69.335 54.565 68.992 56H74.984C77.6405 56 80.1465 57.162 81.865 59.1885C83.58 61.215 84.315 63.8785 83.8775 66.5L82.005 76.517C81.284 80.8325 77.5425 84 73.1185 84Z" fill="#ECEFF1"/>
<path d="M62.9996 42C57.9771 42 57.9771 47.1975 57.9771 49.42C57.9771 52.7065 53.7351 55.797 52.0971 56.7105C51.2676 57.176 50.7461 58.0545 50.7461 59.0065V77.3815C50.7461 78.1655 51.0961 78.9075 51.6981 79.4045C52.1426 79.772 55.5236 82.3795 62.9961 83.496V42H62.9996Z" fill="#D6DDE3"/>
<path d="M49.875 83.9995H48.125C44.7475 83.9995 42 81.252 42 77.8745V59.3105C42 55.933 44.7475 53.1855 48.125 53.1855H49.875C53.2525 53.1855 56 55.933 56 59.3105V77.8745C56 81.252 53.2525 83.9995 49.875 83.9995Z" fill="#2196F3"/>
<path d="M49 53.1855H48.125C44.7475 53.1855 42 55.933 42 59.3105V77.8745C42 81.252 44.7475 83.9995 48.125 83.9995H49V53.1855Z" fill="#1D83D4"/>
</g>
<defs>
<clipPath id="clip0_1320_9887">
<rect width="84" height="84" fill="white"/>
</clipPath>
</defs>
</svg>
