<svg width="30" height="30" viewBox="0 0 30 30" fill="none" xmlns="http://www.w3.org/2000/svg">
<path d="M15 30C6.72875 30 0 23.2713 0 15C0 6.72875 6.72875 0 15 0C23.2713 0 30 6.72875 30 15C30 23.2713 23.2713 30 15 30ZM15 1.25C7.41875 1.25 1.25 7.41875 1.25 15C1.25 22.5813 7.41875 28.75 15 28.75C22.5813 28.75 28.75 22.5813 28.75 15C28.75 7.41875 22.5813 1.25 15 1.25Z" fill="#219653"/>
<path d="M15 10C13.8973 10 13 9.10267 13 8C13 6.89733 13.8973 6 15 6C16.1027 6 17 6.89733 17 8C17 9.10267 16.1027 10 15 10ZM15 7.33333C14.6333 7.33333 14.3333 7.632 14.3333 8C14.3333 8.368 14.6333 8.66667 15 8.66667C15.3667 8.66667 15.6667 8.368 15.6667 8C15.6667 7.632 15.3667 7.33333 15 7.33333Z" fill="#219653"/>
<path d="M14.4 22C14.0688 22 13.8 21.72 13.8 21.375V13.25H12.6C12.2688 13.25 12 12.97 12 12.625C12 12.28 12.2688 12 12.6 12H14.4C14.7312 12 15 12.28 15 12.625V21.375C15 21.72 14.7312 22 14.4 22Z" fill="#219653"/>
<path d="M17.4 22H12.6C12.2688 22 12 21.776 12 21.5C12 21.224 12.2688 21 12.6 21H17.4C17.7312 21 18 21.224 18 21.5C18 21.776 17.7312 22 17.4 22Z" fill="#219653"/>
</svg>
