<svg width="25" height="25" viewBox="0 0 25 25" fill="none" xmlns="http://www.w3.org/2000/svg">
<g clip-path="url(#clip0_1123_12533)">
<path d="M19.2708 25H5.72917C4.29271 25 3.125 23.8312 3.125 22.3958V5.72917C3.125 4.29375 4.29271 3.125 5.72917 3.125H7.8125C8.1 3.125 8.33333 3.35833 8.33333 3.64583C8.33333 3.93333 8.1 4.16667 7.8125 4.16667H5.72917C4.86771 4.16667 4.16667 4.86771 4.16667 5.72917V22.3958C4.16667 23.2573 4.86771 23.9583 5.72917 23.9583H19.2708C20.1323 23.9583 20.8333 23.2573 20.8333 22.3958V5.72917C20.8333 4.86771 20.1323 4.16667 19.2708 4.16667H17.1875C16.9 4.16667 16.6667 3.93333 16.6667 3.64583C16.6667 3.35833 16.9 3.125 17.1875 3.125H19.2708C20.7073 3.125 21.875 4.29375 21.875 5.72917V22.3958C21.875 23.8312 20.7073 25 19.2708 25Z" fill="#219653"/>
<path d="M16.1459 6.25H8.85419C7.99273 6.25 7.29169 5.54896 7.29169 4.6875V2.60417C7.29169 2.31667 7.52502 2.08333 7.81252 2.08333H9.94794C10.1896 0.895833 11.2427 0 12.5 0C13.7573 0 14.8104 0.895833 15.0521 2.08333H17.1875C17.475 2.08333 17.7084 2.31667 17.7084 2.60417V4.6875C17.7084 5.54896 17.0073 6.25 16.1459 6.25ZM8.33335 3.125V4.6875C8.33335 4.975 8.56773 5.20833 8.85419 5.20833H16.1459C16.4323 5.20833 16.6667 4.975 16.6667 4.6875V3.125H14.5834C14.2959 3.125 14.0625 2.89167 14.0625 2.60417C14.0625 1.74271 13.3615 1.04167 12.5 1.04167C11.6386 1.04167 10.9375 1.74271 10.9375 2.60417C10.9375 2.89167 10.7042 3.125 10.4167 3.125H8.33335Z" fill="#219653"/>
<path d="M19.2708 21.8757H5.72915C5.44165 21.8757 5.20831 21.6423 5.20831 21.3548V8.85482C5.20831 8.56732 5.44165 8.33398 5.72915 8.33398H19.2708C19.5583 8.33398 19.7916 8.56732 19.7916 8.85482V21.3548C19.7916 21.6423 19.5583 21.8757 19.2708 21.8757ZM6.24998 20.834H18.75V9.37565H6.24998V20.834Z" fill="#219653"/>
<path d="M9.89584 21.8757C9.60833 21.8757 9.375 21.6423 9.375 21.3548V8.85482C9.375 8.56732 9.60833 8.33398 9.89584 8.33398C10.1833 8.33398 10.4167 8.56732 10.4167 8.85482V21.3548C10.4167 21.6423 10.1833 21.8757 9.89584 21.8757Z" fill="#219653"/>
<path d="M19.2708 12.5007H5.72915C5.44165 12.5007 5.20831 12.2673 5.20831 11.9798C5.20831 11.6923 5.44165 11.459 5.72915 11.459H19.2708C19.5583 11.459 19.7916 11.6923 19.7916 11.9798C19.7916 12.2673 19.5583 12.5007 19.2708 12.5007Z" fill="#219653"/>
<path d="M19.2708 15.6256H5.72915C5.44165 15.6256 5.20831 15.3923 5.20831 15.1048C5.20831 14.8173 5.44165 14.584 5.72915 14.584H19.2708C19.5583 14.584 19.7916 14.8173 19.7916 15.1048C19.7916 15.3923 19.5583 15.6256 19.2708 15.6256Z" fill="#219653"/>
<path d="M19.2708 18.7506H5.72915C5.44165 18.7506 5.20831 18.5173 5.20831 18.2298C5.20831 17.9423 5.44165 17.709 5.72915 17.709H19.2708C19.5583 17.709 19.7916 17.9423 19.7916 18.2298C19.7916 18.5173 19.5583 18.7506 19.2708 18.7506Z" fill="#219653"/>
</g>
<defs>
<clipPath id="clip0_1123_12533">
<rect width="25" height="25" fill="white"/>
</clipPath>
</defs>
</svg>
