<svg width="30" height="31" viewBox="0 0 30 31" fill="none" xmlns="http://www.w3.org/2000/svg">
<path d="M28.75 16.7241H1.25C0.559998 16.7241 0 16.1641 0 15.4741C0 14.7841 0.559998 14.2241 1.25 14.2241H28.75C29.44 14.2241 30 14.7841 30 15.4741C30 16.1641 29.44 16.7241 28.75 16.7241Z" fill="#092F33"/>
<path d="M28.75 7.14062H1.25C0.559998 7.14062 0 6.58063 0 5.89062C0 5.20062 0.559998 4.64062 1.25 4.64062H28.75C29.44 4.64062 30 5.20062 30 5.89062C30 6.58063 29.44 7.14062 28.75 7.14062Z" fill="#092F33"/>
<path d="M28.75 26.3072H1.25C0.559998 26.3072 0 25.7472 0 25.0572C0 24.3672 0.559998 23.8072 1.25 23.8072H28.75C29.44 23.8072 30 24.3672 30 25.0572C30 25.7472 29.44 26.3072 28.75 26.3072Z" fill="#092F33"/>
</svg>
