<svg width="25" height="24" viewBox="0 0 25 24" fill="none" xmlns="http://www.w3.org/2000/svg">
<path d="M19 24H6C4.622 24 3.5 22.878 3.5 21.5V7.5C3.5 7.224 3.724 7 4 7C4.276 7 4.5 7.224 4.5 7.5V21.5C4.5 22.327 5.173 23 6 23H19C19.827 23 20.5 22.327 20.5 21.5V7.5C20.5 7.224 20.724 7 21 7C21.276 7 21.5 7.224 21.5 7.5V21.5C21.5 22.878 20.378 24 19 24Z" fill="#092F33"/>
<path d="M23 8H2C1.724 8 1.5 7.776 1.5 7.5V5.5C1.5 4.122 2.622 3 4 3H21C22.378 3 23.5 4.122 23.5 5.5V7.5C23.5 7.776 23.276 8 23 8ZM2.5 7H22.5V5.5C22.5 4.673 21.827 4 21 4H4C3.173 4 2.5 4.673 2.5 5.5V7Z" fill="#092F33"/>
<path d="M17 4C16.724 4 16.5 3.776 16.5 3.5V1.5C16.5 1.224 16.276 1 16 1H9C8.724 1 8.5 1.224 8.5 1.5V3.5C8.5 3.776 8.276 4 8 4C7.724 4 7.5 3.776 7.5 3.5V1.5C7.5 0.673 8.173 0 9 0H16C16.827 0 17.5 0.673 17.5 1.5V3.5C17.5 3.776 17.276 4 17 4Z" fill="#092F33"/>
<path d="M12.5 20C12.224 20 12 19.776 12 19.5V11.5C12 11.224 12.224 11 12.5 11C12.776 11 13 11.224 13 11.5V19.5C13 19.776 12.776 20 12.5 20Z" fill="#092F33"/>
<path d="M8 20C7.724 20 7.5 19.776 7.5 19.5V11.5C7.5 11.224 7.724 11 8 11C8.27601 11 8.50001 11.224 8.50001 11.5V19.5C8.50001 19.776 8.27601 20 8 20Z" fill="#092F33"/>
<path d="M17 20C16.724 20 16.5 19.776 16.5 19.5V11.5C16.5 11.224 16.724 11 17 11C17.276 11 17.5 11.224 17.5 11.5V19.5C17.5 19.776 17.276 20 17 20Z" fill="#092F33"/>
</svg>
