<svg width="25" height="25" viewBox="0 0 25 25" fill="none" xmlns="http://www.w3.org/2000/svg">
<g clip-path="url(#clip0_4101_15113)">
<path d="M18 24.5H3C1.622 24.5 0.5 23.378 0.5 22V3C0.5 1.622 1.622 0.5 3 0.5H10C10.276 0.5 10.5 0.724 10.5 1C10.5 1.276 10.276 1.5 10 1.5H3C2.173 1.5 1.5 2.173 1.5 3V22C1.5 22.827 2.173 23.5 3 23.5H18C18.827 23.5 19.5 22.827 19.5 22V16C19.5 15.724 19.724 15.5 20 15.5C20.276 15.5 20.5 15.724 20.5 16V22C20.5 23.378 19.378 24.5 18 24.5Z" fill="#219653"/>
<path d="M4 21.5C3.724 21.5 3.5 21.276 3.5 21V16C3.5 15.724 3.724 15.5 4 15.5H5.5C6.603 15.5 7.5 16.397 7.5 17.5C7.5 18.603 6.603 19.5 5.5 19.5H4.5V21C4.5 21.276 4.276 21.5 4 21.5ZM4.5 18.5H5.5C6.051 18.5 6.5 18.051 6.5 17.5C6.5 16.949 6.051 16.5 5.5 16.5H4.5V18.5Z" fill="#219653"/>
<path d="M11 21.5H9C8.724 21.5 8.5 21.276 8.5 21V16C8.5 15.724 8.724 15.5 9 15.5H11C11.827 15.5 12.5 16.173 12.5 17V20C12.5 20.827 11.827 21.5 11 21.5ZM9.5 20.5H11C11.276 20.5 11.5 20.276 11.5 20V17C11.5 16.724 11.276 16.5 11 16.5H9.5V20.5Z" fill="#219653"/>
<path d="M14 21.5C13.724 21.5 13.5 21.276 13.5 21V17C13.5 16.173 14.173 15.5 15 15.5H17C17.276 15.5 17.5 15.724 17.5 16C17.5 16.276 17.276 16.5 17 16.5H15C14.724 16.5 14.5 16.724 14.5 17V21C14.5 21.276 14.276 21.5 14 21.5Z" fill="#219653"/>
<path d="M17 19.5H14C13.724 19.5 13.5 19.276 13.5 19C13.5 18.724 13.724 18.5 14 18.5H17C17.276 18.5 17.5 18.724 17.5 19C17.5 19.276 17.276 19.5 17 19.5Z" fill="#219653"/>
<path d="M18 13.5C14.416 13.5 11.5 10.584 11.5 7C11.5 3.416 14.416 0.5 18 0.5C21.584 0.5 24.5 3.416 24.5 7C24.5 10.584 21.584 13.5 18 13.5ZM18 1.5C14.967 1.5 12.5 3.967 12.5 7C12.5 10.033 14.967 12.5 18 12.5C21.033 12.5 23.5 10.033 23.5 7C23.5 3.967 21.033 1.5 18 1.5Z" fill="#219653"/>
<path d="M18 10.5C17.724 10.5 17.5 10.276 17.5 9.99999V4C17.5 3.724 17.724 3.5 18 3.5C18.276 3.5 18.5 3.724 18.5 4V9.99999C18.5 10.276 18.276 10.5 18 10.5Z" fill="#219653"/>
<path d="M21 7.50001H15C14.724 7.50001 14.5 7.276 14.5 7C14.5 6.724 14.724 6.5 15 6.5H21C21.276 6.5 21.5 6.724 21.5 7C21.5 7.276 21.276 7.50001 21 7.50001Z" fill="#219653"/>
</g>
<defs>
<clipPath id="clip0_4101_15113">
<rect width="24" height="24" fill="white" transform="translate(0.5 0.5)"/>
</clipPath>
</defs>
</svg>
