<svg width="30" height="31" viewBox="0 0 30 31" fill="none" xmlns="http://www.w3.org/2000/svg">
<g clip-path="url(#clip0_3448_17751)">
<path d="M29.375 9.44922C29.03 9.44922 28.75 9.16922 28.75 8.82422V3.82422C28.75 2.79047 27.9087 1.94922 26.875 1.94922H21.875C21.53 1.94922 21.25 1.66922 21.25 1.32422C21.25 0.979219 21.53 0.699219 21.875 0.699219H26.875C28.5975 0.699219 30 2.10047 30 3.82422V8.82422C30 9.16922 29.72 9.44922 29.375 9.44922Z" fill="#219653"/>
<path d="M26.875 30.6992H21.875C21.53 30.6992 21.25 30.4192 21.25 30.0742C21.25 29.7292 21.53 29.4492 21.875 29.4492H26.875C27.9087 29.4492 28.75 28.608 28.75 27.5742V22.5742C28.75 22.2292 29.03 21.9492 29.375 21.9492C29.72 21.9492 30 22.2292 30 22.5742V27.5742C30 29.298 28.5975 30.6992 26.875 30.6992Z" fill="#219653"/>
<path d="M8.125 30.6992H3.125C1.4025 30.6992 0 29.298 0 27.5742V22.5742C0 22.2292 0.28 21.9492 0.625 21.9492C0.97 21.9492 1.25 22.2292 1.25 22.5742V27.5742C1.25 28.608 2.09125 29.4492 3.125 29.4492H8.125C8.47 29.4492 8.75 29.7292 8.75 30.0742C8.75 30.4192 8.47 30.6992 8.125 30.6992Z" fill="#219653"/>
<path d="M0.625 9.44922C0.28 9.44922 0 9.16922 0 8.82422V3.82422C0 2.10047 1.4025 0.699219 3.125 0.699219H8.125C8.47 0.699219 8.75 0.979219 8.75 1.32422C8.75 1.66922 8.47 1.94922 8.125 1.94922H3.125C2.09125 1.94922 1.25 2.79047 1.25 3.82422V8.82422C1.25 9.16922 0.97 9.44922 0.625 9.44922Z" fill="#219653"/>
<path d="M21.875 24.4492H8.125C7.09125 24.4492 6.25 23.608 6.25 22.5742V18.8242C6.25 18.4792 6.53 18.1992 6.875 18.1992C7.22 18.1992 7.5 18.4792 7.5 18.8242V22.5742C7.5 22.918 7.78 23.1992 8.125 23.1992H21.875C22.22 23.1992 22.5 22.918 22.5 22.5742V18.8242C22.5 18.4792 22.78 18.1992 23.125 18.1992C23.47 18.1992 23.75 18.4792 23.75 18.8242V22.5742C23.75 23.608 22.9087 24.4492 21.875 24.4492Z" fill="#219653"/>
<path d="M23.125 14.4492C22.78 14.4492 22.5 14.1692 22.5 13.8242V8.82422C22.5 8.48047 22.22 8.19922 21.875 8.19922H8.125C7.78 8.19922 7.5 8.48047 7.5 8.82422V13.8242C7.5 14.1692 7.22 14.4492 6.875 14.4492C6.53 14.4492 6.25 14.1692 6.25 13.8242V8.82422C6.25 7.79047 7.09125 6.94922 8.125 6.94922H21.875C22.9087 6.94922 23.75 7.79047 23.75 8.82422V13.8242C23.75 14.1692 23.47 14.4492 23.125 14.4492Z" fill="#219653"/>
<path d="M25.625 19.4492H4.375C4.03 19.4492 3.75 19.1692 3.75 18.8242C3.75 18.4792 4.03 18.1992 4.375 18.1992H25.625C25.97 18.1992 26.25 18.4792 26.25 18.8242C26.25 19.1692 25.97 19.4492 25.625 19.4492Z" fill="#219653"/>
</g>
<defs>
<clipPath id="clip0_3448_17751">
<rect width="30" height="30" fill="white" transform="translate(0 0.699219)"/>
</clipPath>
</defs>
</svg>
