<svg width="20" height="21" viewBox="0 0 20 21" fill="none" xmlns="http://www.w3.org/2000/svg">
<path d="M19.5832 10.083H0.416676C0.186678 10.083 0 10.2697 0 10.4997C0 10.7297 0.186678 10.9164 0.416676 10.9164H19.5832C19.8132 10.9164 19.9998 10.7297 19.9998 10.4997C19.9998 10.2697 19.8132 10.083 19.5832 10.083Z" fill="black"/>
<path d="M7.37762 16.872L0.711048 10.2054C0.548549 10.0429 0.284372 10.0429 0.121874 10.2054C-0.0406246 10.3679 -0.0406246 10.632 0.121874 10.7945L6.78849 17.4612C6.87017 17.542 6.97681 17.5828 7.08349 17.5828C7.19016 17.5828 7.2968 17.542 7.37766 17.4612C7.54012 17.2986 7.54012 17.0345 7.37762 16.872Z" fill="black"/>
<path d="M7.37762 3.53887C7.21512 3.37637 6.95095 3.37637 6.78845 3.53887L0.121874 10.2055C-0.0406246 10.368 -0.0406246 10.6322 0.121874 10.7947C0.203553 10.8755 0.310192 10.9163 0.416871 10.9163C0.52355 10.9163 0.630189 10.8755 0.711048 10.7947L7.37762 4.12804C7.54012 3.96554 7.54012 3.70136 7.37762 3.53887Z" fill="black"/>
</svg>
