<svg width="30" height="31" viewBox="0 0 30 31" fill="none" xmlns="http://www.w3.org/2000/svg">
<g clip-path="url(#clip0_3448_17729)">
<path d="M14.9998 5.41602C12.4824 5.41602 10.4346 7.46382 10.4346 9.98126C10.4346 12.4987 12.4824 14.5465 14.9998 14.5465C17.5172 14.5465 19.565 12.4986 19.565 9.98126C19.565 7.46388 17.5172 5.41602 14.9998 5.41602ZM14.9998 13.2421C13.2024 13.2421 11.739 11.7786 11.739 9.98126C11.739 8.18388 13.2024 6.72041 14.9998 6.72041C16.7972 6.72041 18.2607 8.18388 18.2607 9.98126C18.2607 11.7786 16.7972 13.2421 14.9998 13.2421Z" fill="#219653"/>
<path d="M24.1305 10.6348C22.3331 10.6348 20.8696 12.0982 20.8696 13.8956C20.8696 15.693 22.3331 17.1565 24.1305 17.1565C25.9278 17.1565 27.3913 15.693 27.3913 13.8956C27.3913 12.0982 25.9278 10.6348 24.1305 10.6348ZM24.1305 15.8521C23.0518 15.8521 22.174 14.9743 22.174 13.8956C22.174 12.8169 23.0518 11.9391 24.1305 11.9391C25.2092 11.9391 26.087 12.8169 26.087 13.8956C26.087 14.9743 25.2091 15.8521 24.1305 15.8521Z" fill="#219653"/>
<path d="M5.96202 10.6348C4.1633 10.6348 2.70117 12.0982 2.70117 13.8956C2.70117 15.693 4.16465 17.1565 5.96202 17.1565C7.75939 17.1565 9.22287 15.693 9.22287 13.8956C9.22287 12.0982 7.76067 10.6348 5.96202 10.6348ZM5.96202 15.8521C4.8833 15.8521 4.0055 14.9743 4.0055 13.8956C4.0055 12.8169 4.8833 11.9391 5.96202 11.9391C7.04073 11.9391 7.91854 12.8169 7.91854 13.8956C7.91854 14.9743 7.04067 15.8521 5.96202 15.8521Z" fill="#219653"/>
<path d="M14.9997 15.8516C10.325 15.8516 6.52148 19.655 6.52148 24.3298C6.52148 24.6898 6.81368 24.982 7.17368 24.982C7.53368 24.982 7.82587 24.6898 7.82587 24.3298C7.82587 20.3737 11.0437 17.1559 14.9997 17.1559C18.9558 17.1559 22.1736 20.3737 22.1736 24.3298C22.1736 24.6898 22.4658 24.982 22.8258 24.982C23.1858 24.982 23.478 24.6898 23.478 24.3298C23.478 19.655 19.6745 15.8516 14.9997 15.8516Z" fill="#219653"/>
<path d="M24.1302 18.4609C23.0567 18.4609 22.0054 18.7544 21.0898 19.3088C20.7833 19.4966 20.6841 19.897 20.8706 20.2049C21.0598 20.5127 21.4589 20.6105 21.7667 20.424C22.4776 19.9922 23.2941 19.7653 24.1302 19.7653C26.6476 19.7653 28.6954 21.8131 28.6954 24.3305C28.6954 24.6905 28.9876 24.9827 29.3476 24.9827C29.7076 24.9827 29.9998 24.6905 29.9998 24.3305C29.9998 21.0944 27.3663 18.4609 24.1302 18.4609Z" fill="#219653"/>
<path d="M8.90871 19.3074C7.99434 18.7544 6.94308 18.4609 5.86956 18.4609C2.63348 18.4609 0 21.0944 0 24.3305C0 24.6905 0.292194 24.9827 0.652194 24.9827C1.01219 24.9827 1.30439 24.6905 1.30439 24.3305C1.30433 21.8131 3.35219 19.7653 5.86956 19.7653C6.70567 19.7653 7.52215 19.9922 8.23175 20.4227C8.53826 20.6092 8.94002 20.5114 9.12784 20.2035C9.31567 19.8957 9.2165 19.4953 8.90871 19.3074Z" fill="#219653"/>
</g>
<defs>
<clipPath id="clip0_3448_17729">
<rect width="30" height="30" fill="white" transform="translate(0 0.199219)"/>
</clipPath>
</defs>
</svg>
