<svg width="30" height="31" viewBox="0 0 30 31" fill="none" xmlns="http://www.w3.org/2000/svg">
<g clip-path="url(#clip0_3448_17703)">
<path d="M5.61599 6.96439C7.33695 6.96439 8.73588 5.56418 8.73588 3.8445C8.73588 2.12483 7.33695 0.724609 5.61599 0.724609C3.89502 0.724609 2.49609 2.12483 2.49609 3.8445C2.49609 5.56418 3.89508 6.96439 5.61599 6.96439ZM5.61599 1.97255C6.64807 1.97255 7.48793 2.81242 7.48793 3.8445C7.48793 4.87659 6.64807 5.71645 5.61599 5.71645C4.5839 5.71645 3.74404 4.87659 3.74404 3.8445C3.74404 2.81242 4.58396 1.97255 5.61599 1.97255Z" fill="#219653"/>
<path d="M10.7065 20.1435C11.1008 19.7004 11.288 19.0989 11.2194 18.4924L10.392 11.2442C10.1961 9.51577 8.82705 8.21289 7.20969 8.21289H4.02363C2.40627 8.21289 1.03724 9.51699 0.841325 11.2442L0.0139242 18.4924C-0.0546943 19.0989 0.1325 19.7017 0.526838 20.1435C0.866304 20.5241 1.31803 20.7462 1.80848 20.7737L2.49735 30.0985C2.52233 30.4242 2.79312 30.6763 3.12007 30.6763H8.11191C8.43886 30.6763 8.7097 30.4242 8.73591 30.0985L9.42479 20.7737C9.91401 20.7462 10.367 20.5253 10.7065 20.1435ZM9.77426 19.3123C9.70312 19.3922 9.54711 19.5282 9.3175 19.5282H8.84325C8.51631 19.5282 8.24546 19.7803 8.22054 20.106L7.53166 29.4283H3.70043L3.01033 20.106C2.98535 19.7803 2.71456 19.5282 2.38761 19.5282H1.91337C1.68499 19.5282 1.52897 19.3922 1.45661 19.3123C1.29814 19.1338 1.22449 18.8867 1.25321 18.6334L2.08061 11.3853C2.20539 10.2883 3.04028 9.46089 4.02246 9.46089H7.20852C8.19065 9.46089 9.02554 10.2883 9.15037 11.3853L9.97777 18.6334C10.0077 18.8868 9.93273 19.1339 9.77426 19.3123Z" fill="#219653"/>
<path d="M16.2238 20.692C15.143 20.692 14.101 20.3325 13.2099 19.6524C12.9366 19.4439 12.5448 19.4951 12.3351 19.7697C12.1254 20.0442 12.1791 20.4361 12.4524 20.6445C13.5618 21.4919 14.866 21.9399 16.2237 21.9399C19.6644 21.9399 22.4648 19.1395 22.4648 15.6988C22.4648 12.2582 19.6656 9.45898 16.225 9.45898C14.6038 9.45898 13.0639 10.0854 11.8907 11.2211C11.6424 11.4607 11.6362 11.8564 11.8758 12.1035C12.1179 12.3518 12.511 12.358 12.7581 12.1184C13.6978 11.2087 14.9283 10.7082 16.2237 10.7082C18.9767 10.7082 21.2156 12.9471 21.2156 15.7001C21.2156 18.453 18.9768 20.692 16.2238 20.692Z" fill="#219653"/>
<path d="M29.8842 13.8141C29.7906 13.0616 29.3701 12.4114 28.7323 12.0295C28.1209 11.6626 27.3883 11.5989 26.7106 11.8598C26.1802 12.0669 25.5675 11.7799 25.3191 11.2096C25.0271 10.5419 24.6689 9.90295 24.2546 9.31141C23.8852 8.78604 23.9539 8.09839 24.4107 7.71154C24.9635 7.24478 25.2718 6.55965 25.2568 5.82959C25.2418 5.08953 24.8999 4.40568 24.3183 3.9539C23.3648 3.21261 22.324 2.5961 21.2246 2.12191C20.5507 1.83111 19.8007 1.86481 19.1617 2.21551C18.5203 2.56743 18.0847 3.18892 17.9649 3.92149C17.8676 4.51677 17.3297 4.92111 16.7119 4.85121C16.0143 4.77633 15.288 4.77633 14.5854 4.85121C13.9651 4.91485 13.4311 4.518 13.3337 3.92021C13.2214 3.22759 12.8171 2.62605 12.2243 2.27038C11.6278 1.91348 10.9077 1.8386 10.2475 2.06569C9.92057 2.17801 9.74706 2.53245 9.85938 2.85817C9.97047 3.18389 10.3236 3.35488 10.6519 3.24631C10.9626 3.13773 11.3021 3.17266 11.5816 3.34113C11.8636 3.50961 12.047 3.78543 12.102 4.12109C12.3067 5.38278 13.4248 6.23265 14.7177 6.09161C15.3317 6.02796 15.9719 6.02796 16.5784 6.09161C17.8663 6.23639 18.9958 5.36155 19.1954 4.12109C19.2528 3.77168 19.4587 3.47591 19.7607 3.30989C20.059 3.14639 20.411 3.13142 20.7292 3.26748C21.7313 3.70055 22.6823 4.26336 23.5533 4.93977C23.8353 5.15815 24.0014 5.49135 24.0088 5.85451C24.0163 6.20644 23.8703 6.5359 23.607 6.75802C22.6511 7.56419 22.4901 8.97066 23.2339 10.0277C23.6008 10.5518 23.9178 11.1171 24.1761 11.7087C24.6915 12.8917 26.0019 13.4671 27.1724 13.019C27.4832 12.9017 27.8089 12.9292 28.0909 13.0989C28.3967 13.2823 28.5989 13.5993 28.645 13.9687C28.7161 14.5228 28.7511 15.0894 28.7511 15.6535C28.7511 16.2176 28.7161 16.7841 28.645 17.3394C28.5989 17.7076 28.3967 18.0246 28.0909 18.208C27.8089 18.3777 27.4794 18.409 27.1587 18.2829C25.9981 17.8386 24.6902 18.4164 24.1748 19.5982C23.9165 20.1898 23.5995 20.7563 23.2326 21.2792C22.49 22.3362 22.6497 23.7427 23.6057 24.5502C23.869 24.7723 24.015 25.1005 24.0076 25.4524C24.0001 25.8144 23.8353 26.1476 23.552 26.3672C22.6797 27.0448 21.73 27.6064 20.7279 28.0395C20.4097 28.1755 20.0565 28.1593 19.7595 27.9971C19.4574 27.8311 19.2515 27.5353 19.1941 27.1872C18.9932 25.9442 17.8376 25.0706 16.5784 25.2154C15.9694 25.2802 15.3291 25.2815 14.7177 25.2154C13.4223 25.0768 12.3054 25.9242 12.1007 27.1859C12.0508 27.4916 11.8885 27.7549 11.6452 27.9284C11.403 28.1006 11.1086 28.1668 10.8215 28.1156C10.4895 28.0519 10.1588 28.2803 10.0989 28.621C10.039 28.9605 10.2662 29.2837 10.6044 29.3436C10.7416 29.3673 10.8789 29.3798 11.015 29.3798C11.4967 29.3798 11.9659 29.2313 12.369 28.9492C12.8882 28.5811 13.2301 28.027 13.3337 27.3893C13.4311 26.7928 13.9627 26.3884 14.5867 26.4583C15.2868 26.5331 16.0119 26.5331 16.7132 26.4583C17.3335 26.3897 17.8676 26.7915 17.9649 27.3893C18.0847 28.1218 18.5202 28.7433 19.1617 29.094C19.8007 29.4447 20.5519 29.4784 21.2246 29.1876C22.3228 28.7133 23.3636 28.0969 24.3183 27.3556C24.8998 26.9038 25.2418 26.2199 25.2568 25.4799C25.2705 24.7498 24.9622 24.0647 24.4107 23.5979C23.9539 23.2111 23.8853 22.5222 24.2546 21.9968C24.669 21.4052 25.0284 20.7676 25.3191 20.0999C25.5675 19.5308 26.1802 19.245 26.7243 19.4547C27.3907 19.7093 28.1208 19.6456 28.7323 19.2799C29.37 18.8981 29.7906 18.2479 29.8842 17.4966C29.9616 16.8889 30.0002 16.2698 30.0002 15.6546C30.0003 15.0396 29.9616 14.4194 29.8842 13.8141Z" fill="#219653"/>
</g>
<defs>
<clipPath id="clip0_3448_17703">
<rect width="30" height="30" fill="white" transform="translate(0 0.699219)"/>
</clipPath>
</defs>
</svg>
