<svg width="84" height="84" viewBox="0 0 84 84" fill="none" xmlns="http://www.w3.org/2000/svg">
<g clip-path="url(#clip0_1320_9807)">
<path d="M66.2203 26.3555V31.9205C64.6103 31.6405 62.9303 31.5005 61.2503 31.5005C55.8253 31.5005 50.6803 32.9705 46.3053 35.5605C44.6603 36.4705 43.1553 37.5555 41.7553 38.7805C35.4903 44.2405 31.5003 52.2905 31.5003 61.2505C31.5003 64.2955 31.9553 67.2355 32.7953 70.0005H7.28027C5.35527 70.0005 3.78027 68.4255 3.78027 66.5005V26.3555H66.2203Z" fill="#FFB74D"/>
<path d="M46.3052 35.5599C44.6602 36.4699 43.1552 37.5549 41.7552 38.7799H26.4952C24.9202 38.7799 23.6602 37.5199 23.6602 35.9414C23.6602 34.3699 24.9202 33.1064 26.4952 33.1064H43.5052C44.9402 33.1099 46.1302 34.1599 46.3052 35.5599Z" fill="#795548"/>
<path d="M68.25 26.3446H1.75C0.784 26.3446 0 25.5571 0 24.5946V13.1006H70V24.5946C70 25.5606 69.216 26.3446 68.25 26.3446Z" fill="#FFCC80"/>
<path d="M70 13.1005L59.5945 0H10.4055L0 13.1005H70Z" fill="#FFA726"/>
<path d="M35.0003 26.3555H3.78027V66.5005C3.78027 68.4255 5.35527 70.0005 7.28027 70.0005H32.7953C31.9553 67.2355 31.5003 64.2955 31.5003 61.2505C31.5003 56.1965 32.7708 51.433 35.0003 47.261V38.7805H26.4953C24.9203 38.7805 23.6603 37.5205 23.6603 35.942C23.6603 34.3705 24.9203 33.107 26.4953 33.107H35.0003V26.3555Z" fill="#DE9F43"/>
<path d="M35.0002 33.1104H26.4952C24.9202 33.1104 23.6602 34.3704 23.6602 35.9454C23.6602 37.5203 24.9202 38.7838 26.4952 38.7838H35.0002V33.1104Z" fill="#694A3F"/>
<path d="M35 13.1006H0V24.5946C0 25.5571 0.784 26.3446 1.75 26.3446H35V13.1006Z" fill="#DEB26F"/>
<path d="M35 0H10.4055L0 13.1005H35V0Z" fill="#DE9121"/>
<path d="M61.25 84C48.706 84 38.5 73.794 38.5 61.25C38.5 48.706 48.706 38.5 61.25 38.5C73.794 38.5 84 48.706 84 61.25C84 73.794 73.794 84 61.25 84Z" fill="#FECB25"/>
<path d="M68.25 71.75C67.6865 71.75 67.1195 71.568 66.64 71.197L58.765 65.072C58.1245 64.575 57.75 63.8085 57.75 63V51.625C57.75 50.176 58.926 49 60.375 49C61.824 49 63 50.176 63 51.625V61.7155L69.86 67.053C71.0045 67.942 71.211 69.5905 70.3185 70.735C69.804 71.4 69.0305 71.75 68.25 71.75Z" fill="white"/>
<path d="M61.25 38.5C48.706 38.5 38.5 48.706 38.5 61.25C38.5 73.794 48.706 84 61.25 84V67.004L58.765 65.0685C58.1245 64.575 57.75 63.8085 57.75 63V51.625C57.75 50.176 58.926 49 60.375 49C60.683 49 60.977 49.0525 61.25 49.1505V38.5Z" fill="#DBB304"/>
<path d="M60.375 49C58.926 49 57.75 50.176 57.75 51.625V63C57.75 63.8085 58.1245 64.575 58.765 65.072L61.25 67.0075V49.1505C60.977 49.0525 60.683 49 60.375 49Z" fill="#DEDEDE"/>
</g>
<defs>
<clipPath id="clip0_1320_9807">
<rect width="84" height="84" fill="white"/>
</clipPath>
</defs>
</svg>
