<svg width="84" height="84" viewBox="0 0 84 84" fill="none" xmlns="http://www.w3.org/2000/svg">
<g clip-path="url(#clip0_1320_9910)">
<path d="M66.2203 26.3555V31.9205C64.6103 31.6405 62.9303 31.5005 61.2503 31.5005C55.8253 31.5005 50.6803 32.9705 46.3053 35.5605C44.6568 36.4705 43.1553 37.5555 41.7518 38.7805C35.4903 44.2405 31.5003 52.2905 31.5003 61.2505C31.5003 64.2955 31.9553 67.2355 32.7953 70.0005H7.28027C5.35527 70.0005 3.78027 68.4255 3.78027 66.5005V26.3555H66.2203Z" fill="#FFB74D"/>
<path d="M46.3048 35.5599C44.6562 36.4699 43.1548 37.5549 41.7513 38.7799H26.4948C24.9198 38.7799 23.6562 37.5199 23.6562 35.9414C23.6562 34.3699 24.9163 33.1064 26.4948 33.1064H43.5013C44.9398 33.1099 46.1298 34.1599 46.3048 35.5599Z" fill="#795548"/>
<path d="M68.25 26.3446H1.75C0.784 26.3446 0 25.5571 0 24.5946V13.1006H70V24.5946C70 25.5606 69.216 26.3446 68.25 26.3446Z" fill="#FFCC80"/>
<path d="M70 13.1005L59.5945 0H10.4055L0 13.1005H70Z" fill="#FFA726"/>
<path d="M35.0003 26.3555H3.78027V66.5005C3.78027 68.4255 5.35527 70.0005 7.28027 70.0005H32.7953C31.9553 67.2355 31.5003 64.2955 31.5003 61.2505C31.5003 56.1965 32.7708 51.433 35.0003 47.2575V38.7805H26.4953C24.9203 38.7805 23.6568 37.5205 23.6568 35.942C23.6568 34.3705 24.9168 33.107 26.4953 33.107H35.0003V26.3555Z" fill="#DE9F43"/>
<path d="M34.9998 33.1104H26.4948C24.9198 33.1104 23.6562 34.3704 23.6562 35.9454C23.6562 37.5204 24.9163 38.7839 26.4948 38.7839H34.9998V33.1104Z" fill="#694A3F"/>
<path d="M35 13.1006H0V24.5946C0 25.5571 0.784 26.3446 1.75 26.3446H35V13.1006Z" fill="#DEB26F"/>
<path d="M35 0H10.4055L0 13.1005H35V0Z" fill="#DE9121"/>
<path d="M79.065 47.145C77.98 45.78 76.72 44.52 75.355 43.435C71.505 40.355 66.57 38.5 61.25 38.5C48.72 38.5 38.5 48.72 38.5 61.25C38.5 66.57 40.355 71.505 43.435 75.355C44.52 76.72 45.78 77.98 47.145 79.065C50.995 82.145 55.93 84 61.25 84C73.78 84 84 73.78 84 61.25C84 55.93 82.145 50.995 79.065 47.145ZM61.25 78.75C57.365 78.75 53.795 77.49 50.89 75.32C49.455 74.305 48.195 73.045 47.18 71.61C45.01 68.705 43.75 65.135 43.75 61.25C43.75 51.59 51.59 43.75 61.25 43.75C65.135 43.75 68.705 45.01 71.61 47.18C73.045 48.195 74.3085 49.455 75.32 50.89C77.49 53.795 78.75 57.365 78.75 61.25C78.75 70.91 70.91 78.75 61.25 78.75Z" fill="#F44336"/>
<path d="M79.065 47.1446L75.32 50.8896L50.8935 75.3196L47.1485 79.0646C45.7835 77.9796 44.5235 76.7196 43.4385 75.3546L47.1835 71.6096L71.61 47.1796L75.355 43.4346C76.72 44.5196 77.98 45.7796 79.065 47.1446Z" fill="#F44336"/>
<path d="M61.25 38.5C48.72 38.5 38.5 48.72 38.5 61.25C38.5 66.57 40.355 71.505 43.435 75.355C43.96 76.0165 44.5235 76.65 45.122 77.252C44.5235 76.65 43.96 76.013 43.435 75.355L47.18 71.61C45.01 68.705 43.75 65.135 43.75 61.25C43.75 51.59 51.59 43.75 61.25 43.75C65.135 43.75 68.705 45.01 71.61 47.18L75.355 43.435C71.505 40.355 66.57 38.5 61.25 38.5Z" fill="#D43A2F"/>
<path d="M75.355 43.4346L71.61 47.1796L47.1835 71.6096L43.4385 75.3546C43.9635 76.0161 44.527 76.6496 45.1255 77.2516L77.2555 45.1216C76.65 44.5231 76.0165 43.9596 75.355 43.4346Z" fill="#D43A2F"/>
</g>
<defs>
<clipPath id="clip0_1320_9910">
<rect width="84" height="84" fill="white"/>
</clipPath>
</defs>
</svg>
