<svg width="84" height="84" viewBox="0 0 84 84" fill="none" xmlns="http://www.w3.org/2000/svg">
<g clip-path="url(#clip0_1320_9854)">
<path d="M33.845 49C33.46 50.12 33.25 51.275 33.25 52.5V69.37C30.45 69.79 27.475 70 24.5 70C12.32 70 0 66.395 0 59.5V49H33.845Z" fill="#FFC107"/>
<path d="M35.91 45.5C35.175 46.34 34.615 47.25 34.195 48.195L33.88 49H33.845C33.46 50.12 33.25 51.275 33.25 52.5V62.37C30.45 62.79 27.475 63 24.5 63C12.32 63 0 59.395 0 52.5V45.5H35.91Z" fill="#FFD54F"/>
<path d="M49 35V38.185C43.12 39.655 38.57 42.2065 35.91 45.5C35.175 46.34 34.615 47.25 34.195 48.195L33.88 49H33.845C33.46 50.12 33.25 51.275 33.25 52.5V55.37C30.45 55.79 27.475 56 24.5 56C14.595 56 4.55 53.62 1.19 49C0.42 47.95 0 46.795 0 45.5V35H49Z" fill="#FFC107"/>
<path d="M49 31.5V38.185C43.12 39.655 38.57 42.2065 35.91 45.5C35.175 46.34 34.615 47.25 34.195 48.195C31.15 48.72 27.825 49 24.5 49C17.5 49 10.465 47.81 5.775 45.5C2.24 43.785 0 41.44 0 38.5V31.5H49Z" fill="#FFD54F"/>
<path d="M0 21V31.5C0 38.395 12.3235 42 24.5 42C36.673 42 49 38.395 49 31.5V21H0Z" fill="#FFC107"/>
<path d="M0 17.5V24.5C0 31.395 12.3235 35 24.5 35C36.673 35 49 31.395 49 24.5V17.5H0Z" fill="#FFD54F"/>
<path d="M0 10.5V17.5C0 24.395 12.3235 28 24.5 28C36.673 28 49 24.395 49 17.5V10.5H0Z" fill="#FFC107"/>
<path d="M49 10.5C49 16.2995 38.031 21 24.5 21C10.969 21 0 16.2995 0 10.5C0 4.7005 10.969 0 24.5 0C38.031 0 49 4.7005 49 10.5Z" fill="#FFD54F"/>
<path d="M0 49V59.5C0 66.395 12.32 70 24.5 70V63C12.32 63 0 59.395 0 52.5V49Z" fill="#E3AF12"/>
<path d="M0 45.5V49V52.5C0 59.395 12.32 63 24.5 63V56C14.595 56 4.55 53.62 1.19 49C0.42 47.95 0 46.795 0 45.5H0Z" fill="#F1C744"/>
<path d="M0 35V45.5C0 46.795 0.42 47.95 1.19 49C4.55 53.62 14.595 56 24.5 56V49C17.5 49 10.465 47.81 5.775 45.5C2.24 43.785 0 41.44 0 38.5L0 35Z" fill="#E3AF12"/>
<path d="M0 31.5V35V38.5C0 41.44 2.24 43.785 5.775 45.5C10.465 47.81 17.5 49 24.5 49V42C12.3235 42 0 38.395 0 31.5Z" fill="#F1C744"/>
<path d="M0 21V31.5C0 38.395 12.3235 42 24.5 42V35C12.3235 35 0 31.395 0 24.5V21Z" fill="#E3AF12"/>
<path d="M0 17.5V21V24.5C0 31.395 12.3235 35 24.5 35V28C12.3235 28 0 24.395 0 17.5Z" fill="#F1C744"/>
<path d="M0 10.5V17.5C0 24.395 12.3235 28 24.5 28V21C10.969 21 0 16.2995 0 10.5Z" fill="#E3AF12"/>
<path d="M24.5 0C10.969 0 0 4.7005 0 10.5C0 16.2995 10.969 21 24.5 21V0Z" fill="#F1C744"/>
<circle cx="54" cy="53" r="27" fill="white"/>
<path d="M53.75 75.5C41.206 75.5 31 65.294 31 52.75C31 40.206 41.206 30 53.75 30C66.294 30 76.5 40.206 76.5 52.75C76.5 65.294 66.294 75.5 53.75 75.5Z" fill="#4CAF50"/>
<path d="M47.7764 62.2244L40.7764 55.2244C39.4079 53.8559 39.4079 51.6439 40.7764 50.2754C42.1449 48.9069 44.3569 48.9069 45.7254 50.2754L50.0794 54.6294L59.8654 43.4434C61.1394 41.9909 63.3479 41.8439 64.8039 43.1144C66.2599 44.3884 66.4069 46.5969 65.1329 48.0529L52.8829 62.0529C51.5529 63.5789 49.2079 63.6559 47.7764 62.2244Z" fill="white"/>
<path d="M53.75 30C41.206 30 31 40.206 31 52.75C31 65.294 41.206 75.5 53.75 75.5V61.0625L52.882 62.053C52.189 62.8475 51.2195 63.25 50.2465 63.25C49.354 63.25 48.458 62.9105 47.7755 62.2245L40.7755 55.2245C39.407 53.856 39.407 51.644 40.7755 50.2755C41.458 49.593 42.354 49.25 43.25 49.25C44.146 49.25 45.042 49.593 45.7245 50.2755L50.0785 54.6295L53.75 50.4365V30Z" fill="#219653"/>
<path d="M43.2509 49.25C42.3549 49.25 41.4589 49.593 40.7764 50.2755C39.4079 51.644 39.4079 53.856 40.7764 55.2245L47.7764 62.2245C48.4624 62.9105 49.3549 63.25 50.2474 63.25C51.2204 63.25 52.1899 62.8475 52.8829 62.053L53.7509 61.0625V50.433L50.0794 54.626L45.7254 50.272C45.0429 49.593 44.1469 49.25 43.2509 49.25Z" fill="#DEDEDE"/>
</g>
<defs>
<clipPath id="clip0_1320_9854">
<rect width="84" height="84" fill="white"/>
</clipPath>
</defs>
</svg>
