<svg width="84" height="84" viewBox="0 0 84 84" fill="none" xmlns="http://www.w3.org/2000/svg">
<g clip-path="url(#clip0_1320_9934)">
<path d="M33.25 61.25C33.25 46.403 44.877 34.251 59.5 33.3375V9.625C59.5 4.3155 55.1845 0 49.875 0H9.625C4.3155 0 0 4.3155 0 9.625V63.875C0 69.1845 4.3155 73.5 9.625 73.5H36.1095C34.2965 69.7935 33.25 65.646 33.25 61.25Z" fill="#ECEFF1"/>
<path d="M29.75 24.5C33.616 24.5 36.75 21.366 36.75 17.5C36.75 13.634 33.616 10.5 29.75 10.5C25.884 10.5 22.75 13.634 22.75 17.5C22.75 21.366 25.884 24.5 29.75 24.5Z" fill="#90A4AE"/>
<path d="M31.815 52.5H17.5C15.568 52.5 14 50.932 14 49C14 47.068 15.568 45.5 17.5 45.5H31.815C33.747 45.5 35.315 47.068 35.315 49C35.315 50.932 33.747 52.5 31.815 52.5Z" fill="#90A4AE"/>
<path d="M28 63H17.5C15.568 63 14 61.432 14 59.5C14 57.568 15.568 56 17.5 56H28C29.932 56 31.5 57.568 31.5 59.5C31.5 61.432 29.932 63 28 63Z" fill="#90A4AE"/>
<path d="M43.736 39.438C43.736 39.417 43.75 39.3995 43.75 39.375V37.625C43.75 32.3155 39.4345 28 34.125 28H25.375C20.0655 28 15.75 32.3155 15.75 37.625V39.375C15.75 40.824 16.926 42 18.375 42H40.971C41.8355 41.0865 42.756 40.2255 43.736 39.438Z" fill="#90A4AE"/>
<path d="M61.25 84C48.706 84 38.5 73.794 38.5 61.25C38.5 48.706 48.706 38.5 61.25 38.5C73.794 38.5 84 48.706 84 61.25C84 73.794 73.794 84 61.25 84Z" fill="#4CAF50"/>
<path d="M55.2764 70.7244L48.2764 63.7244C46.9079 62.3559 46.9079 60.1439 48.2764 58.7754C49.6449 57.4069 51.8569 57.4069 53.2254 58.7754L57.5794 63.1294L67.3654 51.9434C68.6394 50.4909 70.8479 50.3439 72.3039 51.6144C73.7599 52.8884 73.9069 55.0969 72.6329 56.5529L60.3829 70.5529C59.0529 72.0789 56.7079 72.1559 55.2764 70.7244Z" fill="white"/>
<path d="M61.25 38.5C48.706 38.5 38.5 48.706 38.5 61.25C38.5 73.794 48.706 84 61.25 84V69.5625L60.382 70.553C59.689 71.3475 58.7195 71.75 57.7465 71.75C56.854 71.75 55.958 71.4105 55.2755 70.7245L48.2755 63.7245C46.907 62.356 46.907 60.144 48.2755 58.7755C48.958 58.093 49.854 57.75 50.75 57.75C51.646 57.75 52.542 58.093 53.2245 58.7755L57.5785 63.1295L61.25 58.9365V38.5Z" fill="#219653"/>
<path d="M50.7509 57.75C49.8549 57.75 48.9589 58.093 48.2764 58.7755C46.9079 60.144 46.9079 62.356 48.2764 63.7245L55.2764 70.7245C55.9624 71.4105 56.8549 71.75 57.7474 71.75C58.7204 71.75 59.6899 71.3475 60.3829 70.553L61.2509 69.5625V58.933L57.5794 63.126L53.2254 58.772C52.5429 58.093 51.6469 57.75 50.7509 57.75Z" fill="#DEDEDE"/>
<path d="M29.75 0H9.625C4.3155 0 0 4.3155 0 9.625V63.875C0 69.1845 4.3155 73.5 9.625 73.5H29.75V63H17.5C15.568 63 14 61.432 14 59.5C14 57.568 15.568 56 17.5 56H29.75V52.5H17.5C15.568 52.5 14 50.932 14 49C14 47.068 15.568 45.5 17.5 45.5H29.75V42H18.375C16.926 42 15.75 40.824 15.75 39.375V37.625C15.75 32.3155 20.0655 28 25.375 28H29.75V24.5C25.8895 24.5 22.75 21.3605 22.75 17.5C22.75 13.6395 25.8895 10.5 29.75 10.5V0Z" fill="#DEE3E7"/>
<path d="M29.75 10.5C25.8895 10.5 22.75 13.6395 22.75 17.5C22.75 21.3605 25.8895 24.5 29.75 24.5V10.5Z" fill="#7D8F97"/>
<path d="M29.75 28H25.375C20.0655 28 15.75 32.3155 15.75 37.625V39.375C15.75 40.824 16.926 42 18.375 42H29.75V28Z" fill="#7D8F97"/>
<path d="M29.75 45.5H17.5C15.568 45.5 14 47.068 14 49C14 50.932 15.568 52.5 17.5 52.5H29.75V45.5Z" fill="#7D8F97"/>
<path d="M29.75 56H17.5C15.568 56 14 57.568 14 59.5C14 61.432 15.568 63 17.5 63H29.75V56Z" fill="#7D8F97"/>
</g>
<defs>
<clipPath id="clip0_1320_9934">
<rect width="84" height="84" fill="white"/>
</clipPath>
</defs>
</svg>
