<svg width="28" height="28" viewBox="0 0 28 28" fill="none" xmlns="http://www.w3.org/2000/svg">
<path d="M21.6108 20H11.8159C10.6544 20 9.62523 19.2032 9.31481 18.0629L6.00331 6.2272C5.81581 5.5424 5.20018 5.06667 4.50329 5.06667H1.90951C1.62201 5.06667 1.38867 4.82773 1.38867 4.53333C1.38867 4.23893 1.62201 4 1.90951 4H4.50329C5.66476 4 6.69394 4.7968 7.00436 5.93707L7.6575 8.26667H24.8254C25.3244 8.26667 25.7817 8.50133 26.0785 8.91093C26.3765 9.32053 26.465 9.8368 26.3213 10.3253L24.0806 18.1653C23.7202 19.2704 22.7295 20 21.6108 20ZM7.95542 9.33333L10.3169 17.7728C10.5034 18.4576 11.119 18.9333 11.8159 18.9333H21.6108C22.2712 18.9333 22.8775 18.4864 23.0858 17.8475L25.3244 10.0203C25.3723 9.85707 25.3421 9.68533 25.2431 9.5488C25.1442 9.4112 24.9921 9.33333 24.8254 9.33333H7.95542Z" fill="black"/>
<path d="M12.3887 25C11.2857 25 10.3887 24.103 10.3887 23C10.3887 21.897 11.2857 21 12.3887 21C13.4917 21 14.3887 21.897 14.3887 23C14.3887 24.103 13.4917 25 12.3887 25ZM12.3887 22C11.8367 22 11.3887 22.449 11.3887 23C11.3887 23.551 11.8367 24 12.3887 24C12.9407 24 13.3887 23.551 13.3887 23C13.3887 22.449 12.9407 22 12.3887 22Z" fill="black"/>
<path d="M20.3887 25C19.2857 25 18.3887 24.103 18.3887 23C18.3887 21.897 19.2857 21 20.3887 21C21.4917 21 22.3887 21.897 22.3887 23C22.3887 24.103 21.4917 25 20.3887 25ZM20.3887 22C19.8367 22 19.3887 22.449 19.3887 23C19.3887 23.551 19.8367 24 20.3887 24C20.9407 24 21.3887 23.551 21.3887 23C21.3887 22.449 20.9407 22 20.3887 22Z" fill="black"/>
</svg>
