<svg width="56" height="57" viewBox="0 0 56 57" fill="none" xmlns="http://www.w3.org/2000/svg">
<g clip-path="url(#clip0_267_5667)">
<path d="M46.943 8.26276C46.943 8.71735 46.5743 9.08606 46.1197 9.08606C45.6651 9.08606 45.2964 8.71735 45.2964 8.26276C45.2964 7.80817 45.6651 7.43945 46.1197 7.43945C46.5743 7.43945 46.943 7.80817 46.943 8.26276Z" fill="#219653"/>
<path d="M43.6703 8.26276C43.6703 8.71735 43.3016 9.08606 42.847 9.08606C42.3924 9.08606 42.0237 8.71735 42.0237 8.26276C42.0237 7.80817 42.3924 7.43945 42.847 7.43945C43.3016 7.43945 43.6703 7.80817 43.6703 8.26276Z" fill="#219653"/>
<path d="M40.3976 8.26276C40.3976 8.71735 40.0289 9.08606 39.5743 9.08606C39.1197 9.08606 38.751 8.71735 38.751 8.26276C38.751 7.80817 39.1197 7.43945 39.5743 7.43945C40.0289 7.43945 40.3976 7.80817 40.3976 8.26276Z" fill="#219653"/>
<path d="M48.6664 41.6062C48.3177 41.317 47.8003 41.3657 47.5111 41.7143L44.9583 44.7939L44.1687 43.8066C43.8859 43.4524 43.3698 43.3947 43.016 43.6775C42.6618 43.9604 42.6042 44.4765 42.887 44.8303L44.3055 46.6055C44.4597 46.7982 44.6921 46.9114 44.9391 46.9135H44.9463C45.1903 46.9135 45.4219 46.805 45.5778 46.617L48.774 42.7611C49.0633 42.4125 49.015 41.8955 48.6664 41.6062Z" fill="#219653"/>
<path d="M27.0101 7.44434H5.61011C5.15723 7.44434 4.78979 7.81177 4.78979 8.26465C4.78979 8.71796 5.15723 9.08496 5.61011 9.08496H27.0101C27.4629 9.08496 27.8304 8.71796 27.8304 8.26465C27.8304 7.81177 27.4629 7.44434 27.0101 7.44434Z" fill="#219653"/>
<path d="M18.2766 26.8027C16.5881 26.8027 15.2141 28.1763 15.2141 29.8652C15.2141 31.5537 16.5881 32.9277 18.2766 32.9277C19.9651 32.9277 21.3391 31.5537 21.3391 29.8652C21.3391 28.1763 19.9651 26.8027 18.2766 26.8027ZM18.2766 31.2871C17.4926 31.2871 16.8547 30.6492 16.8547 29.8652C16.8547 29.0812 17.4926 28.4434 18.2766 28.4434C19.0606 28.4434 19.6985 29.0812 19.6985 29.8652C19.6985 30.6492 19.0606 31.2871 18.2766 31.2871Z" fill="#219653"/>
<path d="M31.0199 29.5059C31.0199 27.4086 29.3135 25.7021 27.2161 25.7021C25.1188 25.7021 23.4124 27.4086 23.4124 29.5059C23.4124 31.6037 25.1188 33.3101 27.2161 33.3101C29.3135 33.3101 31.0199 31.6037 31.0199 29.5059ZM27.2161 31.6695C26.0233 31.6695 25.053 30.6988 25.053 29.5059C25.053 28.3131 26.0233 27.3428 27.2161 27.3428C28.409 27.3428 29.3793 28.3131 29.3793 29.5059C29.3793 30.6988 28.409 31.6695 27.2161 31.6695Z" fill="#219653"/>
<path d="M29.9777 35.5312C28.5665 35.5312 27.4185 36.6793 27.4185 38.0905C27.4185 39.5017 28.5665 40.6501 29.9777 40.6501C31.3889 40.6501 32.5369 39.5017 32.5369 38.0905C32.5369 36.6793 31.3889 35.5312 29.9777 35.5312ZM29.9777 39.0095C29.471 39.0095 29.0591 38.5972 29.0591 38.0905C29.0591 37.5842 29.471 37.1719 29.9777 37.1719C30.4844 37.1719 30.8962 37.5842 30.8962 38.0905C30.8962 38.5972 30.4844 39.0095 29.9777 39.0095Z" fill="#219653"/>
<path d="M51.082 34.3828H40.1051C40.1786 33.7919 40.2158 33.1959 40.2158 32.6012C40.2158 30.3346 39.7001 28.1651 38.6833 26.154C38.3671 25.529 37.6446 25.2269 36.9645 25.4363C36.3612 25.6217 35.7216 25.6225 35.1149 25.4384C34.3544 25.2077 33.7122 24.704 33.3068 24.0199C32.9795 23.4679 32.3519 23.1633 31.7067 23.2428C30.9206 23.3398 30.1358 23.2718 29.3727 23.0403C27.609 22.5053 26.2119 21.1382 25.636 19.3835C25.4211 18.7293 24.7713 18.3183 24.0894 18.4038C16.8475 19.3198 11.4749 25.5243 11.592 32.8353C11.6518 36.5584 13.1467 40.0682 15.8016 42.7188C18.4561 45.369 21.9685 46.8584 25.6915 46.9123C25.7603 46.9131 25.8287 46.914 25.8975 46.914C29.2056 46.914 32.407 45.7608 34.9483 43.6908V49.4351C34.9483 52.0866 37.1059 54.2438 39.7569 54.2438H51.082C53.7335 54.2438 55.8906 52.0866 55.8906 49.4351V39.1915C55.8906 36.54 53.7335 34.3828 51.082 34.3828ZM21.734 44.4816C21.5994 44.4816 21.4695 44.4616 21.3473 44.4244C21.2781 44.3975 21.2089 44.3701 21.1405 44.3424C20.7022 44.1236 20.4001 43.6703 20.4001 43.1478C20.4001 42.4125 20.9987 41.8139 21.734 41.8139C22.4692 41.8139 23.0678 42.4125 23.0678 43.1478C23.0678 43.8835 22.4697 44.4816 21.734 44.4816ZM34.7505 33.1575C34.8133 34.1914 35.2751 35.1386 36.0506 35.8252C36.1006 35.8696 36.1523 35.9128 36.2044 35.9547C35.4247 36.8096 34.9487 37.9461 34.9487 39.1915V41.4747C32.5266 43.9416 29.1817 45.3216 25.715 45.2721C25.1216 45.2635 24.5337 45.2135 23.9556 45.1238C24.4235 44.5979 24.7084 43.9057 24.7084 43.1482C24.7084 41.508 23.3737 40.1737 21.734 40.1737C20.1245 40.1737 18.8094 41.4584 18.7607 43.0564C18.1229 42.6171 17.5204 42.1168 16.9603 41.558C14.6092 39.2103 13.2851 36.1033 13.2326 32.8097C13.1296 26.3912 17.8037 20.9365 24.1308 20.0534C24.9046 22.2396 26.6746 23.9366 28.8963 24.6104C29.8781 24.9082 30.8894 24.9962 31.9041 24.8719C32.5194 25.902 33.4901 26.6603 34.6385 27.0085C35.5084 27.2721 36.4236 27.2854 37.2956 27.0483C37.6181 27.7075 37.88 28.386 38.0813 29.0807C37.1789 29.2054 36.3415 29.6468 35.7173 30.3517C35.0307 31.1272 34.6877 32.1235 34.7505 33.1575ZM36.9457 31.4391C37.3344 31.0003 37.8659 30.7388 38.4338 30.6927C38.5277 31.3186 38.5752 31.9552 38.5752 32.6012C38.5752 33.2604 38.5235 33.921 38.4218 34.5712C38.13 34.6558 37.8493 34.7673 37.5827 34.9032C37.4229 34.8199 37.2742 34.7173 37.1379 34.5969C36.6906 34.2008 36.4244 33.6539 36.3881 33.0579C36.3518 32.4615 36.55 31.8864 36.9457 31.4391ZM54.25 49.4351C54.25 51.1822 52.829 52.6032 51.082 52.6032H39.7574C38.0104 52.6032 36.5893 51.1822 36.5893 49.4351V39.1915C36.5893 37.4445 38.0104 36.0234 39.7574 36.0234H51.082C52.829 36.0234 54.25 37.4445 54.25 39.1915V49.4351Z" fill="#219653"/>
<path d="M51.4271 40.5967C50.9755 40.4109 50.3675 40.0242 50.3 38.8207C50.2659 38.2012 49.7514 37.7158 49.1294 37.7158H42.0559C41.4338 37.7158 40.9194 38.2007 40.8852 38.8203C40.8177 40.0242 40.2097 40.4109 39.7581 40.5967C39.3108 40.7813 39.0198 41.2299 39.0339 41.7136C39.1057 44.2134 40.1845 46.6974 42.1533 48.8977C43.6204 50.5375 45.1132 51.5035 45.3059 51.5753C45.3986 51.6095 45.4956 51.627 45.5926 51.627C45.6896 51.627 45.7866 51.6099 45.8793 51.5753C46.072 51.5035 47.5648 50.5375 49.032 48.8977C51.0007 46.6974 52.0795 44.2134 52.1517 41.7131C52.1654 41.2295 51.8744 40.7813 51.4271 40.5967ZM45.5926 49.8155C44.3968 48.949 40.9668 46.1155 40.6887 41.9716C41.6769 41.4551 42.2994 40.5451 42.478 39.3564H48.7073C48.8863 40.5451 49.5083 41.4555 50.497 41.9716C50.2189 46.1159 46.7889 48.949 45.5926 49.8155Z" fill="#219653"/>
<path d="M34.431 52.5703H3.01038C2.19477 52.5703 1.53125 51.9068 1.53125 51.0916V13.6237H49.5551V31.9193C49.5551 32.3722 49.9221 32.7396 50.3754 32.7396C50.8283 32.7396 51.1957 32.3722 51.1957 31.9193V6.02601C51.1957 4.30548 49.7961 2.90625 48.076 2.90625H3.01038C1.29029 2.90625 -0.109375 4.30548 -0.109375 6.02601V51.0912C-0.109375 52.8117 1.29029 54.2109 3.01038 54.2109H34.431C34.8839 54.2109 35.2513 53.8439 35.2513 53.3906C35.2513 52.9373 34.8839 52.5703 34.431 52.5703ZM1.53125 6.02601C1.53125 5.21039 2.19477 4.54688 3.01038 4.54688H48.076C48.8916 4.54688 49.5547 5.21039 49.5547 6.02601V11.9831H1.53125V6.02601Z" fill="#219653"/>
</g>
<defs>
<clipPath id="clip0_267_5667">
<rect width="56" height="56" fill="white" transform="translate(0 0.5)"/>
</clipPath>
</defs>
</svg>
