<svg width="20" height="20" viewBox="0 0 20 20" fill="none" xmlns="http://www.w3.org/2000/svg">
<g clip-path="url(#clip0_239_3739)">
<path d="M15.4167 20.0002H4.58333C3.435 20.0002 2.5 19.0652 2.5 17.9168V6.25016C2.5 6.02016 2.68667 5.8335 2.91667 5.8335C3.14667 5.8335 3.33333 6.02016 3.33333 6.25016V17.9168C3.33333 18.606 3.89417 19.1668 4.58333 19.1668H15.4167C16.1058 19.1668 16.6667 18.606 16.6667 17.9168V6.25016C16.6667 6.02016 16.8533 5.8335 17.0833 5.8335C17.3133 5.8335 17.5 6.02016 17.5 6.25016V17.9168C17.5 19.0652 16.565 20.0002 15.4167 20.0002Z" fill="#828282"/>
<path d="M18.7506 6.66667H1.25065C1.02065 6.66667 0.833984 6.48 0.833984 6.25V4.58333C0.833984 3.435 1.76898 2.5 2.91732 2.5H17.084C18.2323 2.5 19.1673 3.435 19.1673 4.58333V6.25C19.1673 6.48 18.9806 6.66667 18.7506 6.66667ZM1.66732 5.83333H18.334V4.58333C18.334 3.89417 17.7731 3.33333 17.084 3.33333H2.91732C2.22815 3.33333 1.66732 3.89417 1.66732 4.58333V5.83333Z" fill="#828282"/>
<path d="M13.7506 3.33333C13.5206 3.33333 13.334 3.14667 13.334 2.91667V1.25C13.334 1.02 13.1473 0.833333 12.9173 0.833333H7.08398C6.85398 0.833333 6.66732 1.02 6.66732 1.25V2.91667C6.66732 3.14667 6.48065 3.33333 6.25065 3.33333C6.02065 3.33333 5.83398 3.14667 5.83398 2.91667V1.25C5.83398 0.560833 6.39482 0 7.08398 0H12.9173C13.6065 0 14.1673 0.560833 14.1673 1.25V2.91667C14.1673 3.14667 13.9806 3.33333 13.7506 3.33333Z" fill="#828282"/>
<path d="M10.0006 16.6667C9.77065 16.6667 9.58398 16.4801 9.58398 16.2501V9.58341C9.58398 9.35341 9.77065 9.16675 10.0006 9.16675C10.2306 9.16675 10.4173 9.35341 10.4173 9.58341V16.2501C10.4173 16.4801 10.2306 16.6667 10.0006 16.6667Z" fill="#828282"/>
<path d="M6.25065 16.6667C6.02065 16.6667 5.83398 16.4801 5.83398 16.2501V9.58341C5.83398 9.35341 6.02065 9.16675 6.25065 9.16675C6.48066 9.16675 6.66732 9.35341 6.66732 9.58341V16.2501C6.66732 16.4801 6.48066 16.6667 6.25065 16.6667Z" fill="#828282"/>
<path d="M13.7506 16.6667C13.5206 16.6667 13.334 16.4801 13.334 16.2501V9.58341C13.334 9.35341 13.5206 9.16675 13.7506 9.16675C13.9806 9.16675 14.1673 9.35341 14.1673 9.58341V16.2501C14.1673 16.4801 13.9806 16.6667 13.7506 16.6667Z" fill="#828282"/>
</g>
<defs>
<clipPath id="clip0_239_3739">
<rect width="20" height="20" fill="white"/>
</clipPath>
</defs>
</svg>
