<svg width="8" height="14" viewBox="0 0 8 14" fill="none" xmlns="http://www.w3.org/2000/svg">
<path d="M0 7.99756C0 3.59089 3.58667 -0.00244141 8 -0.00244141C7.31333 -0.00244141 6.68 0.324225 6.12 0.910892C4.79333 1.25756 3.61333 1.97756 2.69333 2.94423C2.56667 2.87756 2.44 2.81756 2.32667 2.75089L1.99333 3.33089C2.07333 3.37756 2.15333 3.41756 2.24 3.46423C1.32 4.63089 0.746667 6.07756 0.673333 7.66423H0.5C0.313333 7.66423 0.166667 7.81756 0.166667 7.99756C0.166667 8.18423 0.313333 8.33089 0.5 8.33089H0.673333C0.746667 9.90423 1.32667 11.3642 2.25333 12.5376C2.16667 12.5776 2.08 12.6242 1.99333 12.6709C1.84 12.7642 1.78 12.9509 1.86667 13.1109C0.706667 11.7242 0 9.93756 0 7.99756H0Z" fill="#092F33"/>
</svg>
