<svg width="22" height="22" viewBox="0 0 23 22" fill="none" xmlns="http://www.w3.org/2000/svg">
<path d="M11.9673 0C7.26674 0 3.2473 2.96445 1.67529 7.12121L11.9736 8.22283L22.2586 7.12121C20.687 2.96482 16.6679 0 11.9673 0Z" fill="#F1F1F1"/>
<path d="M11.9673 22C16.6679 22 20.6869 19.0355 22.2589 14.8788L11.9673 14.1443L1.6756 14.8788C3.24724 19.0352 7.26667 22 11.9673 22Z" fill="#E90000"/>
<path d="M22.386 7.48053C22.3453 7.36008 22.3034 7.24001 22.2586 7.1214H1.67528C0.737799 9.53578 0.737799 12.4639 1.67528 14.8783H22.2586C23.1476 12.5898 23.199 9.7987 22.386 7.48053Z" fill="#0000D2"/>
</svg>
