<svg width="20" height="21" viewBox="0 0 20 21" fill="none" xmlns="http://www.w3.org/2000/svg">
<g clip-path="url(#clip0_245_4519)">
<path d="M19.5832 10.083H0.416676C0.186678 10.083 0 10.2697 0 10.4997C0 10.7297 0.186678 10.9164 0.416676 10.9164H19.5832C19.8132 10.9164 19.9998 10.7297 19.9998 10.4997C19.9998 10.2697 19.8132 10.083 19.5832 10.083Z" fill="black"/>
<path d="M7.37762 16.8722L0.711048 10.2056C0.548549 10.0431 0.284372 10.0431 0.121874 10.2056C-0.0406246 10.3681 -0.0406246 10.6322 0.121874 10.7947L6.78849 17.4613C6.87017 17.5422 6.97681 17.583 7.08349 17.583C7.19016 17.583 7.2968 17.5422 7.37766 17.4613C7.54012 17.2988 7.54012 17.0347 7.37762 16.8722Z" fill="black"/>
<path d="M7.37762 3.53893C7.21512 3.37643 6.95095 3.37643 6.78845 3.53893L0.121874 10.2056C-0.0406246 10.3681 -0.0406246 10.6322 0.121874 10.7947C0.203553 10.8755 0.310192 10.9164 0.416871 10.9164C0.52355 10.9164 0.630189 10.8756 0.711048 10.7947L7.37762 4.1281C7.54012 3.9656 7.54012 3.70143 7.37762 3.53893Z" fill="black"/>
</g>
<defs>
<clipPath id="clip0_245_4519">
<rect width="20" height="20" fill="white" transform="translate(0 0.5)"/>
</clipPath>
</defs>
</svg>
