<svg width="16" height="16" viewBox="0 0 16 16" fill="none" xmlns="http://www.w3.org/2000/svg">
<g clip-path="url(#clip0_165_2985)">
<path d="M13.7531 3.4648C13.6131 3.2848 13.4598 3.11146 13.2998 2.9448C13.4331 2.8848 13.5531 2.81813 13.6731 2.75146L14.0065 3.33146C13.9265 3.37813 13.8398 3.4248 13.7531 3.4648Z" fill="#092F33"/>
<path d="M11.3599 3.61791C12.0732 3.45125 12.7332 3.22458 13.2999 2.94458C13.4599 3.11125 13.6132 3.28458 13.7532 3.46458C13.1132 3.79124 12.3665 4.06458 11.5532 4.26458C11.4932 4.03791 11.4332 3.82458 11.3599 3.61791Z" fill="#092F33"/>
<path d="M12 7.99797C12 8.11797 12 8.23797 11.9934 8.3513C11.98 8.53797 11.8134 8.6713 11.64 8.66464C11.46 8.65797 11.32 8.49797 11.3267 8.3113C11.3334 8.2113 11.3334 8.10464 11.3334 7.99797C11.3334 6.69797 11.1734 5.47131 10.8867 4.39798C11.1134 4.35798 11.3334 4.31131 11.5534 4.26465C11.84 5.37131 12 6.63797 12 7.99797Z" fill="#092F33"/>
<path d="M11.5535 4.26458C11.3335 4.31125 11.1135 4.35792 10.8869 4.39792C10.8335 4.17792 10.7669 3.96458 10.7002 3.75792C10.9269 3.71792 11.1469 3.67125 11.3602 3.61792C11.4335 3.82459 11.4935 4.03792 11.5535 4.26458Z" fill="#092F33"/>
<path d="M10.7002 3.75805C10.1535 2.09139 9.29349 0.92472 8.3335 0.70472V0.671387C8.86683 0.698053 9.38683 0.778053 9.88683 0.918053C10.4935 1.54472 11.0002 2.47805 11.3602 3.61805C11.1468 3.67139 10.9268 3.71805 10.7002 3.75805Z" fill="#092F33"/>
<path d="M13.2999 2.94471C12.3732 1.97805 11.1932 1.27138 9.88652 0.918047C9.33318 0.33138 8.69318 0.00471354 8.01318 -0.00195312C11.7332 0.00471354 15.0132 2.64471 15.8132 6.27805C15.8532 6.45805 15.7399 6.63138 15.5599 6.67138C15.3799 6.71138 15.1999 6.59805 15.1599 6.41805C14.9198 5.31805 14.4265 4.31138 13.7532 3.46471C13.8398 3.42471 13.9265 3.37805 14.0065 3.33138L13.6732 2.75138C13.5532 2.81805 13.4332 2.88471 13.2999 2.94471Z" fill="#092F33"/>
<path d="M10.8868 4.39805C10.0802 4.55805 9.22016 4.64472 8.3335 4.65805V3.99139C9.1535 3.97806 9.9535 3.89806 10.7002 3.75806C10.7668 3.96472 10.8335 4.17806 10.8868 4.39805Z" fill="#092F33"/>
<path d="M7.99983 4.66463C8.11316 4.66463 8.2265 4.66463 8.33316 4.65796V6.85129C8.33316 7.03796 8.1865 7.18463 7.99983 7.18463C7.81317 7.18463 7.6665 7.03796 7.6665 6.85129V4.65796C7.77317 4.66463 7.8865 4.66463 7.99983 4.66463Z" fill="#092F33"/>
<path d="M7.99983 4.66478C7.8865 4.66478 7.77317 4.66478 7.6665 4.65812V3.99146C7.77317 3.99812 7.8865 3.99812 7.99983 3.99812C8.11316 3.99812 8.2265 3.99812 8.33316 3.99146V4.65812C8.2265 4.66478 8.11316 4.66478 7.99983 4.66478Z" fill="#092F33"/>
<path d="M8.33316 0.704795V3.99146C8.2265 3.99813 8.11316 3.99813 7.99983 3.99813C7.8865 3.99813 7.77317 3.99813 7.6665 3.99146V0.704795C7.77317 0.678128 7.8865 0.664795 7.99983 0.664795C8.05317 0.664795 8.11316 0.664795 8.1665 0.671462C8.2265 0.678128 8.27983 0.691462 8.33316 0.704795Z" fill="#092F33"/>
<path d="M8.33316 0.67142V0.704753C8.27983 0.69142 8.2265 0.678086 8.1665 0.67142C8.21983 0.664753 8.27983 0.67142 8.33316 0.67142Z" fill="#092F33"/>
<path d="M8.14648 15.5447C8.16648 15.5847 8.17315 15.6247 8.17315 15.6713C8.17315 15.678 8.17315 15.6847 8.16648 15.6913C8.17315 15.638 8.15982 15.5913 8.14648 15.5447Z" fill="#092F33"/>
<path d="M8.1333 15.8114C8.14663 15.7781 8.15996 15.7314 8.16663 15.6914C8.16663 15.7381 8.1533 15.7781 8.1333 15.8114Z" fill="#092F33"/>
<path d="M8.14675 15.538C8.12675 15.5047 8.10675 15.4713 8.08008 15.438C8.11342 15.4647 8.13342 15.498 8.14675 15.538Z" fill="#092F33"/>
<path d="M7.99983 0.664795C7.8865 0.664795 7.77984 0.664795 7.6665 0.671462V0.498128C7.6665 0.318128 7.81317 0.164795 7.99983 0.164795C8.1865 0.164795 8.33316 0.318128 8.33316 0.498128V0.671462C8.27983 0.671462 8.21983 0.664795 8.1665 0.671462C8.11316 0.664795 8.05317 0.664795 7.99983 0.664795Z" fill="#092F33"/>
<path d="M8.02637 15.3914C8.05303 15.4047 8.06637 15.4247 8.0797 15.438C8.06637 15.4247 8.04637 15.4047 8.02637 15.3914Z" fill="#092F33"/>
<path d="M8.13313 15.8115C8.0998 15.8915 8.03313 15.9515 7.95312 15.9715C8.03313 15.9382 8.09313 15.8849 8.13313 15.8115Z" fill="#092F33"/>
<path d="M7.6665 0.671462C7.77984 0.664795 7.88651 0.664795 7.99985 0.664795C7.88651 0.664795 7.77317 0.678128 7.6665 0.704796V0.671462Z" fill="#092F33"/>
<path d="M7.97321 15.358C7.94655 15.3446 7.91321 15.338 7.87988 15.3313C7.91321 15.338 7.94655 15.3446 7.97321 15.358Z" fill="#092F33"/>
<path d="M8.13327 15.8114C8.09327 15.8847 8.03327 15.938 7.95327 15.9714C7.91994 15.9847 7.87994 15.9914 7.83327 15.9914C7.81994 15.9914 7.81327 15.9914 7.79994 15.9914C7.19327 15.9314 6.61994 15.6247 6.11328 15.0847C6.66661 15.2314 7.24661 15.318 7.8466 15.3314H7.8666C7.8666 15.3314 7.87327 15.3314 7.87994 15.3314C7.91327 15.338 7.9466 15.3447 7.97327 15.358C7.99327 15.3647 8.0066 15.378 8.0266 15.3914C8.0466 15.4047 8.0666 15.4247 8.07994 15.438C8.1066 15.4714 8.1266 15.5047 8.1466 15.538C8.1466 15.538 8.13994 15.5447 8.1466 15.5447C8.15994 15.5914 8.17327 15.638 8.1666 15.6914C8.15994 15.7314 8.1466 15.778 8.13327 15.8114Z" fill="#092F33"/>
<path d="M8.00012 0.164714C7.81345 0.164714 7.66678 0.318047 7.66678 0.498047V0.67138C7.13345 0.698047 6.62012 0.778047 6.12012 0.91138C6.68012 0.324714 7.31345 -0.00195312 8.00012 -0.00195312H8.01345C8.69345 0.00471354 9.33345 0.33138 9.88678 0.918047C9.38678 0.778047 8.86678 0.698047 8.33345 0.67138V0.498047C8.33345 0.318047 8.18678 0.164714 8.00012 0.164714Z" fill="#092F33"/>
<path d="M7.17316 7.99812C7.17316 8.18479 7.0265 8.33145 6.83983 8.33145H4.67317C4.6665 8.22479 4.6665 8.11146 4.6665 7.99812C4.6665 7.88479 4.6665 7.77813 4.67317 7.66479H6.83983C7.0265 7.66479 7.17316 7.81813 7.17316 7.99812Z" fill="#092F33"/>
<path d="M6.80667 11.3314L9 13.5314V12.3314C9 12.1514 9.14667 11.998 9.33333 11.998H12.3333C13.5667 11.998 14.6333 11.2514 15.0933 10.178C14.7 10.4847 14.2 10.6647 13.6667 10.6647H9.33333C9.14667 10.6647 9 10.518 9 10.3314V9.13805L6.80667 11.3314ZM6.1 11.5714C5.96667 11.438 5.96667 11.2314 6.1 11.098L9.1 8.09805C9.19333 8.00471 9.34 7.97138 9.46 8.02471C9.58667 8.07805 9.66667 8.19805 9.66667 8.33138V9.99805H13.6667C14.5867 9.99805 15.3333 9.25138 15.3333 8.33138C15.3333 8.15138 15.48 7.99805 15.6667 7.99805C15.8533 7.99805 16 8.15138 16 8.33138V8.99805C16 11.0247 14.3533 12.6647 12.3333 12.6647H9.66667V14.3314C9.66667 14.4714 9.58667 14.5914 9.46 14.6447C9.42 14.658 9.37333 14.6647 9.33333 14.6647C9.24667 14.6647 9.16 14.6314 9.1 14.5714L6.1 11.5714Z" fill="#092F33"/>
<path d="M5.29995 3.75806C6.04661 3.89806 6.84661 3.97806 7.66661 3.99139V4.65805C6.77995 4.64472 5.91995 4.55805 5.11328 4.39805C5.16661 4.17806 5.23328 3.96472 5.29995 3.75806Z" fill="#092F33"/>
<path d="M5.57314 12.9647C6.1598 14.3714 6.98647 15.2314 7.84647 15.3314C7.24647 15.3181 6.66647 15.2314 6.11314 15.0847C5.67314 14.6247 5.28647 13.998 4.95981 13.2247C4.88647 13.0514 4.96647 12.858 5.13981 12.7847C5.30647 12.718 5.50647 12.798 5.57314 12.9647Z" fill="#092F33"/>
<path d="M7.6668 0.70472C6.7068 0.92472 5.8468 2.09139 5.30014 3.75805C5.07347 3.71805 4.85347 3.67139 4.64014 3.61805C5.0068 2.47139 5.51347 1.53805 6.12014 0.911387C6.62014 0.778053 7.13347 0.698053 7.6668 0.671387V0.70472Z" fill="#092F33"/>
<path d="M4.64011 3.61792C4.85345 3.67125 5.07345 3.71792 5.30012 3.75792C5.23345 3.96458 5.16678 4.17792 5.11345 4.39792C4.88678 4.35792 4.66678 4.31125 4.44678 4.26458C4.50678 4.03792 4.56678 3.82459 4.64011 3.61792Z" fill="#092F33"/>
<path d="M4.86017 10.418C4.8935 10.598 4.7735 10.7713 4.5935 10.8046C4.5735 10.8046 4.5535 10.8046 4.5335 10.8046C4.3735 10.8046 4.2335 10.6913 4.20684 10.5313C4.08684 9.84463 4.02017 9.10463 4.00684 8.3313H4.6735C4.68683 9.06463 4.74683 9.76463 4.86017 10.418Z" fill="#092F33"/>
<path d="M5.1135 4.39798C4.8535 5.37798 4.6935 6.49132 4.6735 7.66465H4.00684C4.02684 6.43132 4.18684 5.27798 4.44684 4.26465C4.66684 4.31132 4.88684 4.35798 5.1135 4.39798Z" fill="#092F33"/>
<path d="M4.66666 7.99812C4.66666 8.11146 4.66666 8.22479 4.67333 8.33145H4.00667C4 8.22479 4 8.11146 4 7.99812C4 7.88479 4 7.77813 4.00667 7.66479H4.67333C4.66666 7.77813 4.66666 7.88479 4.66666 7.99812Z" fill="#092F33"/>
<path d="M4.63975 3.61791C4.56641 3.82458 4.50641 4.03791 4.44641 4.26458C3.62641 4.06458 2.87975 3.79791 2.23975 3.46458C2.37975 3.28458 2.53308 3.11125 2.69308 2.94458C3.25975 3.21791 3.91975 3.44458 4.63975 3.61791Z" fill="#092F33"/>
<path d="M4.0065 7.66479C3.99984 7.77813 3.99984 7.88479 3.99984 7.99812C3.99984 8.11146 3.99984 8.22479 4.0065 8.33145H0.673171C0.666504 8.21812 0.666504 8.11146 0.666504 7.99812C0.666504 7.88479 0.666504 7.77146 0.673171 7.66479H4.0065Z" fill="#092F33"/>
<path d="M4.55342 12.3982C3.86008 12.5715 3.24008 12.7848 2.70675 13.0515C2.54675 12.8848 2.39342 12.7115 2.25342 12.5382C2.86675 12.2115 3.58675 11.9515 4.39342 11.7515C4.57342 11.7048 4.75342 11.8182 4.80008 11.9915C4.84008 12.1715 4.73342 12.3515 4.55342 12.3982Z" fill="#092F33"/>
<path d="M2.7068 13.0515C3.62013 14.0115 4.79346 14.7315 6.11346 15.0848C6.62013 15.6248 7.19346 15.9315 7.80013 15.9915H7.83346C7.88013 15.9915 7.92013 15.9848 7.95346 15.9715C7.92013 15.9915 7.88013 15.9982 7.84013 15.9982H7.83346C5.50013 15.9515 3.40013 14.8848 1.9668 13.2248C2.02013 13.2715 2.09346 13.2915 2.16013 13.2915C2.22013 13.2915 2.27346 13.2782 2.3268 13.2515C2.4468 13.1848 2.57346 13.1115 2.7068 13.0515Z" fill="#092F33"/>
<path d="M2.3265 2.75146C2.43983 2.81813 2.5665 2.87813 2.69316 2.9448C2.53316 3.11146 2.37983 3.2848 2.23983 3.4648C2.15316 3.41813 2.07316 3.37813 1.99316 3.33146L2.3265 2.75146Z" fill="#092F33"/>
<path d="M2.25373 12.5381C2.39373 12.7114 2.54706 12.8848 2.70706 13.0514C2.57373 13.1114 2.44706 13.1848 2.32706 13.2514C2.27373 13.2781 2.22039 13.2914 2.16039 13.2914C2.09373 13.2914 2.02039 13.2714 1.96706 13.2248C1.94039 13.1981 1.90706 13.1648 1.87372 13.1248C1.87372 13.1181 1.86706 13.1181 1.86706 13.1114C1.78039 12.9514 1.84039 12.7648 1.99372 12.6714C2.08039 12.6248 2.16706 12.5781 2.25373 12.5381Z" fill="#092F33"/>
<path d="M1.87305 13.1248C1.90638 13.1648 1.93971 13.1981 1.96638 13.2248C1.92638 13.1981 1.89305 13.1648 1.87305 13.1248Z" fill="#092F33"/>
<path d="M0.666504 7.99812C0.666504 8.11146 0.666504 8.21812 0.673171 8.33145H0.499837C0.313171 8.33145 0.166504 8.18479 0.166504 7.99812C0.166504 7.81813 0.313171 7.66479 0.499837 7.66479H0.673171C0.666504 7.77146 0.666504 7.88479 0.666504 7.99812Z" fill="#092F33"/>
<path d="M0 7.9978C0 3.59114 3.58667 -0.00219727 8 -0.00219727C7.31333 -0.00219727 6.68 0.324469 6.12 0.911136C4.79333 1.2578 3.61333 1.9778 2.69333 2.94447C2.56667 2.8778 2.44 2.8178 2.32667 2.75114L1.99333 3.33114C2.07333 3.3778 2.15333 3.4178 2.24 3.46447C1.32 4.63114 0.746667 6.0778 0.673333 7.66447H0.5C0.313333 7.66447 0.166667 7.8178 0.166667 7.9978C0.166667 8.18447 0.313333 8.33114 0.5 8.33114H0.673333C0.746667 9.90447 1.32667 11.3645 2.25333 12.5378C2.16667 12.5778 2.08 12.6245 1.99333 12.6711C1.84 12.7645 1.78 12.9511 1.86667 13.1111C0.706667 11.7245 0 9.9378 0 7.9978H0Z" fill="#092F33"/>
</g>
<defs>
<clipPath id="clip0_165_2985">
<rect width="16" height="16" fill="white"/>
</clipPath>
</defs>
</svg>
