<svg width="23" height="18" viewBox="0 0 23 18" fill="none" xmlns="http://www.w3.org/2000/svg">
<path d="M22.0854 2.48864C21.2902 2.8404 20.4469 3.07142 19.5834 3.17405C20.4935 2.62971 21.1747 1.77303 21.5 0.763636C20.6459 1.27197 19.7094 1.62822 18.7334 1.82093C18.0777 1.11945 17.2087 0.654223 16.2614 0.497579C15.3141 0.340934 14.3416 0.501648 13.4951 0.954733C12.6486 1.40782 11.9754 2.12789 11.5804 3.003C11.1853 3.87812 11.0904 4.85924 11.3104 5.79384C9.57826 5.70703 7.8837 5.25689 6.33678 4.47266C4.78986 3.68843 3.42516 2.58764 2.33127 1.24176C1.94408 1.90681 1.7406 2.66283 1.74169 3.43239C1.74169 4.9428 2.51044 6.27718 3.67919 7.05843C2.98753 7.03665 2.3111 6.84987 1.70627 6.51364V6.5678C1.70648 7.57374 2.05458 8.54865 2.69153 9.32724C3.32849 10.1058 4.21511 10.6402 5.20107 10.8397C4.559 11.0137 3.88576 11.0393 3.23232 10.9147C3.5103 11.7805 4.05212 12.5378 4.78189 13.0804C5.51167 13.623 6.39287 13.9238 7.30211 13.9407C6.39844 14.6504 5.36375 15.1751 4.25719 15.4846C3.15063 15.7942 1.99391 15.8827 0.853149 15.7449C2.8445 17.0255 5.16263 17.7054 7.53023 17.7032C15.5438 17.7032 19.9261 11.0647 19.9261 5.30739C19.9261 5.11989 19.9209 4.9303 19.9125 4.74489C20.7655 4.12839 21.5017 3.3647 22.0865 2.48968L22.0854 2.48864Z" fill="#092F33"/>
</svg>
