<svg width="18" height="19" viewBox="0 0 18 19" fill="none" xmlns="http://www.w3.org/2000/svg">
<path d="M17.9333 9.28696C17.7916 9.0807 14.385 4.24988 8.99997 4.24988C4.37914 4.24988 0.261573 9.05296 0.0883203 9.25771C-0.0294198 9.39721 -0.0294198 9.60197 0.0883203 9.74221C0.261573 9.94696 4.37914 14.75 8.99997 14.75C13.6208 14.75 17.7383 9.94696 17.9116 9.74221C18.0204 9.61322 18.0301 9.42646 17.9333 9.28696ZM8.99997 14C5.29568 14 1.7736 10.4675 0.878856 9.49998C1.77212 8.53172 5.29044 4.99991 8.99997 4.99991C13.3343 4.99991 16.3936 8.52722 17.1406 9.47973C16.2781 10.4165 12.7358 14 8.99997 14Z" fill="black"/>
<path d="M8.99998 6.49988C7.34546 6.49988 5.99994 7.8454 5.99994 9.49991C5.99994 11.1544 7.34546 12.4999 8.99998 12.4999C10.6545 12.4999 12 11.1544 12 9.49991C12 7.8454 10.6545 6.49988 8.99998 6.49988ZM8.99998 11.75C7.75947 11.75 6.74994 10.7405 6.74994 9.49995C6.74994 8.25944 7.75947 7.24991 8.99998 7.24991C10.2405 7.24991 11.25 8.25944 11.25 9.49995C11.25 10.7405 10.2405 11.75 8.99998 11.75Z" fill="black"/>
</svg>
