<svg width="18" height="19" viewBox="0 0 18 19" fill="none" xmlns="http://www.w3.org/2000/svg">
<g clip-path="url(#clip0_2093_2661)">
<path d="M11.121 7.37873C10.9747 7.23248 10.737 7.23248 10.5907 7.37873C10.4445 7.52498 10.4445 7.76348 10.5907 7.90899C11.0152 8.3335 11.25 8.89826 11.25 9.49974C11.25 10.7402 10.2405 11.7497 8.99997 11.7497C8.39848 11.7497 7.83373 11.5157 7.40922 11.0905C7.26297 10.9442 7.02521 10.9442 6.87896 11.0905C6.73271 11.236 6.73271 11.4745 6.87896 11.6208C7.44445 12.1878 8.1982 12.4998 8.99997 12.4998C10.6545 12.4998 12 11.1543 12 9.49978C12 8.69797 11.688 7.94422 11.121 7.37873Z" fill="black"/>
<path d="M9.52279 6.55151C9.35253 6.52152 9.17854 6.49976 9.00006 6.49976C7.34556 6.49976 6.00006 7.84525 6.00006 9.49974C6.00006 9.67823 6.02182 9.85225 6.05255 10.0225C6.08479 10.204 6.24306 10.3322 6.42081 10.3322C6.44257 10.3322 6.4643 10.3307 6.4868 10.3262C6.69004 10.2902 6.82655 10.0952 6.79055 9.89198C6.76731 9.76446 6.75005 9.63474 6.75005 9.49974C6.75005 8.25925 7.75956 7.24974 9.00006 7.24974C9.13506 7.24974 9.26482 7.267 9.39229 7.2895C9.59181 7.33 9.79055 7.18899 9.82655 6.98576C9.86255 6.78252 9.72607 6.58751 9.52279 6.55151Z" fill="black"/>
<path d="M17.9108 9.2575C17.8261 9.15699 15.7974 6.78926 12.9991 5.33952C12.8176 5.24429 12.5889 5.31629 12.4936 5.50079C12.3983 5.68455 12.4703 5.91102 12.6548 6.0063C14.8103 7.12229 16.5323 8.86379 17.1211 9.4998C16.2271 10.468 12.7088 13.9998 9.00012 13.9998C7.74163 13.9998 6.47337 13.696 5.22912 13.096C5.04462 13.0053 4.81889 13.084 4.72889 13.2708C4.63815 13.4568 4.7169 13.681 4.90365 13.771C6.24988 14.4213 7.62839 14.7498 9.00015 14.7498C13.6209 14.7498 17.7384 9.94678 17.9116 9.74203C18.0301 9.60249 18.0293 9.39774 17.9108 9.2575Z" fill="black"/>
<path d="M11.4608 4.68176C10.6073 4.39449 9.77932 4.24976 9.00005 4.24976C4.3793 4.24976 0.261804 9.05276 0.0885543 9.25751C-0.0209572 9.3865 -0.0299571 9.57402 0.0675661 9.71426C0.119316 9.78851 1.35906 11.5487 3.50781 12.976C3.57155 13.0188 3.64281 13.039 3.71481 13.039C3.83557 13.039 3.95482 12.9805 4.02682 12.8703C4.14157 12.6985 4.09432 12.4653 3.92181 12.3513C2.34382 11.302 1.26383 10.0353 0.859564 9.52002C1.72282 8.58251 5.26432 4.99978 9.00005 4.99978C9.69829 4.99978 10.4461 5.13179 11.2215 5.39202C11.418 5.4625 11.631 5.35377 11.6963 5.1565C11.7623 4.96002 11.6573 4.74778 11.4608 4.68176Z" fill="black"/>
<path d="M15.6397 2.85993C15.4934 2.71368 15.2556 2.71368 15.1094 2.85993L2.35944 15.6099C2.21319 15.7562 2.21319 15.9939 2.35944 16.1402C2.43295 16.2129 2.52893 16.2497 2.62494 16.2497C2.72095 16.2497 2.81693 16.213 2.8897 16.1402L15.6397 3.39019C15.7859 3.24394 15.7859 3.00618 15.6397 2.85993Z" fill="black"/>
</g>
<defs>
<clipPath id="clip0_2093_2661">
<rect width="18" height="18" fill="white" transform="translate(0 0.5)"/>
</clipPath>
</defs>
</svg>
