<svg width="26" height="27" viewBox="0 0 26 27" fill="none" xmlns="http://www.w3.org/2000/svg">
<g clip-path="url(#clip0_1545_6529)">
<path d="M1.33696 26.5001C0.994477 26.5001 0.651993 26.3698 0.391784 26.1076C-0.130595 25.5853 -0.130595 24.7383 0.391784 24.216L23.716 0.891784C24.2383 0.369405 25.0852 0.369405 25.6076 0.891784C26.13 1.41416 26.13 2.26107 25.6076 2.78377L2.28377 26.1076C2.0216 26.3682 1.67912 26.5001 1.33696 26.5001Z" fill="#092F33"/>
<path d="M24.6628 26.5001C24.3203 26.5001 23.9781 26.3698 23.7176 26.1076L0.391784 2.78377C-0.130595 2.26107 -0.130595 1.41416 0.391784 0.891784C0.914162 0.369405 1.76107 0.369405 2.28377 0.891784L25.6076 24.216C26.13 24.7383 26.13 25.5853 25.6076 26.1076C25.3455 26.3682 25.0033 26.5001 24.6628 26.5001Z" fill="#092F33"/>
</g>
<defs>
<clipPath id="clip0_1545_6529">
<rect width="26" height="26" fill="white" transform="translate(0 0.5)"/>
</clipPath>
</defs>
</svg>
