<svg width="25" height="25" viewBox="0 0 25 25" fill="none" xmlns="http://www.w3.org/2000/svg">
<g clip-path="url(#clip0_1314_8467)">
<path d="M12.5 17.5C12.224 17.5 12 17.276 12 17V1C12 0.724 12.224 0.5 12.5 0.5C12.776 0.5 13 0.724 13 1V17C13 17.276 12.776 17.5 12.5 17.5Z" fill="#219653"/>
<path d="M12.5 17.5002C12.372 17.5002 12.244 17.4512 12.146 17.3542L8.14601 13.3542C7.95101 13.1592 7.95101 12.8422 8.14601 12.6472C8.34101 12.4522 8.65801 12.4522 8.85301 12.6472L12.5 16.2932L16.146 12.6472C16.341 12.4522 16.658 12.4522 16.853 12.6472C17.048 12.8422 17.048 13.1592 16.853 13.3542L12.853 17.3542C12.756 17.4512 12.628 17.5002 12.5 17.5002Z" fill="#219653"/>
<path d="M22 24.5H3C1.621 24.5 0.5 23.378 0.5 22V17C0.5 16.724 0.724 16.5 1 16.5C1.276 16.5 1.5 16.724 1.5 17V22C1.5 22.827 2.173 23.5 3 23.5H22C22.827 23.5 23.5 22.827 23.5 22V17C23.5 16.724 23.724 16.5 24 16.5C24.276 16.5 24.5 16.724 24.5 17V22C24.5 23.378 23.379 24.5 22 24.5Z" fill="#219653"/>
</g>
<defs>
<clipPath id="clip0_1314_8467">
<rect width="24" height="24" fill="white" transform="translate(0.5 0.5)"/>
</clipPath>
</defs>
</svg>
