<svg width="25" height="25" viewBox="0 0 25 25" fill="none" xmlns="http://www.w3.org/2000/svg">
<g clip-path="url(#clip0_1314_8626)">
<path d="M18.2292 25.0003H2.60417C1.16771 25.0003 0 23.8316 0 22.3962V6.77116C0 5.33574 1.16771 4.16699 2.60417 4.16699H11.9792C12.2667 4.16699 12.5 4.40033 12.5 4.68783C12.5 4.97533 12.2667 5.20866 11.9792 5.20866H2.60417C1.74271 5.20866 1.04167 5.9097 1.04167 6.77116V22.3962C1.04167 23.2576 1.74271 23.9587 2.60417 23.9587H18.2292C19.0906 23.9587 19.7917 23.2576 19.7917 22.3962V13.0212C19.7917 12.7337 20.025 12.5003 20.3125 12.5003C20.6 12.5003 20.8333 12.7337 20.8333 13.0212V22.3962C20.8333 23.8316 19.6656 25.0003 18.2292 25.0003Z" fill="#219653"/>
<path d="M9.13746 16.383C9.001 16.383 8.86767 16.3289 8.76871 16.231C8.6458 16.108 8.59163 15.931 8.626 15.7601L9.36246 12.0768C9.3833 11.9758 9.43121 11.883 9.50517 11.8112L20.5541 0.762207C21.5698 -0.253418 23.2219 -0.253418 24.2364 0.762207C24.7291 1.25387 25 1.90804 25 2.60387C25 3.29971 24.7291 3.95387 24.2375 4.44554L13.1885 15.4945C13.1166 15.5674 13.0239 15.6164 12.9218 15.6372L9.23955 16.3726C9.20621 16.3799 9.17184 16.383 9.13746 16.383ZM10.3541 12.4362L9.80205 15.1987L12.5635 14.6466L23.5 3.70908C23.7958 3.41325 23.9583 3.02158 23.9583 2.60387C23.9583 2.18617 23.7958 1.7945 23.501 1.49867C22.8927 0.889291 21.9 0.889291 21.2916 1.49867L10.3541 12.4362ZM12.8208 15.1258H12.8312H12.8208Z" fill="#219653"/>
<path d="M22.3957 6.07174C22.2624 6.07174 22.1291 6.0207 22.027 5.91966L19.0812 2.97279C18.8781 2.76966 18.8781 2.43945 19.0812 2.23633C19.2843 2.0332 19.6145 2.0332 19.8176 2.23633L22.7634 5.1832C22.9666 5.38633 22.9666 5.71654 22.7634 5.91966C22.6624 6.0207 22.5291 6.07174 22.3957 6.07174Z" fill="#219653"/>
</g>
<defs>
<clipPath id="clip0_1314_8626">
<rect width="25" height="25" fill="white"/>
</clipPath>
</defs>
</svg>
