<svg width="28" height="29" viewBox="0 0 28 29" fill="none" xmlns="http://www.w3.org/2000/svg">
<path d="M13.9673 3.5C9.26674 3.5 5.2473 6.46445 3.67529 10.6212L13.9736 11.7228L24.2586 10.6212C22.687 6.46482 18.6679 3.5 13.9673 3.5Z" fill="#F1F1F1"/>
<path d="M13.9672 25.5002C18.6678 25.5002 22.6869 22.5357 24.2589 18.3789L13.9672 17.6445L3.67554 18.3789C5.24718 22.5353 9.26661 25.5002 13.9672 25.5002Z" fill="#E90000"/>
<path d="M24.386 10.9807C24.3453 10.8603 24.3034 10.7402 24.2586 10.6216H3.67528C2.7378 13.036 2.7378 15.9641 3.67528 18.3784H24.2586C25.1476 16.09 25.199 13.2989 24.386 10.9807Z" fill="#0000D2"/>
</svg>
