<svg width="25" height="25" viewBox="0 0 25 25" fill="none" xmlns="http://www.w3.org/2000/svg">
<g clip-path="url(#clip0_1320_8715)">
<path d="M6.77085 19.7917H4.68752C4.40002 19.7917 4.16669 19.5583 4.16669 19.2708C4.16669 18.9833 4.40002 18.75 4.68752 18.75H6.77085C7.05835 18.75 7.29169 18.9833 7.29169 19.2708C7.29169 19.5583 7.05835 19.7917 6.77085 19.7917Z" fill="#219653"/>
<path d="M23.6979 19.792H22.3959C22.1084 19.792 21.875 19.5587 21.875 19.2712C21.875 18.9837 22.1084 18.7503 22.3959 18.7503H23.2656L23.9677 15.0087C23.9584 13.0941 22.3229 11.4587 20.3125 11.4587H16.8927L15.2354 18.7503H18.2292C18.5167 18.7503 18.75 18.9837 18.75 19.2712C18.75 19.5587 18.5167 19.792 18.2292 19.792H14.5834C14.425 19.792 14.275 19.7201 14.1761 19.5962C14.0771 19.4732 14.0396 19.3107 14.075 19.1566L15.9688 10.8232C16.0229 10.5847 16.2334 10.417 16.4771 10.417H20.3125C22.8969 10.417 25 12.5201 25 15.1045L24.2094 19.367C24.1636 19.6139 23.949 19.792 23.6979 19.792Z" fill="#219653"/>
<path d="M20.3125 21.8753C18.8771 21.8753 17.7083 20.7076 17.7083 19.2711C17.7083 17.8347 18.8771 16.667 20.3125 16.667C21.7479 16.667 22.9167 17.8347 22.9167 19.2711C22.9167 20.7076 21.7479 21.8753 20.3125 21.8753ZM20.3125 17.7087C19.451 17.7087 18.75 18.4097 18.75 19.2711C18.75 20.1326 19.451 20.8336 20.3125 20.8336C21.1739 20.8336 21.875 20.1326 21.875 19.2711C21.875 18.4097 21.1739 17.7087 20.3125 17.7087Z" fill="#219653"/>
<path d="M8.85417 21.8753C7.41875 21.8753 6.25 20.7076 6.25 19.2711C6.25 17.8347 7.41875 16.667 8.85417 16.667C10.2896 16.667 11.4583 17.8347 11.4583 19.2711C11.4583 20.7076 10.2896 21.8753 8.85417 21.8753ZM8.85417 17.7087C7.99271 17.7087 7.29167 18.4097 7.29167 19.2711C7.29167 20.1326 7.99271 20.8336 8.85417 20.8336C9.71563 20.8336 10.4167 20.1326 10.4167 19.2711C10.4167 18.4097 9.71563 17.7087 8.85417 17.7087Z" fill="#219653"/>
<path d="M6.77081 10.4167H2.60415C2.31665 10.4167 2.08331 10.1833 2.08331 9.89584C2.08331 9.60833 2.31665 9.375 2.60415 9.375H6.77081C7.05831 9.375 7.29165 9.60833 7.29165 9.89584C7.29165 10.1833 7.05831 10.4167 6.77081 10.4167Z" fill="#219653"/>
<path d="M6.77085 13.5417H1.56252C1.27502 13.5417 1.04169 13.3083 1.04169 13.0208C1.04169 12.7333 1.27502 12.5 1.56252 12.5H6.77085C7.05835 12.5 7.29169 12.7333 7.29169 13.0208C7.29169 13.3083 7.05835 13.5417 6.77085 13.5417Z" fill="#219653"/>
<path d="M6.77083 16.6667H0.520833C0.233333 16.6667 0 16.4333 0 16.1458C0 15.8583 0.233333 15.625 0.520833 15.625H6.77083C7.05833 15.625 7.29167 15.8583 7.29167 16.1458C7.29167 16.4333 7.05833 16.6667 6.77083 16.6667Z" fill="#219653"/>
<path d="M14.5834 19.792H10.9375C10.65 19.792 10.4167 19.5587 10.4167 19.2712C10.4167 18.9837 10.65 18.7503 10.9375 18.7503H14.1677L16.5344 8.33366H4.68752C4.40002 8.33366 4.16669 8.10033 4.16669 7.81283C4.16669 7.52533 4.40002 7.29199 4.68752 7.29199H17.1875C17.3459 7.29199 17.4959 7.36387 17.5948 7.48783C17.6938 7.61074 17.7313 7.77324 17.6959 7.92741L15.0917 19.3857C15.0375 19.6243 14.8261 19.792 14.5834 19.792Z" fill="#219653"/>
</g>
<defs>
<clipPath id="clip0_1320_8715">
<rect width="25" height="25" fill="white"/>
</clipPath>
</defs>
</svg>
