<svg width="25" height="25" viewBox="0 0 25 25" fill="none" xmlns="http://www.w3.org/2000/svg">
<g clip-path="url(#clip0_1146_15986)">
<path d="M21.3542 22.9163H2.60417C1.16771 22.9163 0 21.7476 0 20.3122V5.72884C0 5.44134 0.233333 5.20801 0.520833 5.20801C0.808333 5.20801 1.04167 5.44134 1.04167 5.72884V20.3122C1.04167 21.1736 1.74271 21.8747 2.60417 21.8747H21.3542C21.6406 21.8747 21.875 21.6413 21.875 21.3538V18.2288C21.875 17.9413 22.1083 17.708 22.3958 17.708C22.6833 17.708 22.9167 17.9413 22.9167 18.2288V21.3538C22.9167 22.2153 22.2156 22.9163 21.3542 22.9163Z" fill="#219653"/>
<path d="M22.3958 12.5C22.1083 12.5 21.875 12.2667 21.875 11.9792V8.85417C21.875 8.56667 21.6406 8.33333 21.3542 8.33333H2.60417C1.90104 8.33333 1.24688 8.05937 0.761458 7.56146C0.273958 7.08646 0 6.43229 0 5.72917C0 4.29375 1.16771 3.125 2.60417 3.125H11.5104C11.7979 3.125 12.0313 3.35833 12.0313 3.64583C12.0313 3.93333 11.7979 4.16667 11.5104 4.16667H2.60417C1.74271 4.16667 1.04167 4.86771 1.04167 5.72917C1.04167 6.14896 1.20417 6.5375 1.49792 6.825C1.79583 7.12917 2.18542 7.29167 2.60417 7.29167H21.3542C22.2156 7.29167 22.9167 7.99271 22.9167 8.85417V11.9792C22.9167 12.2667 22.6833 12.5 22.3958 12.5Z" fill="#219653"/>
<path d="M19.2708 8.33333C18.9833 8.33333 18.75 8.1 18.75 7.8125V4.6875C18.75 4.4 18.5156 4.16667 18.2291 4.16667H16.3229C16.0354 4.16667 15.8021 3.93333 15.8021 3.64583C15.8021 3.35833 16.0354 3.125 16.3229 3.125H18.2291C19.0906 3.125 19.7916 3.82604 19.7916 4.6875V7.8125C19.7916 8.1 19.5583 8.33333 19.2708 8.33333Z" fill="#219653"/>
<path d="M18.75 8.33329C18.5708 8.33329 18.3969 8.24058 18.3 8.07496L14.9198 2.28017L4.9552 8.25933C4.71145 8.40725 4.38958 8.32808 4.24062 8.08017C4.0927 7.83433 4.17291 7.5135 4.41979 7.36558L14.8365 1.11558C14.9552 1.04371 15.099 1.02496 15.2333 1.05725C15.3687 1.09162 15.4833 1.17912 15.5542 1.29892L19.2 7.54892C19.3458 7.79787 19.2615 8.11662 19.0125 8.26142C18.9302 8.31037 18.8396 8.33329 18.75 8.33329V8.33329Z" fill="#219653"/>
<path d="M24.4792 18.7497H19.2708C17.2604 18.7497 15.625 17.1143 15.625 15.1038C15.625 13.0934 17.2604 11.458 19.2708 11.458H24.4792C24.7667 11.458 25 11.6913 25 11.9788V18.2288C25 18.5163 24.7667 18.7497 24.4792 18.7497ZM19.2708 12.4997C17.8344 12.4997 16.6667 13.6684 16.6667 15.1038C16.6667 16.5393 17.8344 17.708 19.2708 17.708H23.9583V12.4997H19.2708Z" fill="#219653"/>
<path d="M19.2709 16.667C18.4094 16.667 17.7084 15.966 17.7084 15.1045C17.7084 14.243 18.4094 13.542 19.2709 13.542C20.1323 13.542 20.8334 14.243 20.8334 15.1045C20.8334 15.966 20.1323 16.667 19.2709 16.667ZM19.2709 14.5837C18.9844 14.5837 18.75 14.817 18.75 15.1045C18.75 15.392 18.9844 15.6253 19.2709 15.6253C19.5573 15.6253 19.7917 15.392 19.7917 15.1045C19.7917 14.817 19.5573 14.5837 19.2709 14.5837Z" fill="#219653"/>
</g>
<defs>
<clipPath id="clip0_1146_15986">
<rect width="25" height="25" fill="white"/>
</clipPath>
</defs>
</svg>
