<svg width="25" height="25" viewBox="0 0 25 25" fill="none" xmlns="http://www.w3.org/2000/svg">
<g clip-path="url(#clip0_1314_10175)">
<path d="M24.4792 7.29167C24.1917 7.29167 23.9584 7.05833 23.9584 6.77083V2.60417C23.9584 1.74271 23.2573 1.04167 22.3959 1.04167H18.2292C17.9417 1.04167 17.7084 0.808333 17.7084 0.520833C17.7084 0.233333 17.9417 0 18.2292 0H22.3959C23.8313 0 25 1.16771 25 2.60417V6.77083C25 7.05833 24.7667 7.29167 24.4792 7.29167Z" fill="#219653"/>
<path d="M22.3959 25.0002H18.2292C17.9417 25.0002 17.7084 24.7668 17.7084 24.4793C17.7084 24.1918 17.9417 23.9585 18.2292 23.9585H22.3959C23.2573 23.9585 23.9584 23.2575 23.9584 22.396V18.2293C23.9584 17.9418 24.1917 17.7085 24.4792 17.7085C24.7667 17.7085 25 17.9418 25 18.2293V22.396C25 23.8325 23.8313 25.0002 22.3959 25.0002Z" fill="#219653"/>
<path d="M6.77083 25.0002H2.60417C1.16875 25.0002 0 23.8325 0 22.396V18.2293C0 17.9418 0.233333 17.7085 0.520833 17.7085C0.808333 17.7085 1.04167 17.9418 1.04167 18.2293V22.396C1.04167 23.2575 1.74271 23.9585 2.60417 23.9585H6.77083C7.05833 23.9585 7.29167 24.1918 7.29167 24.4793C7.29167 24.7668 7.05833 25.0002 6.77083 25.0002Z" fill="#219653"/>
<path d="M0.520833 7.29167C0.233333 7.29167 0 7.05833 0 6.77083V2.60417C0 1.16771 1.16875 0 2.60417 0H6.77083C7.05833 0 7.29167 0.233333 7.29167 0.520833C7.29167 0.808333 7.05833 1.04167 6.77083 1.04167H2.60417C1.74271 1.04167 1.04167 1.74271 1.04167 2.60417V6.77083C1.04167 7.05833 0.808333 7.29167 0.520833 7.29167Z" fill="#219653"/>
<path d="M18.2291 19.7918H6.77081C5.90935 19.7918 5.20831 19.0908 5.20831 18.2293V15.1043C5.20831 14.8168 5.44165 14.5835 5.72915 14.5835C6.01665 14.5835 6.24998 14.8168 6.24998 15.1043V18.2293C6.24998 18.5158 6.48331 18.7502 6.77081 18.7502H18.2291C18.5166 18.7502 18.75 18.5158 18.75 18.2293V15.1043C18.75 14.8168 18.9833 14.5835 19.2708 14.5835C19.5583 14.5835 19.7916 14.8168 19.7916 15.1043V18.2293C19.7916 19.0908 19.0906 19.7918 18.2291 19.7918Z" fill="#219653"/>
<path d="M19.2708 11.4585C18.9833 11.4585 18.75 11.2252 18.75 10.9377V6.771C18.75 6.48454 18.5166 6.25016 18.2291 6.25016H6.77081C6.48331 6.25016 6.24998 6.48454 6.24998 6.771V10.9377C6.24998 11.2252 6.01665 11.4585 5.72915 11.4585C5.44165 11.4585 5.20831 11.2252 5.20831 10.9377V6.771C5.20831 5.90954 5.90935 5.2085 6.77081 5.2085H18.2291C19.0906 5.2085 19.7916 5.90954 19.7916 6.771V10.9377C19.7916 11.2252 19.5583 11.4585 19.2708 11.4585Z" fill="#219653"/>
<path d="M21.3542 15.6252H3.64583C3.35833 15.6252 3.125 15.3918 3.125 15.1043C3.125 14.8168 3.35833 14.5835 3.64583 14.5835H21.3542C21.6417 14.5835 21.875 14.8168 21.875 15.1043C21.875 15.3918 21.6417 15.6252 21.3542 15.6252Z" fill="#219653"/>
</g>
<defs>
<clipPath id="clip0_1314_10175">
<rect width="25" height="25" fill="white"/>
</clipPath>
</defs>
</svg>
