<svg width="24" height="25" viewBox="0 0 24 25" fill="none" xmlns="http://www.w3.org/2000/svg">
<g clip-path="url(#clip0_2618_2502)">
<path d="M21.5 24.5H2.5C1.122 24.5 0 23.378 0 22V5C0 3.622 1.122 2.5 2.5 2.5H21.5C22.878 2.5 24 3.622 24 5V22C24 23.378 22.878 24.5 21.5 24.5ZM2.5 3.5C1.673 3.5 1 4.173 1 5V22C1 22.827 1.673 23.5 2.5 23.5H21.5C22.327 23.5 23 22.827 23 22V5C23 4.173 22.327 3.5 21.5 3.5H2.5Z" fill="#219653"/>
<path d="M23.5 9.50001H0.5C0.224 9.50001 0 9.276 0 9C0 8.724 0.224 8.5 0.5 8.5H23.5C23.776 8.5 24 8.724 24 9C24 9.276 23.776 9.50001 23.5 9.50001Z" fill="#219653"/>
<path d="M5.5 5.5C5.224 5.5 5 5.276 5 5V1C5 0.724 5.224 0.5 5.5 0.5C5.776 0.5 6 0.724 6 1V5C6 5.276 5.776 5.5 5.5 5.5Z" fill="#219653"/>
<path d="M18.5 5.5C18.224 5.5 18 5.276 18 5V1C18 0.724 18.224 0.5 18.5 0.5C18.776 0.5 19 0.724 19 1V5C19 5.276 18.776 5.5 18.5 5.5Z" fill="#219653"/>
</g>
<defs>
<clipPath id="clip0_2618_2502">
<rect width="24" height="24" fill="white" transform="translate(0 0.5)"/>
</clipPath>
</defs>
</svg>
