<svg width="35" height="35" viewBox="0 0 35 35" fill="none" xmlns="http://www.w3.org/2000/svg">
<path d="M30.2273 0H4.77273C2.13682 0 0 2.13682 0 4.77273V30.2273C0 32.8632 2.13682 35 4.77273 35H30.2273C32.8632 35 35 32.8632 35 30.2273V4.77273C35 2.13682 32.8632 0 30.2273 0Z" fill="#3A559F"/>
<path d="M23.0448 15.4278L22.6928 18.4764C22.6782 18.6155 22.613 18.7444 22.5097 18.8386C22.4063 18.9329 22.2719 18.9858 22.132 18.9875H18.9502L18.9343 28.0259C18.9354 28.133 18.8943 28.2362 18.8198 28.3132C18.7454 28.3902 18.6437 28.4349 18.5366 28.4375H15.313C15.2594 28.4375 15.2064 28.4268 15.157 28.4058C15.1077 28.3848 15.0631 28.3541 15.026 28.3154C14.9888 28.2768 14.9599 28.2311 14.9409 28.181C14.9218 28.1309 14.9131 28.0774 14.9153 28.0239V18.9875H12.5289C12.454 18.9867 12.3799 18.9712 12.3109 18.9418C12.242 18.9124 12.1795 18.8697 12.1271 18.8161C12.0746 18.7626 12.0332 18.6992 12.0053 18.6297C11.9773 18.5601 11.9633 18.4857 11.9641 18.4108L11.9522 15.3622C11.9512 15.287 11.9649 15.2123 11.9927 15.1424C12.0206 15.0725 12.0619 15.0088 12.1143 14.9549C12.1668 14.901 12.2293 14.8579 12.2984 14.8282C12.3675 14.7984 12.4418 14.7826 12.517 14.7815H14.9153V11.8384C14.9153 8.42187 16.9437 6.5625 19.9187 6.5625H22.3568C22.4321 6.56328 22.5066 6.57893 22.576 6.60856C22.6453 6.63819 22.7081 6.68121 22.7607 6.73516C22.8134 6.78911 22.8549 6.85292 22.8828 6.92294C22.9107 6.99296 22.9246 7.0678 22.9235 7.14318V9.70852C22.9246 9.7839 22.9107 9.85875 22.8828 9.92876C22.8549 9.99878 22.8134 10.0626 22.7607 10.1165C22.7081 10.1705 22.6453 10.2135 22.576 10.2431C22.5066 10.2728 22.4321 10.2884 22.3568 10.2892H20.8613C19.2445 10.2892 18.9303 11.0847 18.9303 12.2341V14.7815H22.484C22.5649 14.7825 22.6445 14.8007 22.7179 14.8347C22.7912 14.8687 22.8565 14.9178 22.9094 14.9789C22.9624 15.0399 23.0019 15.1115 23.0252 15.1889C23.0485 15.2662 23.0552 15.3477 23.0448 15.4278Z" fill="white"/>
</svg>
