<svg width="35" height="35" viewBox="0 0 35 35" fill="none" xmlns="http://www.w3.org/2000/svg">
<g clip-path="url(#clip0_1322_11574)">
<path d="M32.8885 30.5225H2.11321C0.94666 30.5225 0.000976562 29.5768 0.000976562 28.4102V6.58978C0.00104492 5.42322 0.946728 4.47754 2.11321 4.47754H32.8885C34.0551 4.47754 35.0008 5.42322 35.0008 6.58978V28.4103C35.0008 29.5768 34.0551 30.5225 32.8885 30.5225Z" fill="#FAFAFA"/>
<path d="M4.22559 30.5226L33.1784 9.02246V30.5226H4.22559Z" fill="#F5F5F5"/>
<path d="M4.22634 30.5225H2.11321C0.94666 30.5225 0.000976562 29.5768 0.000976562 28.4102V6.58978C0.00104492 5.42322 0.946729 4.47754 2.11321 4.47754H4.22634V30.5225Z" fill="#F44336"/>
<path d="M2.1123 4.47754H4.22495V30.5225H2.1123V4.47754Z" fill="#E53935"/>
<path d="M30.7744 30.5225H32.8875C34.0541 30.5225 34.9998 29.5768 34.9998 28.4102V6.58978C34.9998 5.42322 34.0541 4.47754 32.8875 4.47754H30.7744V30.5225Z" fill="#F44336"/>
<path d="M32.8871 4.47754H30.7744C31.9412 4.47754 32.8871 5.42302 32.8871 6.5893V28.4107C32.8871 29.577 31.9412 30.5225 30.7744 30.5225H32.8871C34.0539 30.5225 34.9997 29.577 34.9997 28.4107V6.5893C34.9997 5.42302 34.0538 4.47754 32.8871 4.47754Z" fill="#E53935"/>
<path d="M2.1123 4.47754H32.8867V6.59121L17.4995 18.0415L2.1123 6.09116V4.47754Z" fill="#FAFAFA"/>
<path d="M34.5818 5.32989C33.8851 4.39432 32.5615 4.20052 31.6256 4.89704L17.5 15.4085L3.37435 4.89704C2.43844 4.20052 1.11493 4.39439 0.418146 5.32989C-0.278573 6.26539 -0.0847054 7.58835 0.851203 8.28486L16.2384 19.7351C16.6128 20.0137 17.0564 20.1529 17.5 20.1529C17.9436 20.1529 18.3872 20.0137 18.7616 19.7351L34.1488 8.28479C35.0847 7.58835 35.2786 6.26539 34.5818 5.32989Z" fill="#F44336"/>
<path d="M34.5815 5.32999C33.9345 4.46114 32.7469 4.23255 31.8311 4.76226C32.0731 4.90185 32.2914 5.09176 32.4688 5.32999C33.1656 6.26549 32.9718 7.58844 32.0359 8.28496L16.6486 19.7351C16.5825 19.7844 16.5135 19.8277 16.4434 19.8682C16.7699 20.057 17.1345 20.153 17.4996 20.153C17.9433 20.153 18.3869 20.0138 18.7613 19.7351L34.1485 8.28489C35.0844 7.58844 35.2783 6.26549 34.5815 5.32999Z" fill="#E53935"/>
</g>
<defs>
<clipPath id="clip0_1322_11574">
<rect width="35" height="35" fill="white"/>
</clipPath>
</defs>
</svg>
