<svg width="76" height="82" viewBox="0 0 76 82" fill="none" xmlns="http://www.w3.org/2000/svg">
<path d="M1.9475 76C1.84083 76 1.75017 75.968 1.6755 75.904C1.6115 75.8293 1.5795 75.7333 1.5795 75.616V65.184C1.5795 65.0667 1.6115 64.976 1.6755 64.912C1.75017 64.8373 1.84083 64.8 1.9475 64.8H2.7795C2.88617 64.8 2.9715 64.8373 3.0355 64.912C3.11017 64.9867 3.1475 65.0773 3.1475 65.184V73.456L9.1155 65.024C9.20083 64.8747 9.33417 64.8 9.5155 64.8H10.2995C10.4062 64.8 10.4915 64.8373 10.5555 64.912C10.6302 64.976 10.6675 65.0667 10.6675 65.184V75.632C10.6675 75.7387 10.6302 75.8293 10.5555 75.904C10.4915 75.968 10.4062 76 10.2995 76H9.4835C9.37683 76 9.28617 75.968 9.2115 75.904C9.13683 75.8293 9.0995 75.7387 9.0995 75.632V67.424L3.1475 75.776C3.06217 75.9253 2.92883 76 2.7475 76H1.9475ZM16.1425 76.16C15.3638 76.16 14.7185 76.0373 14.2065 75.792C13.7052 75.5467 13.3372 75.248 13.1025 74.896C12.8785 74.544 12.7612 74.1973 12.7505 73.856V73.824C12.7505 73.7387 12.7825 73.6693 12.8465 73.616C12.9105 73.5627 12.9852 73.536 13.0705 73.536H13.8225C14.0145 73.536 14.1425 73.6373 14.2065 73.84C14.3238 74.2453 14.5532 74.5333 14.8945 74.704C15.2465 74.864 15.7052 74.944 16.2705 74.944C16.8145 74.944 17.2625 74.832 17.6145 74.608C17.9665 74.384 18.1425 74.0533 18.1425 73.616C18.1425 73.168 18.0145 72.8373 17.7585 72.624C17.5132 72.4 17.1292 72.288 16.6065 72.288H15.7265C15.6305 72.288 15.5505 72.256 15.4865 72.192C15.4225 72.128 15.3905 72.0427 15.3905 71.936V71.504C15.3905 71.3973 15.4225 71.312 15.4865 71.248C15.5505 71.184 15.6305 71.152 15.7265 71.152H16.5105C17.4172 71.152 17.8705 70.7947 17.8705 70.08C17.8705 69.696 17.7318 69.376 17.4545 69.12C17.1878 68.864 16.7505 68.736 16.1425 68.736C15.5558 68.736 15.1292 68.8373 14.8625 69.04C14.6065 69.232 14.4198 69.5413 14.3025 69.968C14.2598 70.0747 14.2065 70.1547 14.1425 70.208C14.0892 70.2507 14.0092 70.272 13.9025 70.272H13.1825C13.0865 70.272 13.0065 70.2453 12.9425 70.192C12.8785 70.128 12.8465 70.0533 12.8465 69.968C12.8572 69.5307 12.9852 69.1253 13.2305 68.752C13.4758 68.3787 13.8438 68.08 14.3345 67.856C14.8252 67.632 15.4278 67.52 16.1425 67.52C16.8892 67.52 17.5025 67.6373 17.9825 67.872C18.4625 68.1067 18.8092 68.4 19.0225 68.752C19.2358 69.104 19.3425 69.472 19.3425 69.856C19.3425 70.2933 19.2678 70.6507 19.1185 70.928C18.9798 71.1947 18.7238 71.4187 18.3505 71.6C18.8092 71.7707 19.1345 72.0373 19.3265 72.4C19.5292 72.7627 19.6305 73.2053 19.6305 73.728C19.6305 74.5067 19.3105 75.1093 18.6705 75.536C18.0305 75.952 17.1878 76.16 16.1425 76.16ZM29.626 67.68C29.7113 67.68 29.786 67.712 29.85 67.776C29.914 67.8293 29.946 67.8987 29.946 67.984V75.648C29.946 75.7547 29.914 75.84 29.85 75.904C29.786 75.968 29.706 76 29.61 76H28.826C28.7193 76 28.634 75.968 28.57 75.904C28.506 75.84 28.474 75.7547 28.474 75.648V70.384L26.426 74.256C26.3513 74.3947 26.2767 74.5013 26.202 74.576C26.138 74.64 26.0367 74.672 25.898 74.672H25.482C25.354 74.672 25.2527 74.64 25.178 74.576C25.114 74.512 25.0393 74.4053 24.954 74.256L22.922 70.48V75.648C22.922 75.7547 22.89 75.84 22.826 75.904C22.762 75.968 22.6767 76 22.57 76H21.786C21.6793 76 21.594 75.968 21.53 75.904C21.466 75.84 21.434 75.7547 21.434 75.648V67.984C21.434 67.9093 21.466 67.84 21.53 67.776C21.594 67.712 21.6687 67.68 21.754 67.68H22.57C22.73 67.68 22.8633 67.7653 22.97 67.936L25.69 73.024L28.426 67.936C28.5113 67.7653 28.6447 67.68 28.826 67.68H29.626ZM35.6683 76.16C34.5696 76.16 33.6896 75.824 33.0283 75.152C32.3776 74.4693 32.0203 73.5413 31.9563 72.368L31.9403 71.824L31.9563 71.296C32.0309 70.144 32.3936 69.2267 33.0443 68.544C33.7056 67.8613 34.5749 67.52 35.6523 67.52C36.8363 67.52 37.7536 67.8987 38.4043 68.656C39.0549 69.4027 39.3802 70.416 39.3802 71.696V71.968C39.3802 72.0747 39.3429 72.1653 39.2683 72.24C39.2043 72.304 39.1189 72.336 39.0123 72.336H33.4763V72.48C33.5083 73.1733 33.7163 73.7653 34.1003 74.256C34.4949 74.736 35.0123 74.976 35.6523 74.976C36.1429 74.976 36.5429 74.88 36.8523 74.688C37.1723 74.4853 37.4069 74.2773 37.5563 74.064C37.6523 73.936 37.7216 73.8613 37.7643 73.84C37.8176 73.808 37.9083 73.792 38.0363 73.792H38.8203C38.9163 73.792 38.9963 73.8187 39.0603 73.872C39.1243 73.9253 39.1562 74 39.1562 74.096C39.1562 74.3307 39.0069 74.6133 38.7083 74.944C38.4203 75.2747 38.0096 75.5627 37.4763 75.808C36.9536 76.0427 36.3509 76.16 35.6683 76.16ZM37.8603 71.232V71.184C37.8603 70.448 37.6576 69.8507 37.2523 69.392C36.8576 68.9227 36.3243 68.688 35.6523 68.688C34.9803 68.688 34.4469 68.9227 34.0523 69.392C33.6683 69.8507 33.4763 70.448 33.4763 71.184V71.232H37.8603ZM41.6614 76C41.5547 76 41.464 75.968 41.3894 75.904C41.3254 75.8293 41.2934 75.7387 41.2934 75.632V68.048C41.2934 67.9413 41.3254 67.856 41.3894 67.792C41.464 67.7173 41.5547 67.68 41.6614 67.68H42.4294C42.536 67.68 42.6214 67.7173 42.6854 67.792C42.76 67.856 42.7974 67.9413 42.7974 68.048V71.12H47.1494V68.048C47.1494 67.9413 47.1814 67.856 47.2454 67.792C47.32 67.7173 47.4107 67.68 47.5174 67.68H48.2694C48.376 67.68 48.4614 67.7173 48.5254 67.792C48.6 67.856 48.6374 67.9413 48.6374 68.048V75.632C48.6374 75.7387 48.6 75.8293 48.5254 75.904C48.4614 75.968 48.376 76 48.2694 76H47.5174C47.4107 76 47.32 75.968 47.2454 75.904C47.1814 75.8293 47.1494 75.7387 47.1494 75.632V72.4H42.7974V75.632C42.7974 75.7387 42.76 75.8293 42.6854 75.904C42.6214 75.968 42.536 76 42.4294 76H41.6614ZM58.1154 67.68C58.2007 67.68 58.2754 67.712 58.3394 67.776C58.414 67.84 58.4514 67.9147 58.4514 68V75.632C58.4514 75.7387 58.414 75.8293 58.3394 75.904C58.2754 75.968 58.19 76 58.0834 76H57.3314C57.2247 76 57.134 75.968 57.0594 75.904C56.9954 75.8293 56.9634 75.7387 56.9634 75.632V69.824L52.5314 75.76C52.414 75.92 52.2754 76 52.1154 76H51.3954C51.2994 76 51.214 75.968 51.1394 75.904C51.0754 75.8293 51.0434 75.7493 51.0434 75.664V68.048C51.0434 67.9413 51.0754 67.856 51.1394 67.792C51.214 67.7173 51.3047 67.68 51.4114 67.68H52.1794C52.286 67.68 52.3714 67.7173 52.4354 67.792C52.51 67.856 52.5474 67.9413 52.5474 68.048V73.824L56.9634 67.92C57.0807 67.76 57.2194 67.68 57.3794 67.68H58.1154ZM63.3374 76C63.2307 76 63.14 75.968 63.0654 75.904C63.0014 75.8293 62.9694 75.7387 62.9694 75.632V68.96H60.1854C60.0787 68.96 59.988 68.928 59.9134 68.864C59.8494 68.7893 59.8174 68.6987 59.8174 68.592V68.048C59.8174 67.9413 59.8494 67.856 59.9134 67.792C59.988 67.7173 60.0787 67.68 60.1854 67.68H67.2254C67.332 67.68 67.4174 67.7173 67.4814 67.792C67.556 67.856 67.5934 67.9413 67.5934 68.048V68.592C67.5934 68.6987 67.556 68.7893 67.4814 68.864C67.4174 68.928 67.332 68.96 67.2254 68.96H64.4414V75.632C64.4414 75.7387 64.4094 75.8293 64.3454 75.904C64.2814 75.968 64.196 76 64.0894 76H63.3374ZM69.3489 76C69.2422 76 69.1515 75.968 69.0769 75.904C69.0129 75.8293 68.9809 75.7387 68.9809 75.632V68.048C68.9809 67.9413 69.0129 67.856 69.0769 67.792C69.1515 67.7173 69.2422 67.68 69.3489 67.68H70.1169C70.2235 67.68 70.3089 67.7173 70.3729 67.792C70.4475 67.856 70.4849 67.9413 70.4849 68.048V70.4H72.2769C73.3329 70.4 74.1169 70.6507 74.6289 71.152C75.1515 71.6427 75.4129 72.3413 75.4129 73.248C75.4129 74.1867 75.1355 74.88 74.5809 75.328C74.0369 75.776 73.2049 76 72.0849 76H69.3489ZM72.1489 74.8C72.7995 74.8 73.2689 74.6827 73.5569 74.448C73.8555 74.2133 74.0049 73.8133 74.0049 73.248C74.0049 72.6827 73.8555 72.2667 73.5569 72C73.2689 71.7333 72.7995 71.6 72.1489 71.6H70.4689V74.8H72.1489Z" fill="#FAFAFA"/>
<g clip-path="url(#clip0_232_8818)">
<path d="M57.9792 55C57.3467 55 56.8333 54.4867 56.8333 53.8542V12.6042C56.8333 10.709 55.291 9.16667 53.3958 9.16667H12.1458C11.5133 9.16667 11 8.65333 11 8.02083C11 7.38833 11.5133 6.875 12.1458 6.875H53.3958C56.556 6.875 59.125 9.44625 59.125 12.6042V53.8542C59.125 54.4867 58.6117 55 57.9792 55Z" fill="white"/>
<path d="M64.8542 48.125H23.6042C20.444 48.125 17.875 45.556 17.875 42.3958V1.14583C17.875 0.513333 18.3883 0 19.0208 0C19.6533 0 20.1667 0.513333 20.1667 1.14583V42.3958C20.1667 44.291 21.709 45.8333 23.6042 45.8333H64.8542C65.4867 45.8333 66 46.3467 66 46.9792C66 47.6117 65.4867 48.125 64.8542 48.125Z" fill="white"/>
<path d="M29.3333 25.2087C26.8056 25.2087 24.75 23.153 24.75 20.6253C24.75 18.0976 26.8056 16.042 29.3333 16.042C31.861 16.042 33.9167 18.0976 33.9167 20.6253C33.9167 23.153 31.861 25.2087 29.3333 25.2087ZM29.3333 18.3337C28.0683 18.3337 27.0417 19.3626 27.0417 20.6253C27.0417 21.888 28.0683 22.917 29.3333 22.917C30.5983 22.917 31.625 21.888 31.625 20.6253C31.625 19.3626 30.5983 18.3337 29.3333 18.3337Z" fill="white"/>
<path d="M19.0204 41.2498C18.7271 41.2498 18.4338 41.1375 18.2092 40.9152C17.7623 40.4683 17.7623 39.7418 18.2092 39.295L24.6029 32.9012C25.9 31.6041 28.1802 31.6041 29.4773 32.9012L32.7704 36.192L44.0844 24.8781C45.3769 23.581 47.664 23.581 48.9588 24.8781L58.79 34.7093C59.2369 35.1562 59.2369 35.8827 58.79 36.3295C58.3431 36.7764 57.6167 36.7764 57.1698 36.3295L47.3386 26.4983C46.9054 26.0675 46.14 26.0675 45.7046 26.4983L33.5817 38.6212C33.1348 39.0681 32.4083 39.0681 31.9615 38.6212L27.8594 34.5191C27.4286 34.0883 26.6563 34.0883 26.2254 34.5191L19.8317 40.9129C19.6071 41.1375 19.3138 41.2498 19.0204 41.2498Z" fill="white"/>
</g>
<defs>
<clipPath id="clip0_232_8818">
<rect width="55" height="55" fill="white" transform="translate(11)"/>
</clipPath>
</defs>
</svg>
