<svg width="35" height="35" viewBox="0 0 35 35" fill="none" xmlns="http://www.w3.org/2000/svg">
<path d="M30.2273 0H4.77273C2.13682 0 0 2.13682 0 4.77273V30.2273C0 32.8632 2.13682 35 4.77273 35H30.2273C32.8632 35 35 32.8632 35 30.2273V4.77273C35 2.13682 32.8632 0 30.2273 0Z" fill="#1C8ADB"/>
<path d="M27.0339 9.04823L26.672 9.17948L7.02823 16.257C6.88903 16.3001 6.76804 16.3881 6.68423 16.5073C6.60042 16.6265 6.55853 16.7701 6.56513 16.9157C6.57172 17.0612 6.62643 17.2005 6.72068 17.3116C6.81492 17.4228 6.94337 17.4995 7.0859 17.5298L12.1708 18.9218L13.1194 21.7059L14.068 24.49C14.1225 24.6265 14.2095 24.7476 14.3214 24.8428C14.4333 24.938 14.5668 25.0045 14.7102 25.0365C14.8537 25.0684 15.0028 25.0648 15.1445 25.0261C15.2863 24.9873 15.4164 24.9146 15.5237 24.8141L18.1507 22.3323L23.3092 25.8303C23.9396 26.2599 24.8385 25.9417 24.9995 25.2337L28.416 10.138C28.5831 9.39027 27.7956 8.77578 27.0339 9.04823ZM24.5262 12.3991L15.651 19.6536L15.2333 19.9957C15.1416 20.0684 15.0817 20.1739 15.0663 20.29L14.9728 21.0616L14.7163 23.2292C14.7184 23.2556 14.71 23.2817 14.6928 23.3018C14.6756 23.322 14.6512 23.3345 14.6248 23.3366C14.5984 23.3387 14.5723 23.3302 14.5522 23.3131C14.532 23.2959 14.5195 23.2715 14.5174 23.2451L13.7956 21.0795L13.0498 18.8621C13.0183 18.7625 13.0225 18.6549 13.0617 18.558C13.1009 18.4611 13.1726 18.3809 13.2646 18.3312L22.4998 13.0374L24.2379 12.0431C24.4904 11.896 24.749 12.2161 24.5262 12.3991Z" fill="white"/>
</svg>
