<svg width="35" height="35" viewBox="0 0 35 35" fill="none" xmlns="http://www.w3.org/2000/svg">
<path d="M30.2273 0H4.77273C2.13682 0 0 2.13682 0 4.77273V30.2273C0 32.8632 2.13682 35 4.77273 35H30.2273C32.8632 35 35 32.8632 35 30.2273V4.77273C35 2.13682 32.8632 0 30.2273 0Z" fill="#50ABF1"/>
<path d="M28.3957 10.8797C27.8766 11.6553 27.2445 12.349 26.5205 12.938C26.4265 13.0127 26.3508 13.1076 26.2988 13.2158C26.2468 13.3239 26.2199 13.4424 26.2202 13.5624V13.636C26.2119 15.1988 25.925 16.7477 25.373 18.2098C24.8044 19.7424 23.9599 21.1578 22.8813 22.386C21.4383 24.0309 19.5797 25.2576 17.5 25.9377C16.1296 26.3824 14.697 26.6053 13.2563 26.5979C10.9746 26.5955 8.73405 25.9905 6.76137 24.8439C6.69073 24.8038 6.63519 24.7416 6.60323 24.6669C6.57126 24.5922 6.56464 24.5091 6.58438 24.4303C6.60438 24.3524 6.64992 24.2834 6.71372 24.2344C6.77752 24.1853 6.85591 24.1591 6.93637 24.1598H7.48125C9.21554 24.1596 10.9101 23.6409 12.3474 22.6704C11.4907 22.5303 10.689 22.1571 10.0302 21.5917C9.37146 21.0262 8.88107 20.2903 8.61279 19.4647C8.59963 19.424 8.59728 19.3805 8.60598 19.3387C8.61468 19.2968 8.63413 19.2579 8.66241 19.2258C8.6907 19.1937 8.72685 19.1695 8.76731 19.1556C8.80777 19.1417 8.85115 19.1386 8.89319 19.1465C9.15541 19.1964 9.42172 19.2217 9.68864 19.2221H9.78807C8.95763 18.8405 8.25555 18.2265 7.76674 17.4543C7.27794 16.6821 7.02337 15.7848 7.03381 14.8709C7.03438 14.8281 7.04602 14.7861 7.06762 14.749C7.08921 14.712 7.12002 14.6812 7.15705 14.6595C7.19407 14.6379 7.23606 14.6263 7.27893 14.6257C7.3218 14.6251 7.3641 14.6356 7.40171 14.6562C7.73865 14.8443 8.10004 14.9848 8.47557 15.0738C7.73193 14.3386 7.2533 13.3774 7.11474 12.3409C6.97618 11.3044 7.18553 10.2512 7.70995 9.3465C7.73007 9.31316 7.75779 9.28505 7.79086 9.26449C7.82393 9.24393 7.86139 9.23149 7.90019 9.22819C7.93899 9.22489 7.97802 9.23083 8.01408 9.24552C8.05015 9.2602 8.08222 9.28322 8.10768 9.31269C9.1492 10.6002 10.4388 11.6653 11.8998 12.4449C13.3609 13.2244 14.9637 13.7025 16.6131 13.8508H16.631C16.6554 13.85 16.6794 13.8443 16.7016 13.834C16.7238 13.8238 16.7438 13.8092 16.7602 13.7911C16.7761 13.773 16.788 13.7518 16.7951 13.7289C16.8023 13.7059 16.8047 13.6817 16.802 13.6579C16.7404 13.0803 16.7781 12.4965 16.9134 11.9317C17.0319 11.4373 17.2336 10.9665 17.5099 10.5397C18.0898 9.62893 18.9732 8.95267 20.0037 8.63059C20.4871 8.47903 20.9906 8.40126 21.4972 8.3999C22.646 8.39877 23.7556 8.81745 24.6173 9.57718C24.7271 9.67475 24.8682 9.72978 25.0151 9.73229C25.0634 9.73149 25.1115 9.72481 25.1582 9.7124C25.9684 9.50745 26.7446 9.18663 27.4631 8.75985C27.5063 8.73486 27.5561 8.72349 27.6059 8.7272C27.6557 8.73091 27.7032 8.74955 27.7423 8.78067C27.7814 8.81179 27.8102 8.85396 27.8249 8.90168C27.8397 8.9494 27.8397 9.00046 27.825 9.0482C27.5839 9.80086 27.1572 10.4807 26.5841 11.0249C27.101 10.9014 27.6056 10.731 28.0915 10.5158C28.1405 10.494 28.1952 10.4887 28.2475 10.5008C28.2997 10.5129 28.3466 10.5417 28.381 10.5829C28.4154 10.624 28.4355 10.6753 28.4381 10.7288C28.4408 10.7824 28.4259 10.8354 28.3957 10.8797Z" fill="white"/>
</svg>
