<svg width="24" height="25" viewBox="0 0 24 25" fill="none" xmlns="http://www.w3.org/2000/svg">
<g clip-path="url(#clip0_549_16655)">
<path d="M12.0003 6.50016C12.0003 6.86835 11.7018 7.16683 11.3337 7.16683C10.9655 7.16683 10.667 6.86835 10.667 6.50016C10.667 6.13198 10.9655 5.8335 11.3337 5.8335C11.7018 5.8335 12.0003 6.13198 12.0003 6.50016Z" fill="#FECB25"/>
<path d="M11.3843 19.1668C11.0446 19.1668 10.7689 18.8532 10.7689 18.4668V11.2335H9.9484C9.6087 11.2335 9.33301 10.9199 9.33301 10.5335C9.33301 10.1471 9.6087 9.8335 9.9484 9.8335H11.3843C11.724 9.8335 11.9997 10.1471 11.9997 10.5335V18.4668C11.9997 18.8532 11.724 19.1668 11.3843 19.1668Z" fill="#FECB25"/>
<path d="M12 24.5C5.38293 24.5 0 19.1171 0 12.5C0 5.88293 5.38293 0.5 12 0.5C18.6171 0.5 24 5.88293 24 12.5C24 19.1171 18.6171 24.5 12 24.5ZM12 2C6.21002 2 1.5 6.71002 1.5 12.5C1.5 18.29 6.21002 23 12 23C17.79 23 22.5 18.29 22.5 12.5C22.5 6.71002 17.79 2 12 2Z" fill="#FECB25"/>
<path d="M15.1663 19.1668H10.1663C9.70634 19.1668 9.33301 18.8682 9.33301 18.5002C9.33301 18.1322 9.70634 17.8335 10.1663 17.8335H15.1663C15.6263 17.8335 15.9997 18.1322 15.9997 18.5002C15.9997 18.8682 15.6263 19.1668 15.1663 19.1668Z" fill="#FECB25"/>
</g>
<defs>
<clipPath id="clip0_549_16655">
<rect width="24" height="24" fill="white" transform="translate(0 0.5)"/>
</clipPath>
</defs>
</svg>
