<svg width="35" height="35" viewBox="0 0 35 35" fill="none" xmlns="http://www.w3.org/2000/svg">
<path d="M30.2273 0H4.77273C2.13682 0 0 2.13682 0 4.77273V30.2273C0 32.8632 2.13682 35 4.77273 35H30.2273C32.8632 35 35 32.8632 35 30.2273V4.77273C35 2.13682 32.8632 0 30.2273 0Z" fill="#29A71A"/>
<path d="M25.2159 9.78406C23.3951 7.94517 20.9772 6.81743 18.3982 6.60428C15.8192 6.39112 13.249 7.10657 11.1511 8.62159C9.05312 10.1366 7.56563 12.3514 6.95689 14.8666C6.34815 17.3818 6.65823 20.0317 7.8312 22.3383L6.67978 27.9284C6.66783 27.984 6.6675 28.0415 6.67879 28.0973C6.69008 28.1531 6.71276 28.2059 6.74541 28.2525C6.79323 28.3233 6.8615 28.3777 6.9411 28.4086C7.02069 28.4396 7.10783 28.4455 7.19086 28.4255L12.6696 27.127C14.9697 28.2702 17.6009 28.5604 20.095 27.9458C22.589 27.3311 24.7841 25.8516 26.2896 23.7705C27.7952 21.6893 28.5136 19.1415 28.317 16.5804C28.1203 14.0193 27.0215 11.611 25.2159 9.78406ZM23.5076 23.4182C22.2479 24.6744 20.6257 25.5036 18.8697 25.789C17.1136 26.0744 15.3123 25.8016 13.7196 25.0091L12.9559 24.6312L9.59711 25.4267L9.60705 25.3849L10.3031 22.0042L9.92921 21.2664C9.11538 19.6681 8.82829 17.8532 9.10907 16.0818C9.38985 14.3103 10.2241 12.6731 11.4923 11.4048C13.0858 9.81179 15.2467 8.91689 17.5 8.91689C19.7532 8.91689 21.9141 9.81179 23.5076 11.4048C23.5212 11.4204 23.5358 11.435 23.5514 11.4486C25.1251 13.0457 26.0037 15.2002 25.9955 17.4424C25.9873 19.6846 25.093 21.8326 23.5076 23.4182Z" fill="white"/>
<path d="M23.2097 20.9382C22.798 21.5865 22.1477 22.38 21.3304 22.5769C19.8986 22.9229 17.7012 22.5888 14.9668 20.0394L14.933 20.0096C12.5287 17.7803 11.9043 15.9249 12.0554 14.4533C12.1389 13.6181 12.835 12.8624 13.4216 12.3692C13.5144 12.29 13.6243 12.2337 13.7428 12.2046C13.8612 12.1756 13.9848 12.1746 14.1036 12.2019C14.2225 12.2291 14.3333 12.2838 14.4272 12.3616C14.5212 12.4393 14.5956 12.5379 14.6446 12.6496L15.5296 14.6382C15.5871 14.7672 15.6084 14.9093 15.5912 15.0495C15.574 15.1896 15.519 15.3224 15.4321 15.4337L14.9847 16.0144C14.8887 16.1343 14.8307 16.2802 14.8183 16.4333C14.8059 16.5864 14.8396 16.7397 14.9151 16.8735C15.1656 17.313 15.7662 17.9593 16.4324 18.5578C17.1801 19.234 18.0094 19.8524 18.5344 20.0632C18.6749 20.1206 18.8293 20.1346 18.9778 20.1034C19.1263 20.0723 19.2621 19.9973 19.3676 19.8882L19.8867 19.3652C19.9868 19.2665 20.1114 19.196 20.2476 19.1611C20.3838 19.1262 20.5269 19.128 20.6622 19.1664L22.7642 19.763C22.8802 19.7985 22.9865 19.8601 23.0749 19.9431C23.1634 20.026 23.2318 20.1281 23.2748 20.2415C23.3177 20.3549 23.3342 20.4767 23.3229 20.5974C23.3117 20.7182 23.2729 20.8348 23.2097 20.9382Z" fill="white"/>
</svg>
