<svg width="18" height="19" viewBox="0 0 18 19" fill="none" xmlns="http://www.w3.org/2000/svg">
<path d="M17.8903 17.8594L12.4139 12.3829C13.5508 11.1199 14.2498 9.45495 14.2498 7.62494C14.2498 3.69648 11.0534 0.5 7.12491 0.5C3.19645 0.5 0 3.69648 0 7.62494C0 11.5534 3.19648 14.7499 7.12494 14.7499C8.95491 14.7499 10.6199 14.0509 11.8829 12.9132L17.3594 18.3896C17.4329 18.4631 17.5288 18.4999 17.6249 18.4999C17.7209 18.4999 17.8168 18.4631 17.8903 18.3904C18.0366 18.2434 18.0366 18.0063 17.8903 17.8594ZM7.12494 13.9999C3.60974 13.9999 0.750016 11.1402 0.750016 7.62498C0.750016 4.10977 3.6097 1.25002 7.12494 1.25002C10.6402 1.25002 13.4999 4.10974 13.4999 7.62494C13.4999 11.1401 10.6401 13.9999 7.12494 13.9999Z" fill="#092F33"/>
</svg>
