<svg width="26" height="26" viewBox="0 0 17 18" fill="none" xmlns="http://www.w3.org/2000/svg">
<path d="M8.50008 0.666626C10.7642 0.666626 11.0468 0.674959 11.9351 0.716626C12.8226 0.758293 13.4268 0.897459 13.9584 1.10413C14.5084 1.31579 14.9718 1.60246 15.4351 2.06496C15.8588 2.48154 16.1867 2.98545 16.3959 3.54163C16.6018 4.07246 16.7418 4.67746 16.7834 5.56496C16.8226 6.45329 16.8334 6.73579 16.8334 8.99996C16.8334 11.2641 16.8251 11.5466 16.7834 12.435C16.7418 13.3225 16.6018 13.9266 16.3959 14.4583C16.1873 15.0148 15.8594 15.5188 15.4351 15.935C15.0184 16.3586 14.5145 16.6864 13.9584 16.8958C13.4276 17.1016 12.8226 17.2416 11.9351 17.2833C11.0468 17.3225 10.7642 17.3333 8.50008 17.3333C6.23592 17.3333 5.95342 17.325 5.06508 17.2833C4.17758 17.2416 3.57342 17.1016 3.04175 16.8958C2.48535 16.687 1.98135 16.3591 1.56508 15.935C1.14125 15.5185 0.813358 15.0145 0.604248 14.4583C0.397582 13.9275 0.258415 13.3225 0.216748 12.435C0.177581 11.5466 0.166748 11.2641 0.166748 8.99996C0.166748 6.73579 0.175081 6.45329 0.216748 5.56496C0.258415 4.67663 0.397582 4.07329 0.604248 3.54163C0.812778 2.98511 1.14075 2.48106 1.56508 2.06496C1.98147 1.64099 2.48544 1.31307 3.04175 1.10413C3.57342 0.897459 4.17675 0.758293 5.06508 0.716626C5.95342 0.677459 6.23592 0.666626 8.50008 0.666626ZM8.50008 4.83329C7.39501 4.83329 6.33521 5.27228 5.5538 6.05368C4.7724 6.83508 4.33342 7.89489 4.33342 8.99996C4.33342 10.105 4.7724 11.1648 5.5538 11.9462C6.33521 12.7276 7.39501 13.1666 8.50008 13.1666C9.60515 13.1666 10.665 12.7276 11.4464 11.9462C12.2278 11.1648 12.6668 10.105 12.6667 8.99996C12.6668 7.89489 12.2278 6.83508 11.4464 6.05368C10.665 5.27228 9.60515 4.83329 8.50008 4.83329ZM13.9168 4.62496C13.9168 4.34869 13.807 4.08374 13.6117 3.88839C13.4163 3.69304 13.1514 3.58329 12.8751 3.58329C12.5988 3.58329 12.3339 3.69304 12.1385 3.88839C11.9432 4.08374 11.8334 4.34869 11.8334 4.62496C11.8334 4.90123 11.9432 5.16618 12.1385 5.36153C12.3339 5.55688 12.5988 5.66663 12.8751 5.66663C13.1514 5.66663 13.4163 5.55688 13.6117 5.36153C13.807 5.16618 13.9168 4.90123 13.9168 4.62496ZM8.50008 6.49996C9.16312 6.49996 9.79901 6.76335 10.2679 7.23219C10.7367 7.70104 11.0001 8.33692 11.0001 8.99996C11.0001 9.663 10.7367 10.2989 10.2679 10.7677C9.79901 11.2366 9.16312 11.5 8.50008 11.5C7.83704 11.5 7.20116 11.2366 6.73232 10.7677C6.26347 10.2989 6.00008 9.663 6.00008 8.99996C6.00008 8.33692 6.26347 7.70104 6.73232 7.23219C7.20116 6.76335 7.83704 6.49996 8.50008 6.49996Z" fill="#092F33"/>
</svg>
