<svg width="28" height="29" viewBox="0 0 28 29" fill="none" xmlns="http://www.w3.org/2000/svg">
<path d="M14.0517 3C9.0597 3 5 7.0597 5 12.0517C5 18.3261 13.1707 26.5692 13.5177 26.9177C13.6655 27.064 13.8586 27.1379 14.0517 27.1379C14.2448 27.1379 14.4379 27.064 14.5858 26.9177C14.9328 26.5692 23.1034 18.3261 23.1034 12.0517C23.1034 7.0597 19.0437 3 14.0517 3ZM14.0517 25.2929C12.2504 23.3649 6.50862 16.8446 6.50862 12.0517C6.50862 7.89246 9.89246 4.50862 14.0517 4.50862C18.211 4.50862 21.5948 7.89246 21.5948 12.0517C21.5948 16.8401 15.853 23.3649 14.0517 25.2929Z" fill="#FECB25"/>
<path d="M14.0517 7.52588C11.5565 7.52588 9.52588 9.55648 9.52588 12.0517C9.52588 14.547 11.5565 16.5776 14.0517 16.5776C16.547 16.5776 18.5776 14.547 18.5776 12.0517C18.5776 9.55648 16.547 7.52588 14.0517 7.52588ZM14.0517 15.069C12.3877 15.069 11.0345 13.7158 11.0345 12.0517C11.0345 10.3877 12.3877 9.0345 14.0517 9.0345C15.7157 9.0345 17.069 10.3877 17.069 12.0517C17.069 13.7158 15.7157 15.069 14.0517 15.069Z" fill="#FECB25"/>
</svg>
