<svg width="106" height="100" viewBox="0 0 106 100" fill="none" xmlns="http://www.w3.org/2000/svg">
<path d="M44.6033 99.4926C69.237 99.4926 89.2066 95.7613 89.2066 91.1584C89.2066 86.5556 69.237 82.8242 44.6033 82.8242C19.9696 82.8242 0 86.5556 0 91.1584C0 95.7613 19.9696 99.4926 44.6033 99.4926Z" fill="#F5F5F7" fill-opacity="0.8"/>
<path fill-rule="evenodd" clip-rule="evenodd" d="M80.2854 66.6744L64.5452 47.3027C63.79 46.3908 62.686 45.8389 61.5235 45.8389H27.6814C26.5196 45.8389 25.4156 46.3908 24.6604 47.3027L8.9209 66.6744V76.7948H80.286V66.6744H80.2854Z" fill="#AEB8C2"/>
<path fill-rule="evenodd" clip-rule="evenodd" d="M22.2566 20.8359H66.9493C67.6473 20.8359 68.3166 21.1132 68.8102 21.6067C69.3037 22.1002 69.5809 22.7696 69.5809 23.4675V84.878C69.5809 85.576 69.3037 86.2453 68.8102 86.7388C68.3166 87.2324 67.6473 87.5096 66.9493 87.5096H22.2566C21.5586 87.5096 20.8893 87.2324 20.3958 86.7388C19.9023 86.2453 19.625 85.576 19.625 84.878V23.4675C19.625 22.7696 19.9023 22.1002 20.3958 21.6067C20.8893 21.1132 21.5586 20.8359 22.2566 20.8359V20.8359Z" fill="#F5F5F7"/>
<path fill-rule="evenodd" clip-rule="evenodd" d="M28.0772 27.3838H61.1278C61.4768 27.3838 61.8115 27.5224 62.0582 27.7692C62.305 28.0159 62.4436 28.3506 62.4436 28.6996V45.1187C62.4436 45.4676 62.305 45.8023 62.0582 46.0491C61.8115 46.2958 61.4768 46.4344 61.1278 46.4344H28.0772C27.7282 46.4344 27.3935 46.2958 27.1468 46.0491C26.9 45.8023 26.7614 45.4676 26.7614 45.1187V28.6996C26.7614 28.3506 26.9 28.0159 27.1468 27.7692C27.3935 27.5224 27.7282 27.3838 28.0772 27.3838ZM28.2495 53.5772H60.9555C61.3501 53.5772 61.7287 53.734 62.0077 54.0131C62.2868 54.2922 62.4436 54.6707 62.4436 55.0654C62.4436 55.4601 62.2868 55.8386 62.0077 56.1177C61.7287 56.3967 61.3501 56.5535 60.9555 56.5535H28.2495C27.8548 56.5535 27.4763 56.3967 27.1972 56.1177C26.9182 55.8386 26.7614 55.4601 26.7614 55.0654C26.7614 54.6707 26.9182 54.2922 27.1972 54.0131C27.4763 53.734 27.8548 53.5772 28.2495 53.5772ZM28.2495 61.316H60.9555C61.3502 61.316 61.7288 61.4729 62.008 61.752C62.2871 62.0311 62.4439 62.4097 62.4439 62.8045C62.4439 63.1993 62.2871 63.5779 62.008 63.857C61.7288 64.1362 61.3502 64.293 60.9555 64.293H28.2495C27.8548 64.293 27.4762 64.1362 27.197 63.857C26.9179 63.5779 26.761 63.1993 26.761 62.8045C26.761 62.4097 26.9179 62.0311 27.197 61.752C27.4762 61.4729 27.8548 61.316 28.2495 61.316ZM80.1397 89.9358C79.6298 91.9562 77.839 93.4621 75.7087 93.4621H13.4962C11.366 93.4621 9.57519 91.9555 9.06597 89.9358C8.96886 89.5508 8.9198 89.1552 8.91992 88.7581V66.6746H26.2344C28.1469 66.6746 29.6883 68.2851 29.6883 70.2404V70.2667C29.6883 72.2213 31.2476 73.7996 33.1601 73.7996H56.0449C57.9574 73.7996 59.5166 72.2068 59.5166 70.2515V70.2437C59.5166 68.2884 61.0581 66.6739 62.9706 66.6739H80.2851V88.7588C80.2851 89.1647 80.2344 89.5588 80.1397 89.9358Z" fill="#DCE0E6"/>
<path fill-rule="evenodd" clip-rule="evenodd" d="M82.3162 21.9026L77.8227 23.6461C77.7073 23.6909 77.5815 23.7023 77.4599 23.6789C77.3383 23.6555 77.2258 23.5982 77.1352 23.5137C77.0447 23.4292 76.9799 23.3208 76.9483 23.2011C76.9166 23.0813 76.9194 22.9551 76.9563 22.8368L78.2306 18.7533C76.5273 16.8164 75.5273 14.4546 75.5273 11.9059C75.5273 5.33026 82.1839 0 90.3958 0C98.6056 0 105.263 5.33026 105.263 11.9059C105.263 18.4816 98.6063 23.8118 90.3951 23.8118C87.4162 23.8118 84.6425 23.1105 82.3162 21.9026Z" fill="#DCE0E6"/>
<path d="M96.2523 14.0555C97.2874 14.0555 98.1266 13.2264 98.1266 12.2035C98.1266 11.1807 97.2874 10.3516 96.2523 10.3516C95.2171 10.3516 94.3779 11.1807 94.3779 12.2035C94.3779 13.2264 95.2171 14.0555 96.2523 14.0555Z" fill="white"/>
<path fill-rule="evenodd" clip-rule="evenodd" d="M86.4127 13.8238H82.6641L84.5706 10.583L86.4127 13.8238ZM88.7555 10.583H92.0351V13.8238H88.7555V10.583Z" fill="white"/>
</svg>
