<svg width="49" height="31" viewBox="0 0 49 31" fill="none" xmlns="http://www.w3.org/2000/svg">
<g clip-path="url(#clip0_3448_17820)">
<path d="M19.375 26.9492H10.5625C10.2175 26.9492 9.9375 26.6692 9.9375 26.3242C9.9375 25.9792 10.2175 25.6992 10.5625 25.6992H18.75V8.82422C18.75 8.47922 18.4687 8.19922 18.125 8.19922H1.875C1.53125 8.19922 1.25 8.47922 1.25 8.82422V25.0742C1.25 25.4192 1.53125 25.6992 1.875 25.6992H4.4375C4.7825 25.6992 5.0625 25.9792 5.0625 26.3242C5.0625 26.6692 4.7825 26.9492 4.4375 26.9492H1.875C0.84125 26.9492 0 26.108 0 25.0742V8.82422C0 7.79047 0.84125 6.94922 1.875 6.94922H18.125C19.1587 6.94922 20 7.79047 20 8.82422V26.3242C20 26.6692 19.72 26.9492 19.375 26.9492Z" fill="#092F33"/>
<path d="M23.4375 30.6992C21.37 30.6992 19.6875 29.0167 19.6875 26.9492C19.6875 24.8817 21.37 23.1992 23.4375 23.1992C25.505 23.1992 27.1875 24.8817 27.1875 26.9492C27.1875 29.0167 25.505 30.6992 23.4375 30.6992ZM23.4375 24.4492C22.0587 24.4492 20.9375 25.5705 20.9375 26.9492C20.9375 28.328 22.0587 29.4492 23.4375 29.4492C24.8162 29.4492 25.9375 28.328 25.9375 26.9492C25.9375 25.5705 24.8162 24.4492 23.4375 24.4492Z" fill="#092F33"/>
<path d="M7.5 30.6992C5.4325 30.6992 3.75 29.0167 3.75 26.9492C3.75 24.8817 5.4325 23.1992 7.5 23.1992C9.56749 23.1992 11.25 24.8817 11.25 26.9492C11.25 29.0167 9.56749 30.6992 7.5 30.6992ZM7.5 24.4492C6.12125 24.4492 5 25.5705 5 26.9492C5 28.328 6.12125 29.4492 7.5 29.4492C8.87875 29.4492 9.99999 28.328 9.99999 26.9492C9.99999 25.5705 8.87875 24.4492 7.5 24.4492Z" fill="#092F33"/>
<path d="M4.37501 16.9493C4.24501 16.9493 4.11251 16.9081 4.00001 16.8243C3.72376 16.6168 3.66751 16.2256 3.87376 15.9493L7.62376 10.9493C7.83376 10.6718 8.22501 10.618 8.49876 10.8243C8.77626 11.0318 8.83126 11.423 8.62501 11.6993L4.87501 16.6993C4.75251 16.8631 4.56376 16.9493 4.37501 16.9493Z" fill="#092F33"/>
<path d="M11.875 20.6989C11.745 20.6989 11.6125 20.6577 11.5 20.5739C11.2238 20.3664 11.1675 19.9752 11.3738 19.6989L15.1238 14.6989C15.3325 14.4227 15.7238 14.3677 15.9988 14.5739C16.275 14.7814 16.3313 15.1727 16.125 15.4489L12.375 20.4489C12.2525 20.6127 12.0638 20.6989 11.875 20.6989Z" fill="#092F33"/>
<path d="M6.87515 20.6985C6.7489 20.6985 6.62265 20.661 6.5114 20.5822C6.23015 20.3822 6.1664 19.991 6.3664 19.711L12.6164 10.961C12.8164 10.6785 13.2077 10.616 13.4889 10.816C13.7702 11.016 13.8339 11.4072 13.6339 11.6872L7.3839 20.4372C7.26265 20.6072 7.0689 20.6985 6.87515 20.6985Z" fill="#092F33"/>
<path d="M28.125 26.9492H26.5C26.155 26.9492 25.875 26.6692 25.875 26.3242C25.875 25.9792 26.155 25.6992 26.5 25.6992H28.125C28.4688 25.6992 28.75 25.4192 28.75 25.0742V20.468C28.75 20.3392 28.7113 20.2142 28.6363 20.108L24.8612 14.7155C24.745 14.5492 24.5538 14.4492 24.3488 14.4492H20.625C20.2812 14.4492 20 14.7292 20 15.0742V25.6992H20.375C20.72 25.6992 21 25.9792 21 26.3242C21 26.6692 20.72 26.9492 20.375 26.9492H19.375C19.03 26.9492 18.75 26.6692 18.75 26.3242V15.0742C18.75 14.0405 19.5912 13.1992 20.625 13.1992H24.3488C24.9588 13.1992 25.5338 13.498 25.885 13.9992L29.6613 19.393C29.8825 19.7105 30 20.083 30 20.468V25.0742C30 26.108 29.1587 26.9492 28.125 26.9492Z" fill="#092F33"/>
</g>
<defs>
<clipPath id="clip0_3448_17820">
<rect width="30" height="30" fill="white" transform="translate(0 0.699219)"/>
</clipPath>
</defs>
</svg>
