<svg width="55" height="55" viewBox="0 0 55 55" fill="none" xmlns="http://www.w3.org/2000/svg">
<g clip-path="url(#clip0_232_8820)">
<path d="M46.9792 55C46.3467 55 45.8333 54.4867 45.8333 53.8542V12.6042C45.8333 10.709 44.291 9.16667 42.3958 9.16667H1.14583C0.513333 9.16667 0 8.65333 0 8.02083C0 7.38833 0.513333 6.875 1.14583 6.875H42.3958C45.556 6.875 48.125 9.44625 48.125 12.6042V53.8542C48.125 54.4867 47.6117 55 46.9792 55Z" fill="white"/>
<path d="M53.8542 48.125H12.6042C9.44396 48.125 6.875 45.556 6.875 42.3958V1.14583C6.875 0.513333 7.38833 0 8.02083 0C8.65333 0 9.16667 0.513333 9.16667 1.14583V42.3958C9.16667 44.291 10.709 45.8333 12.6042 45.8333H53.8542C54.4867 45.8333 55 46.3467 55 46.9792C55 47.6117 54.4867 48.125 53.8542 48.125Z" fill="white"/>
<path d="M18.3333 25.2087C15.8056 25.2087 13.75 23.153 13.75 20.6253C13.75 18.0976 15.8056 16.042 18.3333 16.042C20.861 16.042 22.9167 18.0976 22.9167 20.6253C22.9167 23.153 20.861 25.2087 18.3333 25.2087ZM18.3333 18.3337C17.0683 18.3337 16.0417 19.3626 16.0417 20.6253C16.0417 21.888 17.0683 22.917 18.3333 22.917C19.5983 22.917 20.625 21.888 20.625 20.6253C20.625 19.3626 19.5983 18.3337 18.3333 18.3337Z" fill="white"/>
<path d="M8.02043 41.2497C7.7271 41.2497 7.43376 41.1375 7.20918 40.9152C6.7623 40.4683 6.7623 39.7418 7.20918 39.295L13.6029 32.9012C14.9 31.6041 17.1802 31.6041 18.4773 32.9012L21.7704 36.192L33.0844 24.8781C34.3769 23.581 36.664 23.581 37.9588 24.8781L47.79 34.7093C48.2369 35.1562 48.2369 35.8827 47.79 36.3295C47.3431 36.7764 46.6167 36.7764 46.1698 36.3295L36.3386 26.4983C35.9054 26.0675 35.14 26.0675 34.7046 26.4983L22.5817 38.6212C22.1348 39.0681 21.4083 39.0681 20.9615 38.6212L16.8594 34.5191C16.4286 34.0883 15.6563 34.0883 15.2254 34.5191L8.83168 40.9129C8.6071 41.1375 8.31376 41.2497 8.02043 41.2497V41.2497Z" fill="white"/>
</g>
<defs>
<clipPath id="clip0_232_8820">
<rect width="55" height="55" fill="white"/>
</clipPath>
</defs>
</svg>
