<svg width="28" height="29" viewBox="0 0 28 29" fill="none" xmlns="http://www.w3.org/2000/svg">
<path d="M14.0517 3C9.0597 3 5 7.0597 5 12.0517C5 18.3261 13.1707 26.5692 13.5177 26.9177C13.6655 27.064 13.8586 27.1379 14.0517 27.1379C14.2448 27.1379 14.4379 27.064 14.5858 26.9177C14.9328 26.5692 23.1034 18.3261 23.1034 12.0517C23.1034 7.0597 19.0437 3 14.0517 3ZM14.0517 25.2929C12.2504 23.3649 6.50862 16.8446 6.50862 12.0517C6.50862 7.89246 9.89246 4.50862 14.0517 4.50862C18.211 4.50862 21.5948 7.89246 21.5948 12.0517C21.5948 16.8401 15.853 23.3649 14.0517 25.2929Z" fill="#FECB25"/>
<path d="M14.0513 7.52539C11.556 7.52539 9.52539 9.55599 9.52539 12.0513C9.52539 14.5465 11.556 16.5771 14.0513 16.5771C16.5465 16.5771 18.5771 14.5465 18.5771 12.0513C18.5771 9.55599 16.5465 7.52539 14.0513 7.52539ZM14.0513 15.0685C12.3872 15.0685 11.034 13.7153 11.034 12.0513C11.034 10.3872 12.3872 9.03401 14.0513 9.03401C15.7153 9.03401 17.0685 10.3872 17.0685 12.0513C17.0685 13.7153 15.7153 15.0685 14.0513 15.0685Z" fill="#FECB25"/>
</svg>
