<svg width="28" height="28" viewBox="0 0 28 28" fill="none" xmlns="http://www.w3.org/2000/svg">
<g clip-path="url(#clip0_899_23003)">
<path d="M14 5.6123C9.37494 5.6123 5.6123 9.37494 5.6123 14C5.6123 18.625 9.37522 22.3877 14 22.3877C18.6247 22.3877 22.3877 18.625 22.3877 14C22.3877 9.37494 18.625 5.6123 14 5.6123Z" fill="#00AFCA"/>
<path d="M14.0059 15.0819C15.2486 15.0819 16.256 14.0745 16.256 12.8319C16.256 11.5892 15.2486 10.5818 14.0059 10.5818C12.7633 10.5818 11.7559 11.5892 11.7559 12.8319C11.7559 14.0745 12.7633 15.0819 14.0059 15.0819Z" fill="#F5C546"/>
<path d="M14.0052 10.2748C14.1391 10.2732 14.1892 10.1894 14.1892 10.0892C14.1892 9.95535 14.0052 9.31836 14.0052 9.31836C14.0052 9.31836 13.8213 9.95563 13.8213 10.0892C13.8213 10.1897 13.8714 10.2748 14.0052 10.2748Z" fill="#F5C546"/>
<path d="M13.6035 17.7061C13.5433 17.7094 13.4847 17.7173 13.4273 17.7357C13.3487 17.7464 13.2736 17.7735 13.1955 17.7864L13.1644 17.7915L13.1121 17.7965C13.1154 17.8111 13.1177 17.8256 13.1177 17.8399C13.1177 17.855 13.116 17.8696 13.1121 17.8816C13.1087 17.8934 13.0981 17.9079 13.0897 17.9166C13.0785 17.9289 13.0667 17.9396 13.053 17.9463C13.0395 17.953 13.0244 17.9558 13.0096 17.9569C12.9945 17.9575 12.9791 17.9569 12.9645 17.9513C12.9494 17.9463 12.9354 17.9368 12.9228 17.9256C12.9071 17.9295 12.8911 17.9323 12.876 17.934C12.8603 17.9356 12.8458 17.9356 12.8321 17.934C12.8164 17.9295 12.8004 17.9244 12.7853 17.9183C12.7702 17.9121 12.7556 17.9043 12.7419 17.8953C12.6851 17.9286 12.6215 17.9606 12.5871 18.0191C12.5675 18.046 12.5635 18.0765 12.5591 18.1084C12.5563 18.1473 12.5663 18.1888 12.5831 18.2249C12.5893 18.2355 12.5943 18.1865 12.6134 18.1798C12.645 18.1535 12.6848 18.1347 12.7248 18.1241C12.7587 18.1067 12.7545 18.1252 12.7405 18.1521C12.7371 18.1661 12.7181 18.219 12.7439 18.1921C12.857 18.142 12.9824 18.1319 13.1045 18.1224C13.2817 18.1039 13.4595 18.1 13.6373 18.0978C13.8045 18.1 13.9719 18.1022 14.1391 18.1084C14.2189 18.1106 14.299 18.1286 14.3777 18.1151C14.3967 18.1101 14.4261 18.109 14.4373 18.0978C14.4017 18.077 14.3597 18.0765 14.3203 18.0714H14.0013C13.9126 18.0625 13.8202 18.0614 13.7365 18.028C13.7141 18.0191 13.6936 17.9978 13.6723 18.0208C13.6407 18.032 13.6065 18.0398 13.5732 18.042C13.5147 18.0465 13.4562 18.0342 13.4021 18.0124C13.4411 17.9583 13.4881 17.911 13.5309 17.8606C13.4965 17.855 13.4629 17.8477 13.4285 17.8393C13.4878 17.7982 13.5444 17.7509 13.6035 17.7061Z" fill="#F5C546"/>
<path d="M16.2077 18.284C16.0865 18.3568 15.9941 18.2277 15.8927 18.189C15.8205 18.2282 15.8137 18.3598 15.746 18.422C15.6651 18.5141 15.5659 18.3962 15.5735 18.3055C15.4769 18.387 15.4279 18.5718 15.2717 18.5471C15.1975 18.4867 15.1426 18.3598 15.086 18.5043C15.0398 18.5749 14.9169 18.6754 14.8533 18.5687C14.8337 18.4746 14.7864 18.3637 14.7352 18.5133C14.6999 18.6191 14.5871 18.6969 14.4779 18.6505C14.4182 18.6017 14.5257 18.4209 14.4496 18.4337C14.3359 18.5091 14.2698 18.6955 14.1111 18.6807C14.0495 18.6115 14.1486 18.4942 14.0808 18.4175C14.001 18.52 13.9125 18.6698 13.7745 18.6807C13.7079 18.6267 13.777 18.4715 13.7345 18.4486C13.5928 18.5334 13.4435 18.6849 13.2655 18.6376C13.3349 18.3722 13.625 18.2789 13.8686 18.2582C14.288 18.2067 14.7296 18.3013 15.1333 18.1501C15.1986 18.1103 15.3565 18.0541 15.3002 17.9619C15.2504 17.8891 15.4299 17.9177 15.4472 17.8329C15.4366 17.7253 15.5295 17.7402 15.6205 17.7307C16.0282 17.713 16.4309 17.799 16.8374 17.8135C16.8682 18.0115 16.6484 18.1507 16.4715 18.0894C16.3869 18.1031 16.2603 17.895 16.2853 18.0465C16.2682 18.126 16.2802 18.2308 16.2077 18.284ZM12.7393 17.8782C12.8337 17.9647 12.8998 17.862 12.988 17.8245C13.2839 17.7228 13.5421 17.5447 13.7963 17.3672C13.9506 17.2395 14.0842 17.0741 14.2914 17.0326C14.6954 16.9105 15.1247 16.9254 15.5304 16.8125C15.8392 16.3897 16.3637 16.2388 16.803 15.9961C16.9015 15.9655 16.9396 15.8843 16.9713 15.7945C17.139 15.5299 17.3675 15.2952 17.6377 15.1348C17.7656 15.0651 17.9179 15.0247 18.0627 15.0567C18.0523 15.2291 17.9535 15.3817 17.8339 15.501C17.9317 15.4988 18.0157 15.4372 18.1142 15.4405C18.1481 15.6175 17.9571 15.7099 17.8555 15.8202C17.9121 15.8334 18.1291 15.8499 18.0109 15.9065C17.8603 16.0109 17.6883 16.0829 17.5492 16.2041C17.6774 16.2271 17.692 16.2545 17.5615 16.3007C17.4909 16.3486 17.3551 16.3654 17.342 16.4586C17.4389 16.5183 17.2975 16.5773 17.2429 16.5967C17.1384 16.621 17.0289 16.6664 17.1675 16.7456C17.1152 16.8249 17.0026 16.8417 16.9108 16.8338C16.9388 16.9237 16.9791 17.0242 16.8623 17.0637C16.6011 17.2611 16.2945 17.405 15.9661 17.4378C16.3763 17.4694 16.7991 17.3933 17.1496 17.1701C17.1958 17.1155 17.4386 17.0564 17.3028 17.0105C17.2389 16.9839 17.1017 16.9545 17.0925 16.9055C17.2823 16.7885 17.5217 16.8299 17.7259 16.7605C17.7312 16.6944 17.5705 16.7129 17.5105 16.6977C17.3677 16.686 17.3761 16.6496 17.5139 16.6361C17.6881 16.5899 17.8855 16.581 18.0322 16.4673C17.9129 16.4121 17.7625 16.4606 17.6354 16.4155C17.8513 16.3211 18.1061 16.3116 18.2999 16.1697C18.3881 16.0714 18.1867 16.1022 18.1282 16.1044C18.0087 16.1251 17.9535 16.068 18.0893 16.0182C18.3211 15.8471 18.6149 15.7359 18.7778 15.4881C18.8165 15.4327 18.8685 15.2655 18.7456 15.3255C18.5838 15.3792 18.4413 15.5612 18.2567 15.5049C18.6202 15.2233 18.966 14.9027 19.2143 14.5126C19.2272 14.4001 19.0508 14.388 19.0049 14.4762C18.7714 14.7013 18.56 14.9668 18.2612 15.1079C18.5477 14.8315 18.7843 14.5042 18.9909 14.1651C19.0351 14.0643 19.1541 13.9428 19.0897 13.8311C18.9856 13.7449 18.8554 13.8238 18.8013 13.9269C18.6199 14.1637 18.4819 14.4404 18.2486 14.6333C18.453 14.2433 18.6644 13.828 18.6697 13.3783C18.6692 13.2857 18.6504 13.1493 18.5247 13.1667C18.425 13.1846 18.4485 13.3338 18.4077 13.4091C18.3172 13.7166 18.2747 14.0492 18.089 14.3183C18.1307 14.0685 18.2038 13.8081 18.1478 13.5561C18.1215 13.4433 17.9395 13.492 17.963 13.6035C17.7455 14.705 17.0065 15.6682 16.04 16.2254C15.5973 16.4757 15.1031 16.6373 14.6002 16.7103C14.465 16.74 14.3185 16.7227 14.1892 16.7686C13.8759 17.0088 13.6863 17.4109 13.2895 17.5366C13.1117 17.6251 12.8799 17.643 12.7528 17.8082C12.7413 17.8303 12.7388 17.855 12.7393 17.8782Z" fill="#F5C546"/>
<path d="M13.9268 16.7603C13.8682 16.8665 13.8338 16.9888 13.7585 17.084C13.532 16.8779 13.2038 16.8847 12.9165 16.8709C12.6794 16.8583 12.4215 16.8365 12.2381 16.6674C12.0452 16.5092 11.8875 16.3042 11.6719 16.1757C11.4751 16.1222 11.2768 16.0553 11.1184 15.9203C10.7801 15.6448 10.5866 15.2357 10.2562 14.9515C10.1932 14.8897 10.119 14.8415 10.0485 14.7889C9.98157 14.8051 10.0118 14.9499 9.92977 14.8762C9.88525 14.8446 9.77353 14.8415 9.76345 14.8857C9.86453 15.0187 9.96561 15.1708 9.97961 15.341C9.91073 15.348 9.78809 15.3265 9.75393 15.3522C9.84549 15.4894 9.96281 15.6109 10.0961 15.7078C10.0322 15.7182 9.90625 15.7126 9.88161 15.7383C10.0138 15.8461 10.1557 15.9562 10.3288 15.9839C10.3643 16.0307 10.277 16.1208 10.3503 16.1609C10.3929 16.1782 10.5334 16.2073 10.4366 16.2558C10.3702 16.3006 10.3948 16.4047 10.4797 16.4025C10.5334 16.4299 10.6538 16.4367 10.6634 16.484C10.6158 16.5324 10.4676 16.5898 10.5936 16.6352C10.7112 16.7004 10.8456 16.743 10.98 16.7475C10.9126 16.8043 10.8294 16.8365 10.76 16.8897C11.0702 17.0717 11.414 17.1913 11.754 17.3063C11.8892 17.3514 12.0261 17.3937 12.1664 17.4203C11.759 17.3968 11.365 17.2761 10.9938 17.1109C10.8014 17.0266 10.6076 16.9451 10.4105 16.8723C10.497 16.8273 10.597 16.8163 10.6866 16.7774C10.5004 16.7402 10.2971 16.7279 10.1336 16.6257C10.1588 16.5809 10.2537 16.5789 10.3064 16.5559C10.4052 16.5321 10.4665 16.5036 10.3271 16.4949C10.1865 16.4568 10.0252 16.4739 9.90149 16.3891C9.90933 16.3381 10.039 16.356 10.0919 16.3339C10.1582 16.3224 10.2322 16.3129 10.2854 16.2681C10.0681 16.1779 9.78389 16.2418 9.61365 16.05C9.57445 15.9769 9.73545 16.0357 9.78137 16.0237C9.89785 16.0237 10.0233 16.0606 10.1344 16.0136C9.81777 15.8747 9.47869 15.7445 9.23705 15.4872C9.21017 15.4457 9.12981 15.3329 9.19477 15.3189C9.38265 15.3438 9.51873 15.5488 9.71977 15.5169C9.74637 15.4807 9.60301 15.4219 9.56717 15.3704C9.27401 15.119 8.98953 14.846 8.78401 14.5164C8.77001 14.4064 8.94277 14.3899 8.98841 14.475C9.21269 14.6909 9.41513 14.9429 9.69429 15.0901C9.79341 15.1383 9.63745 15.0333 9.61673 14.9952C9.35885 14.6956 9.11301 14.3792 8.93297 14.0264C8.90077 13.9629 8.84729 13.8478 8.94389 13.8139C9.04049 13.7655 9.13625 13.8315 9.18525 13.9144C9.37481 14.1535 9.51453 14.438 9.75085 14.6374C9.54953 14.2468 9.33449 13.8355 9.32945 13.3861C9.33421 13.299 9.33981 13.1671 9.45797 13.1707C9.55709 13.1556 9.54141 13.2827 9.57417 13.3432C9.67189 13.6733 9.71445 14.0309 9.91073 14.3224C9.86733 14.0774 9.80377 13.8251 9.84605 13.5762C9.85585 13.4944 9.94797 13.4698 10.0079 13.5191C10.0563 13.6381 10.0667 13.7848 10.1109 13.9119C10.3626 14.7735 10.9282 15.5311 11.6652 16.0396C12.2722 16.456 12.9924 16.7043 13.7274 16.7477C13.7938 16.7542 13.8604 16.7561 13.9268 16.7603Z" fill="#F5C546"/>
<path d="M12.9936 17.9032C13.0154 17.9032 13.0331 17.8855 13.0331 17.8637C13.0331 17.8419 13.0154 17.8242 12.9936 17.8242C12.9718 17.8242 12.9541 17.8419 12.9541 17.8637C12.9541 17.8855 12.9718 17.9032 12.9936 17.9032Z" fill="#F5C546"/>
<path d="M12.9899 17.8735C12.9988 17.8735 13.0061 17.8663 13.0061 17.8573C13.0061 17.8483 12.9988 17.8411 12.9899 17.8411C12.9809 17.8411 12.9736 17.8483 12.9736 17.8573C12.9736 17.8663 12.9809 17.8735 12.9899 17.8735Z" fill="#F5C546"/>
<path d="M12.9899 17.885C12.9745 17.885 12.9619 17.8724 12.9619 17.8573C12.9619 17.8422 12.9745 17.8296 12.9899 17.8296C13.005 17.8296 13.0176 17.8422 13.0176 17.8573C13.0176 17.8724 13.005 17.885 12.9899 17.885ZM12.9899 17.8528C12.9874 17.8528 12.9854 17.8548 12.9854 17.8573C12.9854 17.8624 12.9944 17.8624 12.9944 17.8573C12.9941 17.8548 12.9924 17.8528 12.9899 17.8528Z" fill="#4BACC6"/>
</g>
<defs>
<clipPath id="clip0_899_23003">
<rect width="28" height="28" fill="white"/>
</clipPath>
</defs>
</svg>
