<svg width="28" height="28" viewBox="0 0 28 28" fill="none" xmlns="http://www.w3.org/2000/svg">
<path d="M14.0002 5.6123C10.4159 5.6123 7.35102 7.87274 6.15234 11.0423L14.0049 11.8823L21.8475 11.0423C20.6491 7.87302 17.5845 5.6123 14.0002 5.6123Z" fill="#F1F1F1"/>
<path d="M13.9999 22.3876C17.5842 22.3876 20.6488 20.1272 21.8475 16.9576L13.9999 16.3976L6.15234 16.9576C7.35074 20.1269 10.4156 22.3876 13.9999 22.3876Z" fill="#E90000"/>
<path d="M21.9446 11.3164C21.9135 11.2246 21.8816 11.133 21.8475 11.0426H6.15234C5.4375 12.8836 5.4375 15.1163 6.15234 16.9573H21.8475C22.5253 15.2124 22.5645 13.0841 21.9446 11.3164Z" fill="#0000D2"/>
</svg>
