<svg width="24" height="24" viewBox="0 0 24 24" fill="none" xmlns="http://www.w3.org/2000/svg">
<g clip-path="url(#clip0_2184_11554)">
<path d="M5.49999 24H1.5C0.672999 24 0 23.327 0 22.5V7.5C0 6.673 0.672999 6 1.5 6H5.49999C6.32699 6 6.99999 6.673 6.99999 7.5V22.5C6.99999 23.327 6.32699 24 5.49999 24ZM1.5 7C1.224 7 0.999999 7.224 0.999999 7.5V22.5C0.999999 22.776 1.224 23 1.5 23H5.49999C5.77599 23 5.99999 22.776 5.99999 22.5V7.5C5.99999 7.224 5.77599 7 5.49999 7H1.5Z" fill="#828282"/>
<path d="M11.5 24H7.5C6.673 24 6 23.327 6 22.5V1.5C6 0.673 6.673 0 7.5 0H11.5C12.327 0 13 0.673 13 1.5V22.5C13 23.327 12.327 24 11.5 24ZM7.5 1C7.224 1 7 1.224 7 1.5V22.5C7 22.776 7.224 23 7.5 23H11.5C11.776 23 12 22.776 12 22.5V1.5C12 1.224 11.776 1 11.5 1H7.5Z" fill="#828282"/>
<path d="M3.5 20H0.5C0.224 20 0 19.776 0 19.5C0 19.224 0.224 19 0.5 19H3.5C3.776 19 4 19.224 4 19.5C4 19.776 3.776 20 3.5 20Z" fill="#828282"/>
<path d="M9.49999 20H6.5C6.224 20 6 19.776 6 19.5C6 19.224 6.224 19 6.5 19H9.49999C9.77599 19 9.99999 19.224 9.99999 19.5C9.99999 19.776 9.77599 20 9.49999 20Z" fill="#828282"/>
<path d="M3.5 17C3.224 17 3 16.776 3 16.5V9.5C3 9.224 3.224 9 3.5 9C3.776 9 4 9.224 4 9.5V16.5C4 16.776 3.776 17 3.5 17Z" fill="#828282"/>
<path d="M9.5 17C9.224 17 9 16.776 9 16.5V3.5C9 3.224 9.224 3 9.5 3C9.776 3 10 3.224 10 3.5V16.5C10 16.776 9.776 17 9.5 17Z" fill="#828282"/>
<path d="M18.6369 24C17.9739 24 17.3659 23.558 17.1869 22.888L12.1399 4.05197C12.0359 3.66497 12.0889 3.26097 12.2899 2.91397C12.4899 2.56697 12.8129 2.31897 13.2009 2.21497L17.0649 1.17997C17.4529 1.07597 17.8569 1.12897 18.2029 1.32897C18.5499 1.52997 18.7989 1.85297 18.9019 2.23997L23.9489 21.075C24.1629 21.875 23.6869 22.699 22.8879 22.912L19.0239 23.948C18.8949 23.983 18.7649 24 18.6369 24ZM17.4539 2.12897C17.4109 2.12897 17.3669 2.13397 17.3239 2.14597L13.4599 3.18097C13.3309 3.21597 13.2229 3.29797 13.1559 3.41397C13.0899 3.52997 13.0719 3.66397 13.1059 3.79297L18.1529 22.629C18.2249 22.895 18.4969 23.053 18.7659 22.983L22.6289 21.947C22.8949 21.876 23.0539 21.601 22.9829 21.334L17.9359 2.49997C17.9009 2.37097 17.8189 2.26297 17.7029 2.19597C17.6259 2.15097 17.5409 2.12897 17.4539 2.12897Z" fill="#828282"/>
<path d="M16.893 20.3616C16.672 20.3616 16.47 20.2146 16.411 19.9906C16.34 19.7236 16.498 19.4496 16.765 19.3786L19.663 18.6026C19.931 18.5326 20.205 18.6886 20.275 18.9566C20.346 19.2236 20.188 19.4976 19.921 19.5686L17.023 20.3446C16.979 20.3556 16.936 20.3616 16.893 20.3616Z" fill="#828282"/>
<path d="M19.015 16.6865C18.794 16.6865 18.593 16.5395 18.533 16.3155L15.556 5.20752C15.485 4.94052 15.643 4.66652 15.91 4.59552C16.176 4.52352 16.451 4.68152 16.522 4.94952L19.499 16.0575C19.57 16.3245 19.412 16.5985 19.145 16.6695C19.101 16.6805 19.058 16.6865 19.015 16.6865Z" fill="#828282"/>
</g>
<defs>
<clipPath id="clip0_2184_11554">
<rect width="24" height="24" fill="white"/>
</clipPath>
</defs>
</svg>
