<svg width="25" height="25" viewBox="0 0 25 25" fill="none" xmlns="http://www.w3.org/2000/svg">
<g clip-path="url(#clip0_1314_7942)">
<path d="M23.6875 24.6666H20.5625C19.701 24.6666 19 23.9656 19 23.1041V9.5625C19 8.70104 19.701 8 20.5625 8H23.6875C24.549 8 25.25 8.70104 25.25 9.5625V23.1041C25.25 23.9656 24.549 24.6666 23.6875 24.6666ZM20.5625 9.04166C20.276 9.04166 20.0417 9.275 20.0417 9.5625V23.1041C20.0417 23.3916 20.276 23.625 20.5625 23.625H23.6875C23.974 23.625 24.2083 23.3916 24.2083 23.1041V9.5625C24.2083 9.275 23.974 9.04166 23.6875 9.04166H20.5625Z" fill="#219653"/>
<path d="M15.1042 24.9996H1.5625C0.701042 24.9996 0 24.2986 0 23.4371V9.89551C0 9.03405 0.701042 8.33301 1.5625 8.33301H15.1042C15.9656 8.33301 16.6667 9.03405 16.6667 9.89551V23.4371C16.6667 24.2986 15.9656 24.9996 15.1042 24.9996ZM1.5625 9.37467C1.27604 9.37467 1.04167 9.60801 1.04167 9.89551V23.4371C1.04167 23.7246 1.27604 23.958 1.5625 23.958H15.1042C15.3906 23.958 15.625 23.7246 15.625 23.4371V9.89551C15.625 9.60801 15.3906 9.37467 15.1042 9.37467H1.5625Z" fill="#219653"/>
<path d="M23.4375 6.25H1.5625C0.701042 6.25 0 5.54896 0 4.6875V1.5625C0 0.701042 0.701042 0 1.5625 0H23.4375C24.299 0 25 0.701042 25 1.5625V4.6875C25 5.54896 24.299 6.25 23.4375 6.25ZM1.5625 1.04167C1.27604 1.04167 1.04167 1.275 1.04167 1.5625V4.6875C1.04167 4.975 1.27604 5.20833 1.5625 5.20833H23.4375C23.724 5.20833 23.9583 4.975 23.9583 4.6875V1.5625C23.9583 1.275 23.724 1.04167 23.4375 1.04167H1.5625Z" fill="#219653"/>
</g>
<defs>
<clipPath id="clip0_1314_7942">
<rect width="25" height="25" fill="white"/>
</clipPath>
</defs>
</svg>
