<svg width="30" height="31" viewBox="0 0 30 31" fill="none" xmlns="http://www.w3.org/2000/svg">
<g clip-path="url(#clip0_3448_17864)">
<path d="M16.8755 5.92422C16.5305 5.92422 16.2505 5.64422 16.2505 5.29922V3.19922C16.2505 2.51047 15.6892 1.94922 15.0005 1.94922C14.3117 1.94922 13.7505 2.51047 13.7505 3.19922V5.29922C13.7505 5.64422 13.4705 5.92422 13.1255 5.92422C12.7805 5.92422 12.5005 5.64547 12.5005 5.29922V3.19922C12.5005 1.82047 13.6217 0.699219 15.0005 0.699219C16.3792 0.699219 17.5005 1.82047 17.5005 3.19922V5.29922C17.5005 5.64547 17.2205 5.92422 16.8755 5.92422Z" fill="#219653"/>
<path d="M15.0005 30.6992C12.588 30.6992 10.6255 28.7367 10.6255 26.3242C10.6255 25.9792 10.9055 25.6992 11.2505 25.6992C11.5955 25.6992 11.8755 25.9792 11.8755 26.3242C11.8755 28.0467 13.278 29.4492 15.0005 29.4492C16.723 29.4492 18.1255 28.0467 18.1255 26.3242C18.1255 25.9792 18.4055 25.6992 18.7505 25.6992C19.0955 25.6992 19.3755 25.9792 19.3755 26.3242C19.3755 28.7367 17.413 30.6992 15.0005 30.6992Z" fill="#219653"/>
<path d="M25.6245 26.9492H4.37451C3.34076 26.9492 2.49951 26.108 2.49951 25.0742C2.49951 24.5255 2.73826 24.0067 3.15576 23.6492C5.12576 21.9842 6.24951 19.5617 6.24951 16.9967V13.1992C6.24951 8.37422 10.1745 4.44922 14.9995 4.44922C19.8245 4.44922 23.7495 8.37422 23.7495 13.1992V16.9967C23.7495 19.563 24.8733 21.9842 26.8333 23.6405C27.2608 24.0067 27.4995 24.5255 27.4995 25.0742C27.4995 26.108 26.6595 26.9492 25.6245 26.9492ZM14.9995 5.69922C10.8633 5.69922 7.49951 9.06297 7.49951 13.1992V16.9967C7.49951 19.9317 6.21451 22.7005 3.97326 24.5955C3.82951 24.718 3.74951 24.8917 3.74951 25.0742C3.74951 25.4192 4.02951 25.6992 4.37451 25.6992H25.6245C25.9695 25.6992 26.2495 25.4192 26.2495 25.0742C26.2495 24.8917 26.1695 24.718 26.0308 24.5992C23.7858 22.7005 22.4995 19.9305 22.4995 16.9967V13.1992C22.4995 9.06297 19.1358 5.69922 14.9995 5.69922Z" fill="#219653"/>
</g>
<defs>
<clipPath id="clip0_3448_17864">
<rect width="30" height="30" fill="white" transform="translate(0 0.699219)"/>
</clipPath>
</defs>
</svg>
