<svg width="30" height="31" viewBox="0 0 30 31" fill="none" xmlns="http://www.w3.org/2000/svg">
<g clip-path="url(#clip0_3448_17811)">
<path d="M25.625 28.1992H3.125C1.40125 28.1992 0 26.7967 0 25.0742V7.57422C0 7.22922 0.28 6.94922 0.625 6.94922C0.97 6.94922 1.25 7.22922 1.25 7.57422V25.0742C1.25 26.108 2.09125 26.9492 3.125 26.9492H25.625C25.9688 26.9492 26.25 26.6692 26.25 26.3242V22.5742C26.25 22.2292 26.53 21.9492 26.875 21.9492C27.22 21.9492 27.5 22.2292 27.5 22.5742V26.3242C27.5 27.358 26.6588 28.1992 25.625 28.1992Z" fill="#219653"/>
<path d="M26.875 15.6992C26.53 15.6992 26.25 15.4192 26.25 15.0742V11.3242C26.25 10.9792 25.9688 10.6992 25.625 10.6992H3.125C2.28125 10.6992 1.49625 10.3705 0.91375 9.77297C0.32875 9.20297 0 8.41797 0 7.57422C0 5.85172 1.40125 4.44922 3.125 4.44922H13.8125C14.1575 4.44922 14.4375 4.72922 14.4375 5.07422C14.4375 5.41922 14.1575 5.69922 13.8125 5.69922H3.125C2.09125 5.69922 1.25 6.54047 1.25 7.57422C1.25 8.07797 1.445 8.54422 1.7975 8.88922C2.155 9.25422 2.6225 9.44922 3.125 9.44922H25.625C26.6588 9.44922 27.5 10.2905 27.5 11.3242V15.0742C27.5 15.4192 27.22 15.6992 26.875 15.6992Z" fill="#219653"/>
<path d="M23.1249 10.6992C22.7799 10.6992 22.4999 10.4192 22.4999 10.0742V6.32422C22.4999 5.97922 22.2186 5.69922 21.8749 5.69922H19.5874C19.2424 5.69922 18.9624 5.41922 18.9624 5.07422C18.9624 4.72922 19.2424 4.44922 19.5874 4.44922H21.8749C22.9086 4.44922 23.7499 5.29047 23.7499 6.32422V10.0742C23.7499 10.4192 23.4699 10.6992 23.1249 10.6992Z" fill="#219653"/>
<path d="M22.4998 10.6988C22.2848 10.6988 22.076 10.5875 21.9598 10.3888L17.9035 3.43503L5.94602 10.61C5.65352 10.7875 5.26727 10.6925 5.08852 10.395C4.91102 10.1 5.00727 9.71503 5.30352 9.53753L17.8035 2.03753C17.946 1.95128 18.1185 1.92878 18.2798 1.96753C18.4423 2.00878 18.5798 2.11378 18.6648 2.25753L23.0398 9.75753C23.2148 10.0563 23.1135 10.4388 22.8148 10.6125C22.716 10.6713 22.6073 10.6988 22.4998 10.6988V10.6988Z" fill="#219653"/>
<path d="M29.375 23.1992H23.125C20.7125 23.1992 18.75 21.2367 18.75 18.8242C18.75 16.4117 20.7125 14.4492 23.125 14.4492H29.375C29.72 14.4492 30 14.7292 30 15.0742V22.5742C30 22.9192 29.72 23.1992 29.375 23.1992ZM23.125 15.6992C21.4013 15.6992 20 17.1017 20 18.8242C20 20.5467 21.4013 21.9492 23.125 21.9492H28.75V15.6992H23.125Z" fill="#219653"/>
<path d="M23.125 20.6992C22.0912 20.6992 21.25 19.858 21.25 18.8242C21.25 17.7905 22.0912 16.9492 23.125 16.9492C24.1588 16.9492 25 17.7905 25 18.8242C25 19.858 24.1588 20.6992 23.125 20.6992ZM23.125 18.1992C22.7812 18.1992 22.5 18.4792 22.5 18.8242C22.5 19.1692 22.7812 19.4492 23.125 19.4492C23.4688 19.4492 23.75 19.1692 23.75 18.8242C23.75 18.4792 23.4688 18.1992 23.125 18.1992Z" fill="#219653"/>
</g>
<defs>
<clipPath id="clip0_3448_17811">
<rect width="30" height="30" fill="white" transform="translate(0 0.699219)"/>
</clipPath>
</defs>
</svg>
