<svg width="25" height="25" viewBox="0 0 25 25" fill="none" xmlns="http://www.w3.org/2000/svg">
<path fill-rule="evenodd" clip-rule="evenodd" d="M11.1562 2.5C8.94711 2.5 7.15625 4.29086 7.15625 6.5C7.15625 8.70914 8.94711 10.5 11.1562 10.5C13.3653 10.5 15.1562 8.70914 15.1562 6.5C15.1562 4.29086 13.3653 2.5 11.1562 2.5ZM6.15625 6.5C6.15625 3.73858 8.39482 1.5 11.1562 1.5C13.9176 1.5 16.1562 3.73858 16.1562 6.5C16.1562 9.26142 13.9176 11.5 11.1562 11.5C8.39482 11.5 6.15625 9.26142 6.15625 6.5Z" fill="#219653"/>
<path fill-rule="evenodd" clip-rule="evenodd" d="M9.99813 13.9339C10.0233 14.2089 9.82078 14.4523 9.54579 14.4774C7.24366 14.6882 4.97355 15.3517 2.87259 16.4682C2.73946 16.5389 2.65625 16.6774 2.65625 16.8281V20.5C2.65625 20.7762 2.8801 21 3.15625 21H9.50021C9.77635 21 10.0002 21.2239 10.0002 21.5C10.0002 21.7762 9.77635 22 9.50021 22H3.15625C2.32782 22 1.65625 21.3285 1.65625 20.5V16.8281C1.65625 16.3075 1.9436 15.8294 2.40333 15.5851C4.62321 14.4055 7.02207 13.7043 9.45463 13.4816C9.72962 13.4564 9.97296 13.659 9.99813 13.9339Z" fill="#219653"/>
<path fill-rule="evenodd" clip-rule="evenodd" d="M18.2867 12.3111C18.1146 12.1906 17.8854 12.1906 17.7133 12.3111L13.7133 15.1111C13.5796 15.2047 13.5 15.3575 13.5 15.5207V22C13.5 22.2762 13.7239 22.5 14 22.5H22C22.2761 22.5 22.5 22.2762 22.5 22V15.5207C22.5 15.3575 22.4204 15.2047 22.2867 15.1111L18.2867 12.3111ZM17.1398 11.4919C17.6563 11.1303 18.3437 11.1303 18.8602 11.4919L22.8602 14.2919C23.2612 14.5725 23.5 15.0312 23.5 15.5207V22C23.5 22.8285 22.8284 23.5 22 23.5H14C13.1716 23.5 12.5 22.8285 12.5 22V15.5207C12.5 15.0312 12.7388 14.5725 13.1398 14.2919L17.1398 11.4919Z" fill="#219653"/>
<path fill-rule="evenodd" clip-rule="evenodd" d="M16 20.5C16 19.3954 16.8954 18.5 18 18.5C19.1046 18.5 20 19.3954 20 20.5V23C20 23.2761 19.7761 23.5 19.5 23.5H16.5C16.2239 23.5 16 23.2761 16 23V20.5ZM18 19.5C17.4477 19.5 17 19.9477 17 20.5V22.5H19V20.5C19 19.9477 18.5523 19.5 18 19.5Z" fill="#219653"/>
</svg>
