<svg width="26" height="29" viewBox="0 0 26 29" fill="none" xmlns="http://www.w3.org/2000/svg">
<g clip-path="url(#clip0_431_1529)">
<path d="M19.7221 20.5H9.92721C8.76574 20.5 7.73656 19.7032 7.42614 18.5629L4.11464 6.7272C3.92714 6.0424 3.3115 5.56667 2.61462 5.56667H0.0208395C-0.266664 5.56667 -0.5 5.32773 -0.5 5.03333C-0.5 4.73893 -0.266664 4.5 0.0208395 4.5H2.61462C3.77609 4.5 4.80527 5.2968 5.11569 6.43707L5.76882 8.76667H22.9367C23.4357 8.76667 23.893 9.00133 24.1899 9.41093C24.4878 9.82053 24.5763 10.3368 24.4326 10.8253L22.1919 18.6653C21.8315 19.7704 20.8409 20.5 19.7221 20.5ZM6.06674 9.83333L8.42823 18.2728C8.61469 18.9576 9.23032 19.4333 9.92721 19.4333H19.7221C20.3825 19.4333 20.9888 18.9864 21.1971 18.3475L23.4357 10.5203C23.4836 10.3571 23.4534 10.1853 23.3544 10.0488C23.2555 9.9112 23.1034 9.83333 22.9367 9.83333H6.06674Z" fill="black"/>
<path d="M10.5 25.5C9.397 25.5 8.5 24.603 8.5 23.5C8.5 22.397 9.397 21.5 10.5 21.5C11.603 21.5 12.5 22.397 12.5 23.5C12.5 24.603 11.603 25.5 10.5 25.5ZM10.5 22.5C9.948 22.5 9.5 22.949 9.5 23.5C9.5 24.051 9.948 24.5 10.5 24.5C11.052 24.5 11.5 24.051 11.5 23.5C11.5 22.949 11.052 22.5 10.5 22.5Z" fill="black"/>
<path d="M18.5 25.5C17.397 25.5 16.5 24.603 16.5 23.5C16.5 22.397 17.397 21.5 18.5 21.5C19.603 21.5 20.5 22.397 20.5 23.5C20.5 24.603 19.603 25.5 18.5 25.5ZM18.5 22.5C17.948 22.5 17.5 22.949 17.5 23.5C17.5 24.051 17.948 24.5 18.5 24.5C19.052 24.5 19.5 24.051 19.5 23.5C19.5 22.949 19.052 22.5 18.5 22.5Z" fill="black"/>
<circle cx="21.5" cy="10.5" r="4.5" fill="#EB5757"/>
</g>
<defs>
<clipPath id="clip0_431_1529">
<rect width="26" height="25" fill="white" transform="translate(0 0.5)"/>
</clipPath>
</defs>
</svg>
