<svg width="25" height="26" viewBox="0 0 25 26" fill="none" xmlns="http://www.w3.org/2000/svg">
<g clip-path="url(#clip0_365_571)">
<path d="M12.5 0.5C7.26075 0.5 3 4.70469 3 9.875C3 16.3734 11.5753 24.9109 11.9395 25.2719C12.0947 25.4234 12.2973 25.5 12.5 25.5C12.7027 25.5 12.9053 25.4234 13.0605 25.2719C13.4247 24.9109 22 16.3734 22 9.875C22 4.70469 17.7393 0.5 12.5 0.5ZM12.5 23.5891C10.6095 21.5922 4.58333 14.8391 4.58333 9.875C4.58333 5.56719 8.13475 2.0625 12.5 2.0625C16.8653 2.0625 20.4167 5.56719 20.4167 9.875C20.4167 14.8344 14.3905 21.5922 12.5 23.5891Z" fill="#FECB25"/>
<path d="M12.5 5.5C10.019 5.5 8 7.519 8 10C8 12.481 10.019 14.5 12.5 14.5C14.981 14.5 17 12.481 17 10C17 7.519 14.981 5.5 12.5 5.5ZM12.5 13C10.8455 13 9.5 11.6545 9.5 10C9.5 8.3455 10.8455 7 12.5 7C14.1545 7 15.5 8.3455 15.5 10C15.5 11.6545 14.1545 13 12.5 13Z" fill="#FECB25"/>
</g>
<defs>
<clipPath id="clip0_365_571">
<rect width="25" height="25" fill="white" transform="translate(0 0.5)"/>
</clipPath>
</defs>
</svg>
