<svg width="19" height="22" viewBox="0 0 19 22" fill="none" xmlns="http://www.w3.org/2000/svg">
<g clip-path="url(#clip0_301_187)">
<path d="M9.25 8.5C9.25 8.77614 9.02614 9 8.75 9C8.47386 9 8.25 8.77614 8.25 8.5C8.25 8.22386 8.47386 8 8.75 8C9.02614 8 9.25 8.22386 9.25 8.5Z" fill="#FECB25"/>
<path d="M8.78845 18C8.53368 18 8.32691 17.7648 8.32691 17.475V12.05H7.71155C7.45677 12.05 7.25 11.8148 7.25 11.525C7.25 11.2352 7.45677 11 7.71155 11H8.78845C9.04323 11 9.25 11.2352 9.25 11.525V17.475C9.25 17.7648 9.04323 18 8.78845 18Z" fill="#FECB25"/>
<path d="M9.25 22C4.2872 22 0.25 17.9628 0.25 13C0.25 8.0372 4.2872 4 9.25 4C14.2128 4 18.25 8.0372 18.25 13C18.25 17.9628 14.2128 22 9.25 22ZM9.25 5.125C4.90752 5.125 1.375 8.65752 1.375 13C1.375 17.3425 4.90752 20.875 9.25 20.875C13.5925 20.875 17.125 17.3425 17.125 13C17.125 8.65752 13.5925 5.125 9.25 5.125Z" fill="#FECB25"/>
<path d="M11.625 18H7.875C7.53 18 7.25 17.776 7.25 17.5C7.25 17.224 7.53 17 7.875 17H11.625C11.97 17 12.25 17.224 12.25 17.5C12.25 17.776 11.97 18 11.625 18Z" fill="#FECB25"/>
</g>
<defs>
<clipPath id="clip0_301_187">
<rect width="18" height="18" fill="white" transform="translate(0.25 4)"/>
</clipPath>
</defs>
</svg>
